<?xml version="1.0" standalone="no"?>
<!DOCTYPE svg PUBLIC "-//W3C//DTD SVG 1.1//EN" "http://www.w3.org/Graphics/SVG/1.1/DTD/svg11.dtd" >
<svg>
<metadata>
Created by FontForge 20120731 at Mon Mar 15 16:59:19 2021
 By ffonts
Copyright 2016 The Muli Project Authors (contact@sansoxygen.com)
</metadata>
<defs>
<font id="Winston-ExtraLight" horiz-adv-x="0" >
  <font-face 
    font-family="Winston ExtraLight"
    font-weight="200"
    font-stretch="normal"
    units-per-em="1000"
    panose-1="0 0 0 0 0 0 0 0 0 0"
    ascent="800"
    descent="-200"
    x-height="500"
    cap-height="705"
    bbox="-376 -270 1264 1036"
    underline-thickness="28"
    underline-position="-94"
    unicode-range="U+001D-FB02"
  />
<missing-glyph horiz-adv-x="500" 
d="M50 -216h400v952h-400v-952zM100 -166v852h300v-852h-300z" />
    <glyph glyph-name="uniFB01" unicode="fi" horiz-adv-x="527" 
d="M108 0v464h-100v36h100v78q0 77 37.5 119.5t106.5 42.5q17 0 36 -3.5t30 -8.5v-40q-11 5 -28 9t-36 4q-104 0 -104 -130v-71h289v-500h-42v464h-247v-464h-42zM385 631v63h65v-63h-65z" />
    <glyph glyph-name="uniFB02" unicode="fl" horiz-adv-x="594" 
d="M396 464h-246v-464h-42v464h-100v36h100v78q0 77 37.5 119.5t106.5 42.5q17 0 36 -3.5t30 -8.5v-40q-11 5 -28 9t-36 4q-104 0 -104 -130v-71h246v236h44v-576q0 -127 98 -127q26 0 49 6l-3 -41q-28 -6 -50 -6q-66 0 -102 42.5t-36 118.5v311z" />
    <glyph glyph-name=".notdef" horiz-adv-x="500" 
d="M50 -216h400v952h-400v-952zM100 -166v852h300v-852h-300z" />
    <glyph glyph-name="uni0000" 
 />
    <glyph glyph-name="uni0000" 
 />
    <glyph glyph-name="uni0009" horiz-adv-x="250" 
 />
    <glyph glyph-name="space" unicode=" " horiz-adv-x="250" 
 />
    <glyph glyph-name="exclam" unicode="!" horiz-adv-x="211" 
d="M92 162l-13 543h53l-13 -543h-27zM71 0v70h69v-70h-69z" />
    <glyph glyph-name="quotedbl" unicode="&#x22;" horiz-adv-x="342" 
d="M75 440zM88 440l-13 265h52l-11 -265h-28zM228 440l-13 265h52l-11 -265h-28z" />
    <glyph glyph-name="numbersign" unicode="#" horiz-adv-x="600" 
d="M93 0l39 191h-109v40h116l51 251h-147v40h155l37 183h42l-36 -183h184l36 183h44l-37 -183h109v-40h-117l-51 -251h148v-40h-155l-39 -191h-44l39 191h-183l-38 -191h-44zM182 231h184l51 251h-184z" />
    <glyph glyph-name="dollar" unicode="$" horiz-adv-x="600" 
d="M290 -115v111q-67 2 -127 22.5t-107 64.5l22 36q49 -43 99.5 -62.5t125.5 -19.5q95 0 143.5 40t48.5 104q0 53 -35.5 83t-115.5 47l-95 20q-90 19 -133.5 63t-43.5 117q0 57 28 101.5t77 70t113 26.5v111h40v-112q50 -3 102 -25t90 -65l-20 -36q-42 46 -90.5 66
t-110.5 20q-85 0 -136.5 -43t-51.5 -114q0 -57 33 -90t105 -48l95 -20q98 -20 145 -60.5t47 -110.5q0 -81 -58 -130t-150 -55v-112h-40z" />
    <glyph glyph-name="percent" unicode="%" horiz-adv-x="926" 
d="M228 281q-78 0 -123 56.5t-45 159.5t45.5 159t122.5 56q78 0 123 -56t45 -159t-45 -159.5t-123 -56.5zM273 0h-42l422 705h42zM228 318q59 0 92.5 45.5t33.5 133.5q0 87 -33.5 132.5t-92.5 45.5q-58 0 -91.5 -45.5t-33.5 -132.5q0 -88 33.5 -133.5t91.5 -45.5zM698 -8
q-78 0 -123 56t-45 160q0 103 45.5 159t122.5 56q78 0 123 -56t45 -159t-45 -159.5t-123 -56.5zM698 29q59 0 92.5 45.5t33.5 133.5q0 87 -33.5 132.5t-92.5 45.5q-58 0 -91.5 -45.5t-33.5 -132.5q0 -88 33.5 -133.5t91.5 -45.5z" />
    <glyph glyph-name="ampersand" unicode="&#x26;" horiz-adv-x="655" 
d="M646 -8q-43 24 -78.5 54t-58.5 56q-41 -53 -100 -81.5t-130 -28.5q-102 0 -158 46t-56 122q0 69 40 117.5t117 101.5l24 17q-48 55 -69.5 93.5t-21.5 79.5q0 64 43 104t115 40q60 0 101.5 -35.5t41.5 -97.5q0 -34 -13 -63t-45.5 -60t-90.5 -68l196 -222q24 43 38.5 105
t15.5 132h41q-2 -80 -19.5 -148.5t-46.5 -119.5q24 -27 60.5 -58t77.5 -53zM313 674q-52 0 -84 -29t-32 -77q0 -24 7.5 -44.5t26.5 -45.5t52 -61q69 47 100.5 83t31.5 76q0 44 -28 71t-74 27zM278 31q66 0 117 26t88 75l-212 235l-24 -17q-49 -34 -80 -62.5t-45.5 -58
t-14.5 -68.5q0 -61 43.5 -95.5t127.5 -34.5z" />
    <glyph glyph-name="quotesingle" unicode="'" horiz-adv-x="202" 
d="M88 440l-13 265h52l-11 -265h-28z" />
    <glyph glyph-name="parenleft" unicode="(" horiz-adv-x="284" 
d="M215 -180q-55 113 -82.5 219.5t-27.5 223.5t27.5 223.5t82.5 218.5h38q-50 -109 -77 -220t-27 -222t27 -222.5t77 -220.5h-38z" />
    <glyph glyph-name="parenright" unicode=")" horiz-adv-x="284" 
d="M69 -180h-38q50 109 77 220t27 222t-27 222.5t-77 220.5h38q56 -112 83 -219t27 -224t-27 -223t-83 -219z" />
    <glyph glyph-name="asterisk" unicode="*" horiz-adv-x="452" 
d="M128 377l-31 23l102 135l-162 51l13 37l159 -56l-4 169h40l-3 -170l162 57l11 -37l-162 -51l102 -135l-32 -23l-96 141z" />
    <glyph glyph-name="plus" unicode="+" horiz-adv-x="600" 
d="M280 90v230h-228v39h228v226h40v-226h228v-39h-228v-230h-40z" />
    <glyph glyph-name="comma" unicode="," horiz-adv-x="211" 
d="M96 -98l-26 20q20 22 26 41t7 37h-32v70h69v-55q0 -31 -9 -59.5t-35 -53.5z" />
    <glyph glyph-name="hyphen" unicode="-" horiz-adv-x="420" 
d="M76 319v38h268v-38h-268z" />
    <glyph glyph-name="period" unicode="." horiz-adv-x="211" 
d="M71 0v70h69v-70h-69z" />
    <glyph glyph-name="slash" unicode="/" horiz-adv-x="259" 
d="M20 -52h-41l260 796h41z" />
    <glyph glyph-name="zero" unicode="0" horiz-adv-x="600" 
d="M300 -8q-116 0 -178 92t-62 268q0 178 62 269.5t178 91.5q117 0 178.5 -91.5t61.5 -268.5t-62 -269t-178 -92zM300 33q98 0 146.5 78.5t48.5 241.5q0 164 -48.5 241.5t-146.5 77.5q-97 0 -146 -78.5t-49 -240.5q0 -163 49 -241.5t146 -78.5z" />
    <glyph glyph-name="one" unicode="1" horiz-adv-x="600" 
d="M142 0v39h169v610l-154 -100v47l165 109h31v-666h159v-39h-370z" />
    <glyph glyph-name="two" unicode="2" horiz-adv-x="600" 
d="M94 0v32l264 277q53 55 80.5 108t27.5 111q0 71 -43 107.5t-125 36.5q-62 0 -112.5 -22t-94.5 -67l-20 36q38 42 98.5 68t128.5 26q101 0 156.5 -48t55.5 -136q0 -67 -34 -129t-94 -124l-230 -237h389v-39h-447z" />
    <glyph glyph-name="three" unicode="3" horiz-adv-x="600" 
d="M303 -8q-70 0 -133 22.5t-109 65.5l21 36q52 -44 105 -63.5t116 -19.5q89 0 136 40t47 115q0 74 -49 112.5t-144 38.5h-99v39h97q80 0 128 43t48 116q0 65 -43.5 100t-122.5 35q-121 0 -207 -89l-20 36q39 44 99.5 69t127.5 25q98 0 154 -46.5t56 -129.5
q0 -62 -32.5 -107.5t-89.5 -65.5q68 -17 104.5 -63t36.5 -113q0 -91 -60.5 -143.5t-166.5 -52.5z" />
    <glyph glyph-name="four" unicode="4" horiz-adv-x="600" 
d="M413 0v166h-355v33l362 506h35v-500h115v-39h-115v-166h-42zM413 205v422l-302 -422h302z" />
    <glyph glyph-name="five" unicode="5" horiz-adv-x="600" 
d="M321 -8q-69 0 -131 22.5t-107 65.5l21 36q51 -43 103.5 -63t113.5 -20q86 0 135.5 48.5t49.5 127.5q0 81 -47 133t-131 52q-59 0 -104.5 -24t-77.5 -76h-38v411h400v-39h-357v-310q30 38 76.5 58.5t103.5 20.5q68 0 117 -28t75.5 -77.5t26.5 -116.5q0 -65 -28 -115
t-79 -78t-122 -28z" />
    <glyph glyph-name="six" unicode="6" horiz-adv-x="600" 
d="M321 -8q-124 0 -190.5 89.5t-66.5 249.5q0 185 73.5 283.5t204.5 98.5q54 0 110 -24.5t89 -65.5l-20 -36q-38 43 -84.5 64t-95.5 21q-112 0 -173 -83.5t-61 -248.5v-71q18 77 76 121t138 44q66 0 116 -28t78.5 -77.5t28.5 -114.5q0 -64 -28.5 -114.5t-79 -79
t-115.5 -28.5zM317 33q54 0 95.5 23t64.5 63.5t23 93.5t-23 93.5t-64.5 63.5t-95.5 23t-95.5 -23t-64.5 -63.5t-23 -93.5t23 -93.5t64.5 -63.5t95.5 -23z" />
    <glyph glyph-name="seven" unicode="7" horiz-adv-x="600" 
d="M136 0l339 666h-399v39h448v-31l-341 -674h-47z" />
    <glyph glyph-name="eight" unicode="8" horiz-adv-x="600" 
d="M300 -8q-118 0 -181.5 50.5t-63.5 141.5q0 68 39.5 114.5t105.5 60.5q-60 19 -94 64t-34 104q0 88 61 137t167 49q107 0 168 -49t61 -137q0 -59 -32 -104t-91 -64q65 -14 102 -60.5t37 -114.5q0 -91 -63 -141.5t-182 -50.5zM300 377q89 0 136.5 39.5t47.5 109.5
t-47.5 108.5t-136.5 38.5t-136.5 -38.5t-47.5 -108.5t47.5 -109.5t136.5 -39.5zM300 32q201 0 201 153q0 152 -201 152t-201 -152q0 -153 201 -153z" />
    <glyph glyph-name="nine" unicode="9" horiz-adv-x="600" 
d="M259 -8q-54 0 -110 25t-90 65l21 36q38 -43 84.5 -64t95.5 -21q111 0 172 83.5t61 248.5v68q-19 -75 -76.5 -118.5t-136.5 -43.5q-66 0 -116.5 28t-79 78t-28.5 114q0 65 28.5 115t79 78.5t115.5 28.5q125 0 191.5 -89t66.5 -250q0 -185 -73.5 -283.5t-204.5 -98.5z
M284 312q54 0 95.5 23t64.5 63.5t23 93.5t-23 93.5t-64.5 63.5t-95.5 23t-95.5 -23t-64.5 -63.5t-23 -93.5t23 -93.5t64.5 -63.5t95.5 -23z" />
    <glyph glyph-name="colon" unicode=":" horiz-adv-x="211" 
d="M71 430v70h69v-70h-69zM71 0v70h69v-70h-69z" />
    <glyph glyph-name="semicolon" unicode=";" horiz-adv-x="211" 
d="M71 430v70h69v-70h-69zM96 -98l-26 20q20 22 26 41t7 37h-32v70h69v-55q0 -31 -9 -59.5t-35 -53.5z" />
    <glyph glyph-name="less" unicode="&#x3c;" horiz-adv-x="600" 
d="M547 36l-495 233v36l495 233v-44l-442 -207l442 -206v-45z" />
    <glyph glyph-name="equal" unicode="=" horiz-adv-x="600" 
d="M52 367v39h496v-39h-496zM52 168v39h496v-39h-496z" />
    <glyph glyph-name="greater" unicode="&#x3e;" horiz-adv-x="600" 
d="M53 36v45l442 206l-442 207v44l495 -233v-36z" />
    <glyph glyph-name="question" unicode="?" horiz-adv-x="433" 
d="M173 162v20q0 53 21 102t76 112q45 51 63 88.5t18 77.5q0 52 -36.5 81t-99.5 29q-39 0 -73 -9t-66 -26v46q31 14 66 22t72 8q82 0 131.5 -41.5t49.5 -109.5q0 -32 -9 -60.5t-29.5 -59.5t-55.5 -71q-49 -57 -70 -99t-26 -88l-2 -22h-30zM153 0v70h69v-70h-69z" />
    <glyph glyph-name="at" unicode="@" horiz-adv-x="973" 
d="M498 -162q-130 0 -227 53.5t-150 151.5t-53 233q0 97 32 177t91 138.5t140 90t178 31.5q118 0 207 -46t139 -129t50 -193q0 -86 -24.5 -150.5t-68.5 -100t-103 -35.5q-49 0 -77.5 24.5t-31.5 66.5q-28 -43 -71.5 -67t-89.5 -24q-77 0 -119.5 47t-42.5 130
q0 75 29.5 132.5t80.5 90.5t115 33q53 0 88.5 -23t48.5 -64l14 79h42l-49 -275q-2 -11 -3 -21.5t-1 -19.5q0 -72 70 -72q46 0 80 31t53.5 87t19.5 131q0 98 -45.5 172t-125.5 115.5t-186 41.5q-119 0 -208.5 -50t-139 -139.5t-49.5 -208.5q0 -124 47.5 -213.5t134.5 -137.5
t205 -48q89 0 161 28.5t115 80.5l27 -32q-50 -56 -129 -86t-174 -30zM440 98q53 0 94 29.5t65 81.5t24 117q0 127 -120 127q-52 0 -93.5 -28t-65.5 -77t-24 -112q0 -67 31.5 -102.5t88.5 -35.5z" />
    <glyph glyph-name="A" unicode="A" horiz-adv-x="721" 
d="M34 0l303 705h41l309 -705h-46l-85 195h-394l-83 -195h-45zM356 649l-176 -415h359l-181 415h-2z" />
    <glyph glyph-name="B" unicode="B" horiz-adv-x="672" 
d="M97 0v705h257q111 0 171 -47.5t60 -136.5q0 -60 -32 -101t-89 -60q64 -14 100.5 -57.5t36.5 -111.5q0 -94 -60 -142.5t-173 -48.5h-271zM139 376h213q93 0 141 37.5t48 107.5q0 71 -48 108t-141 37h-213v-290zM139 39h228q86 0 138 34t52 115q0 82 -52 115.5t-138 33.5
h-228v-298z" />
    <glyph glyph-name="C" unicode="C" horiz-adv-x="684" 
d="M385 -8q-102 0 -172.5 43.5t-107.5 124.5t-37 193t37 192.5t107.5 124t172.5 43.5q77 0 135.5 -24.5t103.5 -71.5l-22 -35q-49 47 -99.5 68.5t-118.5 21.5q-133 0 -202 -83.5t-69 -235.5t69 -236t202 -84q68 0 118.5 21.5t99.5 68.5l22 -35q-45 -47 -104 -71.5
t-135 -24.5z" />
    <glyph glyph-name="D" unicode="D" horiz-adv-x="733" 
d="M97 0v705h214q171 0 262.5 -89.5t91.5 -262.5t-91.5 -263t-262.5 -90h-214zM139 39h168q313 0 313 314q0 313 -313 313h-168v-627z" />
    <glyph glyph-name="E" unicode="E" horiz-adv-x="582" 
d="M97 0v705h428v-39h-386v-289h364v-39h-364v-299h386v-39h-428z" />
    <glyph glyph-name="F" unicode="F" horiz-adv-x="554" 
d="M97 0v705h418v-39h-376v-289h355v-39h-355v-338h-42z" />
    <glyph glyph-name="G" unicode="G" horiz-adv-x="723" 
d="M406 -8q-169 0 -253.5 94.5t-84.5 266.5q0 112 38.5 192.5t111 124t174.5 43.5q77 0 132.5 -24.5t101.5 -71.5l-22 -35q-33 32 -64.5 51.5t-66.5 29t-82 9.5q-133 0 -205.5 -84t-72.5 -236q0 -155 71.5 -237t221.5 -82q53 0 99.5 9t88.5 27v249h-194v39h234v-316
q-38 -21 -101.5 -35t-126.5 -14z" />
    <glyph glyph-name="H" unicode="H" horiz-adv-x="759" 
d="M97 0v705h42v-328h481v328h42v-705h-42v338h-481v-338h-42z" />
    <glyph glyph-name="I" unicode="I" horiz-adv-x="236" 
d="M97 0v705h42v-705h-42z" />
    <glyph glyph-name="J" unicode="J" horiz-adv-x="300" 
d="M70 -186q-16 0 -33.5 1.5t-36.5 6.5v39q38 -9 64 -9q46 0 71.5 30t25.5 94v729h42v-731q0 -76 -33.5 -118t-99.5 -42z" />
    <glyph glyph-name="K" unicode="K" horiz-adv-x="605" 
d="M97 0v705h42v-328h2l366 328h61l-390 -346l421 -359h-63l-395 338h-2v-338h-42z" />
    <glyph glyph-name="L" unicode="L" horiz-adv-x="532" 
d="M97 0v705h42v-666h378v-39h-420z" />
    <glyph glyph-name="M" unicode="M" horiz-adv-x="848" 
d="M97 0v705h37l290 -656l291 656h36v-705h-39v610l-270 -610h-35l-271 611v-611h-39z" />
    <glyph glyph-name="N" unicode="N" horiz-adv-x="739" 
d="M97 0v705h36l470 -635v635h39v-705h-35l-471 636v-636h-39z" />
    <glyph glyph-name="O" unicode="O" horiz-adv-x="759" 
d="M379 -8q-98 0 -167.5 44t-106.5 125t-37 192q0 112 36.5 192.5t106 124t168.5 43.5q96 0 166 -43.5t108 -124t38 -191.5q0 -112 -38.5 -193t-108.5 -125t-165 -44zM379 33q125 0 196 84t71 236t-70.5 235.5t-196.5 83.5q-130 0 -198 -83.5t-68 -235.5q0 -151 68 -235.5
t198 -84.5z" />
    <glyph glyph-name="P" unicode="P" horiz-adv-x="638" 
d="M97 0v705h263q107 0 166 -51t59 -143q0 -91 -59 -142.5t-166 -51.5h-221v-317h-42zM139 356h220q89 0 135 40.5t46 114.5t-46 114.5t-135 40.5h-220v-310z" />
    <glyph glyph-name="Q" unicode="Q" horiz-adv-x="759" 
d="M379 -8q-98 0 -167.5 44t-106.5 125t-37 192q0 112 36.5 192.5t106 124t168.5 43.5q96 0 166 -43.5t108 -124t38 -191.5q0 -142 -61 -234t-168 -118q27 -49 64.5 -89t74.5 -71l-30 -33q-39 29 -82.5 80t-73.5 105q-18 -2 -36 -2zM379 33q125 0 196 84t71 236t-70.5 235.5
t-196.5 83.5q-130 0 -198 -83.5t-68 -235.5q0 -151 68 -235.5t198 -84.5z" />
    <glyph glyph-name="R" unicode="R" horiz-adv-x="684" 
d="M97 0v705h270q107 0 166 -50t59 -141q0 -74 -41.5 -120t-107.5 -59q30 -6 54 -25t39 -58l97 -252h-47l-88 236q-20 55 -58.5 70.5t-99.5 15.5h-201v-322h-42zM139 361h224q90 0 137 39.5t47 113.5t-47 113t-137 39h-224v-305z" />
    <glyph glyph-name="S" unicode="S" horiz-adv-x="604" 
d="M313 -8q-85 0 -148 22.5t-113 65.5l21 36q37 -29 71 -47.5t74.5 -27t93.5 -8.5q98 0 148.5 39.5t50.5 105.5q0 56 -35.5 86t-121.5 47l-99 20q-97 20 -144 63t-47 119q0 60 31 105t86 70t128 25q151 0 240 -92l-20 -36q-49 47 -101 67t-119 20q-92 0 -146.5 -43
t-54.5 -116q0 -59 35 -91.5t113 -48.5l100 -20q104 -21 151.5 -60.5t47.5 -113.5q0 -83 -64.5 -135t-177.5 -52z" />
    <glyph glyph-name="T" unicode="T" horiz-adv-x="590" 
d="M272 0v666h-262v39h566v-39h-262v-666h-42z" />
    <glyph glyph-name="U" unicode="U" horiz-adv-x="722" 
d="M361 -8q-137 0 -203 71t-66 207v435h42v-429q0 -122 54.5 -182.5t172.5 -60.5q111 0 169 60.5t58 182.5v429h42v-435q0 -136 -69 -207t-200 -71z" />
    <glyph glyph-name="V" unicode="V" horiz-adv-x="677" 
d="M314 0l-302 705h45l281 -655l283 655h44l-305 -705h-46z" />
    <glyph glyph-name="W" unicode="W" horiz-adv-x="1104" 
d="M285 0l-243 705h45l220 -643l228 643h39l220 -647l225 647h43l-246 -705h-44l-217 643l-228 -643h-42z" />
    <glyph glyph-name="X" unicode="X" horiz-adv-x="636" 
d="M24 0l270 362l-255 343h51l230 -310l226 310h51l-254 -343l269 -362h-51l-243 328l-243 -328h-51z" />
    <glyph glyph-name="Y" unicode="Y" horiz-adv-x="587" 
d="M272 0v304l-271 401h49l245 -367l244 367h47l-272 -402v-303h-42z" />
    <glyph glyph-name="Z" unicode="Z" horiz-adv-x="585" 
d="M42 0v31l438 635h-438v39h494v-31l-439 -635h449v-39h-504z" />
    <glyph glyph-name="bracketleft" unicode="[" horiz-adv-x="284" 
d="M110 -180v885h170v-37h-128v-811h128v-37h-170z" />
    <glyph glyph-name="backslash" unicode="\" horiz-adv-x="259" 
d="M239 -52l-260 796h41l260 -796h-41z" />
    <glyph glyph-name="bracketright" unicode="]" horiz-adv-x="284" 
d="M4 -180v37h127v811h-127v37h169v-885h-169z" />
    <glyph glyph-name="asciicircum" unicode="^" horiz-adv-x="600" 
d="M47 142l234 486h36l236 -486h-43l-211 434l-210 -434h-42z" />
    <glyph glyph-name="underscore" unicode="_" horiz-adv-x="505" 
d="M4 -33v33h497v-33h-497z" />
    <glyph glyph-name="grave" unicode="`" horiz-adv-x="500" 
d="M110 549zM232 549l-122 200h54l104 -200h-36z" />
    <glyph glyph-name="a" unicode="a" horiz-adv-x="539" 
d="M247 -7q-74 0 -123 42.5t-49 105.5q0 54 29.5 85.5t97 44.5t206.5 13v43q0 70 -28 105t-92 35q-91 0 -173 -55l-21 37q35 25 83 42t105 17q171 0 171 -183v-325h-45v91q-27 -52 -69.5 -75t-91.5 -23zM247 36q54 0 89.5 24.5t53.5 63t18 82.5v38q-86 0 -141.5 -4.5
t-86.5 -15.5t-43.5 -30.5t-12.5 -49.5q0 -36 17 -60t45 -36t61 -12z" />
    <glyph glyph-name="b" unicode="b" horiz-adv-x="583" 
d="M308 -8q-63 0 -109 28.5t-69 79.5v-100h-42v736h42v-336q23 51 69 79.5t109 28.5q101 0 161 -68.5t60 -189.5t-60 -189.5t-161 -68.5zM307 31q82 0 130.5 56.5t48.5 162.5t-48.5 162.5t-130.5 56.5t-130 -56.5t-48 -162.5t48 -162.5t130 -56.5z" />
    <glyph glyph-name="c" unicode="c" horiz-adv-x="487" 
d="M281 -8q-105 0 -166 70.5t-61 191.5q0 122 62 188t165 66q47 0 90.5 -18.5t72.5 -51.5l-21 -32q-32 33 -69 48t-74 15q-86 0 -134.5 -55.5t-48.5 -160.5q0 -106 48.5 -164t134.5 -58q35 0 72.5 14.5t70.5 48.5l21 -32q-30 -34 -74.5 -52t-88.5 -18z" />
    <glyph glyph-name="d" unicode="d" horiz-adv-x="583" 
d="M274 -8q-101 0 -160.5 68.5t-59.5 189.5t59.5 189.5t160.5 68.5q62 0 109 -28.5t70 -79.5v336h42v-736h-42v100q-23 -51 -70 -79.5t-109 -28.5zM275 31q81 0 130 56.5t49 162.5t-49 162.5t-130 56.5q-82 0 -130 -56.5t-48 -162.5t48 -162.5t130 -56.5z" />
    <glyph glyph-name="e" unicode="e" horiz-adv-x="541" 
d="M294 -8q-110 0 -175 67.5t-65 188.5q0 80 29 138t81.5 90t120.5 32q97 0 151 -61t54 -168v-27h-393v-4q0 -106 52 -161.5t145 -55.5q47 0 88 15t79 51l21 -33q-31 -34 -82 -53t-106 -19zM284 470q-80 0 -128 -49.5t-57 -130.5h352q-3 84 -45.5 132t-121.5 48z" />
    <glyph glyph-name="f" unicode="f" horiz-adv-x="311" 
d="M108 0v464h-100v36h100v78q0 77 37.5 119.5t106.5 42.5q17 0 36 -3.5t30 -8.5v-40q-11 5 -28 9t-36 4q-104 0 -104 -130v-71h147v-36h-147v-464h-42z" />
    <glyph glyph-name="g" unicode="g" horiz-adv-x="587" 
d="M298 -223q-61 0 -114.5 17.5t-96.5 52.5l20 34q49 -36 91.5 -50.5t100.5 -14.5q78 0 118.5 42.5t40.5 121.5v138q-22 -51 -69.5 -79t-109.5 -28q-69 0 -119.5 30.5t-78 86.5t-27.5 132q0 114 61 181t164 67q63 0 110.5 -29t69.5 -82l8 103h41q-3 -28 -5.5 -55t-2.5 -53
v-405q0 -210 -202 -210zM278 50q83 0 131.5 55.5t48.5 154.5t-48.5 154t-131.5 55t-132 -55t-49 -154t49 -154.5t132 -55.5z" />
    <glyph glyph-name="h" unicode="h" horiz-adv-x="570" 
d="M88 0v736h42v-327q25 49 71.5 74t105.5 25q91 0 134.5 -47t43.5 -141v-320h-42v316q0 80 -32 116.5t-104 36.5q-80 0 -128.5 -49t-48.5 -130v-290h-42z" />
    <glyph glyph-name="i" unicode="i" horiz-adv-x="218" 
d="M77 631v63h64v-63h-64zM88 0v500h42v-500h-42z" />
    <glyph glyph-name="j" unicode="j" horiz-adv-x="218" 
d="M85 631v63h64v-63h-64zM9 -218q-10 0 -29.5 3.5t-30.5 7.5v40q11 -4 28 -8t30 -4q47 0 68 31t21 97v551h42v-560q0 -158 -129 -158z" />
    <glyph glyph-name="k" unicode="k" horiz-adv-x="482" 
d="M88 0v736h42v-467h2l259 231h58l-272 -241l305 -259h-61l-289 245h-2v-245h-42z" />
    <glyph glyph-name="l" unicode="l" horiz-adv-x="283" 
d="M223 -8q-66 0 -102 42.5t-36 118.5v583h44v-576q0 -127 98 -127q26 0 49 6l-3 -41q-28 -6 -50 -6z" />
    <glyph glyph-name="m" unicode="m" horiz-adv-x="860" 
d="M88 0v392q0 26 -2.5 53t-5.5 55h41l7 -93q22 49 63 75t97 26q122 0 152 -105q21 48 66 76.5t105 28.5q80 0 122 -46t42 -144v-318h-42v314q0 81 -29 118t-94 37q-73 0 -115.5 -49t-42.5 -132v-288h-42v314q0 81 -29 118t-94 37q-73 0 -115 -49t-42 -132v-288h-42z" />
    <glyph glyph-name="n" unicode="n" horiz-adv-x="570" 
d="M88 0v392q0 26 -2.5 53t-5.5 55h41l7 -95q25 51 71 77t106 26q89 0 134.5 -46t45.5 -144v-318h-42v314q0 81 -33 118t-104 37q-81 0 -128.5 -49t-47.5 -132v-288h-42z" />
    <glyph glyph-name="o" unicode="o" horiz-adv-x="553" 
d="M276 -8q-102 0 -162 69t-60 189t60 189t162 69t162.5 -69t60.5 -189t-60.5 -189t-162.5 -69zM276 31q82 0 131 56.5t49 162.5t-49 162.5t-131 56.5t-130.5 -56.5t-48.5 -162.5t48.5 -162.5t130.5 -56.5z" />
    <glyph glyph-name="p" unicode="p" horiz-adv-x="583" 
d="M88 -216v608q0 26 -2.5 53t-5.5 55h41l8 -102q22 52 68.5 81t109.5 29q101 0 161.5 -68.5t60.5 -189.5t-60 -189.5t-162 -68.5q-63 0 -109 28t-68 79v-315h-42zM307 31q82 0 130.5 56.5t48.5 162.5t-48.5 162.5t-130.5 56.5t-130 -56.5t-48 -162.5t48 -162.5t130 -56.5z
" />
    <glyph glyph-name="q" unicode="q" horiz-adv-x="583" 
d="M453 -216v315q-23 -51 -69.5 -79t-107.5 -28q-102 0 -162 68.5t-60 189.5t60.5 189.5t161.5 68.5q62 0 109 -29t69 -81l8 102h41q-3 -28 -5.5 -55t-2.5 -53v-608h-42zM276 31q82 0 130 56.5t48 162.5t-48 162.5t-130 56.5t-130.5 -56.5t-48.5 -162.5t48.5 -162.5
t130.5 -56.5z" />
    <glyph glyph-name="r" unicode="r" horiz-adv-x="336" 
d="M86 0v386q0 59 -6 114h41l5 -87q21 48 66.5 71.5t91.5 23.5q12 0 23.5 -1t21.5 -4l-2 -39q-10 3 -21.5 4t-24.5 1q-46 0 -80.5 -23.5t-53.5 -58t-19 -67.5v-320h-42z" />
    <glyph glyph-name="s" unicode="s" horiz-adv-x="492" 
d="M244 -8q-56 0 -105.5 17.5t-80.5 48.5l21 33q36 -31 78 -45.5t89 -14.5q68 0 104 26t36 71q0 35 -23 56.5t-76 32.5l-87 19q-64 15 -95 48t-31 82q0 62 48 102t131 40q53 0 97.5 -18t71.5 -50l-22 -33q-60 62 -147 62q-65 0 -99.5 -28t-34.5 -74q0 -35 21.5 -57t68.5 -33
l87 -20q68 -16 101 -46.5t33 -80.5q0 -63 -51 -100.5t-135 -37.5z" />
    <glyph glyph-name="t" unicode="t" horiz-adv-x="324" 
d="M234 -8q-61 0 -93.5 38.5t-32.5 117.5v316h-100v36h100v143l42 16v-159h152v-36h-152v-307q0 -66 20.5 -96t66.5 -30q20 0 36 4t27 9v-40q-26 -12 -66 -12z" />
    <glyph glyph-name="u" unicode="u" horiz-adv-x="561" 
d="M262 -8q-177 0 -177 191v317h42v-313q0 -81 33 -118.5t102 -37.5q77 0 123 49.5t46 131.5v288h42v-500h-41v93q-24 -49 -68.5 -75t-101.5 -26z" />
    <glyph glyph-name="v" unicode="v" horiz-adv-x="520" 
d="M236 0l-212 500h48l188 -455l189 455h47l-212 -500h-48z" />
    <glyph glyph-name="w" unicode="w" horiz-adv-x="857" 
d="M218 0l-176 500h47l154 -448l160 448h53l157 -447l156 447h46l-177 -500h-50l-158 449l-161 -449h-51z" />
    <glyph glyph-name="x" unicode="x" horiz-adv-x="522" 
d="M30 0l206 258l-195 242h53l167 -212l167 212h52l-193 -242l205 -258h-54l-177 225l-179 -225h-52z" />
    <glyph glyph-name="y" unicode="y" horiz-adv-x="520" 
d="M60 -227l-10 39q47 11 77.5 27.5t51.5 42.5t38 65l21 48l-214 505h48l189 -456l187 456h48l-233 -554q-24 -57 -53 -91.5t-66 -53t-84 -28.5z" />
    <glyph glyph-name="z" unicode="z" horiz-adv-x="512" 
d="M51 0v30l349 434h-349v36h401v-30l-350 -434h362v-36h-413z" />
    <glyph glyph-name="braceleft" unicode="{" horiz-adv-x="322" 
d="M233 -180q-84 0 -84 86v256q0 42 -18 61t-61 21l-20 1v36l20 1q42 2 60.5 20.5t18.5 61.5v255q0 86 84 86h85v-37h-81q-46 0 -46 -47v-260q0 -39 -19.5 -65t-50.5 -33q31 -7 50.5 -33t19.5 -65v-261q0 -47 46 -47h81v-37h-85z" />
    <glyph glyph-name="bar" unicode="|" horiz-adv-x="248" 
d="M103 -188v901h42v-901h-42z" />
    <glyph glyph-name="braceright" unicode="}" horiz-adv-x="322" 
d="M4 -180v37h81q46 0 46 47v260q0 39 19.5 65t50.5 33q-31 7 -50.5 33t-19.5 65v261q0 47 -46 47h-81v37h85q84 0 84 -86v-256q0 -42 18 -61t61 -21l20 -1v-36l-20 -1q-42 -2 -60.5 -20.5t-18.5 -61.5v-255q0 -86 -84 -86h-85z" />
    <glyph glyph-name="asciitilde" unicode="~" horiz-adv-x="600" 
d="M422 224q-27 0 -58.5 10.5t-76.5 35.5t-67 33t-40 8q-60 0 -92 -69l-36 15q43 93 126 93q27 0 56 -9.5t75 -33.5q42 -22 66 -33t45 -11q61 0 92 69l36 -15q-44 -93 -126 -93z" />
    <glyph glyph-name="uni00A0" unicode="&#xa0;" horiz-adv-x="250" 
 />
    <glyph glyph-name="exclamdown" unicode="&#xa1;" horiz-adv-x="211" 
d="M71 430v70h69v-70h-69zM79 -180l13 519h27l13 -519h-53z" />
    <glyph glyph-name="cent" unicode="&#xa2;" horiz-adv-x="600" 
d="M296 -115v110q-58 5 -102.5 38t-69.5 87t-25 123q0 66 24.5 119t69 86.5t103.5 40.5v115h40v-114q43 -2 85 -19.5t67 -45.5l-20 -33q-29 30 -66.5 44.5t-78.5 14.5q-82 0 -131.5 -57t-49.5 -152q0 -97 48.5 -153t131.5 -56q41 0 79 14t67 44l20 -32q-26 -29 -68 -46.5
t-84 -19.5v-108h-40z" />
    <glyph glyph-name="sterling" unicode="&#xa3;" horiz-adv-x="600" 
d="M49 0v33q53 23 84.5 54.5t31.5 79.5v169h-116v36h116v150q0 94 51.5 142.5t152.5 48.5q56 0 106.5 -21.5t87.5 -62.5l-23 -37q-60 80 -179 80q-154 0 -154 -148v-152h199v-36h-199v-150q0 -59 -23 -94t-60 -53h435v-39h-510z" />
    <glyph glyph-name="currency" unicode="&#xa4;" horiz-adv-x="600" 
d="M74 -22l-35 36l74 76q-24 32 -38 72t-14 83q0 44 13.5 84t38.5 71l-74 76l35 36l74 -76q31 27 70.5 42t82.5 15t81.5 -14.5t69.5 -40.5l71 74l36 -36l-73 -73q26 -33 40.5 -73t14.5 -85t-14.5 -85t-40.5 -72l73 -74l-36 -36l-72 74q-31 -26 -69 -40.5t-81 -14.5t-82 15
t-71 41zM300 40q54 0 97.5 27.5t69 74t25.5 103.5t-25.5 103.5t-69 74.5t-97.5 27q-53 0 -96.5 -27.5t-69.5 -74t-26 -103.5t26 -103.5t69.5 -74t96.5 -27.5z" />
    <glyph glyph-name="yen" unicode="&#xa5;" horiz-adv-x="600" 
d="M279 0v189h-203v36h203v114h-203v36h174l-245 330h50l245 -333l245 333h50l-243 -330h172v-36h-203v-114h203v-36h-203v-189h-42z" />
    <glyph glyph-name="brokenbar" unicode="&#xa6;" horiz-adv-x="248" 
d="M103 372v341h42v-341h-42zM103 -188v341h42v-341h-42z" />
    <glyph glyph-name="section" unicode="&#xa7;" horiz-adv-x="518" 
d="M232 -188q-129 0 -193 66l21 34q30 -29 77 -45t98 -16q71 0 115 35t44 99q0 45 -23.5 77.5t-84.5 60.5l-98 46q-58 28 -90.5 53.5t-45.5 54.5t-13 65q0 35 16 68.5t40 56.5q-6 11 -10 28.5t-4 42.5q0 55 26.5 93.5t72 59.5t102.5 21t106 -17t80 -49l-21 -34
q-30 29 -75 45t-93 16q-67 0 -110.5 -34.5t-43.5 -99.5q0 -45 23.5 -77t84.5 -61l98 -46q58 -27 90.5 -53t45.5 -54.5t13 -65.5q0 -35 -16 -68.5t-40 -56.5q6 -11 10 -28.5t4 -42.5q0 -54 -26.5 -93t-73 -60t-106.5 -21zM81 345q0 -41 25.5 -72t98.5 -65l83 -39
q42 -20 70 -39.5t45 -39.5q36 36 36 89q0 41 -26 72t-99 65l-83 39q-42 20 -70 39.5t-45 39.5q-35 -35 -35 -89z" />
    <glyph glyph-name="dieresis" unicode="&#xa8;" horiz-adv-x="500" 
d="M139 620zM300 620v60h61v-60h-61zM139 620v60h61v-60h-61z" />
    <glyph glyph-name="copyright" unicode="&#xa9;" horiz-adv-x="815" 
d="M408 -8q-76 0 -142 27.5t-115 76.5t-76.5 115t-27.5 142q0 77 27.5 142.5t76.5 114t114.5 76t142.5 27.5t142.5 -27.5t114 -76t76 -114t27.5 -142.5q0 -76 -27.5 -142t-76 -115t-114 -76.5t-142.5 -27.5zM408 28q68 0 127 24.5t103 69t68.5 103.5t24.5 128t-24.5 128
t-68.5 103t-103 68.5t-127 24.5q-69 0 -128 -24.5t-103 -68.5t-68.5 -103t-24.5 -128t24.5 -128t68.5 -103.5t103 -69t128 -24.5zM417 137q-94 0 -147 60.5t-53 158.5t53 155t147 57q40 0 78 -15.5t63 -41.5l-18 -32q-29 28 -61.5 39.5t-62.5 11.5q-74 0 -116 -46t-42 -129
q0 -82 42 -131t116 -49q30 0 62.5 12t61.5 40l18 -33q-25 -26 -64 -41.5t-77 -15.5z" />
    <glyph glyph-name="ordfeminine" unicode="&#xaa;" horiz-adv-x="313" 
d="M132 413q-45 0 -75 25t-30 63q0 44 41.5 64t105.5 20h61v21q0 76 -78 76q-29 0 -56 -7.5t-50 -23.5l-12 30q24 17 55 24.5t62 7.5q113 0 113 -108v-187h-34v53h-2q-17 -31 -41.5 -44.5t-59.5 -13.5zM137 444q43 0 70.5 28t27.5 77v7h-60q-112 0 -112 -55
q0 -24 17.5 -40.5t56.5 -16.5z" />
    <glyph glyph-name="guillemotleft" unicode="&#xab;" horiz-adv-x="398" 
d="M29 89zM154 89l-125 179l125 179h41l-113 -179l113 -179h-41zM314 89l-125 179l125 179h41l-113 -179l113 -179h-41z" />
    <glyph glyph-name="logicalnot" unicode="&#xac;" horiz-adv-x="600" 
d="M507 156v214h-455v39h496v-253h-41z" />
    <glyph glyph-name="uni00AD" unicode="&#xad;" horiz-adv-x="420" 
d="M76 319zM76 319v38h268v-38h-268z" />
    <glyph glyph-name="registered" unicode="&#xae;" horiz-adv-x="815" 
d="M408 -8q-76 0 -142 27.5t-115 76.5t-76.5 115t-27.5 142q0 77 27.5 142.5t76.5 114t114.5 76t142.5 27.5t142.5 -27.5t114 -76t76 -114t27.5 -142.5q0 -76 -27.5 -142t-76 -115t-114 -76.5t-142.5 -27.5zM408 28q68 0 127 24.5t103 69t68.5 103.5t24.5 128t-24.5 128
t-68.5 103t-103 68.5t-127 24.5q-69 0 -128 -24.5t-103 -68.5t-68.5 -103t-24.5 -128t24.5 -128t68.5 -103.5t103 -69t128 -24.5zM273 142v421h162q65 0 100 -31t35 -89q0 -97 -97 -115q31 -11 46 -47l57 -139h-43l-56 134q-12 28 -33.5 37.5t-52.5 9.5h-77v-181h-41z
M314 360h116q99 0 99 83t-99 83h-116v-166z" />
    <glyph glyph-name="macron" unicode="&#xaf;" horiz-adv-x="500" 
d="M110 633zM110 633v38h280v-38h-280z" />
    <glyph glyph-name="degree" unicode="&#xb0;" horiz-adv-x="364" 
d="M182 429q-40 0 -72 19t-50.5 51t-18.5 72t18.5 72t50.5 51t72 19t71.5 -18.5t50 -50.5t18.5 -73q0 -40 -18.5 -72.5t-50 -51t-71.5 -18.5zM182 469q44 0 71 28.5t27 73.5t-27 73.5t-71 28.5q-43 0 -70.5 -28.5t-27.5 -73.5t27.5 -73.5t70.5 -28.5z" />
    <glyph glyph-name="plusminus" unicode="&#xb1;" horiz-adv-x="600" 
d="M280 116v187h-228v39h228v186h40v-186h228v-39h-228v-187h-40zM52 0v39h496v-39h-496z" />
    <glyph glyph-name="uni00B2" unicode="&#xb2;" horiz-adv-x="380" 
d="M41 282zM57 282v29l155 161q32 35 46.5 63t14.5 59q0 78 -86 78q-32 0 -65 -13.5t-58 -37.5l-23 30q27 27 66 42.5t82 15.5q59 0 92.5 -30.5t33.5 -83.5q0 -67 -69 -139l-133 -137h223v-37h-279z" />
    <glyph glyph-name="uni00B3" unicode="&#xb3;" horiz-adv-x="380" 
d="M36 279zM186 279q-46 0 -85.5 15.5t-64.5 42.5l22 30q24 -24 57.5 -37.5t70.5 -13.5q41 0 69 19.5t28 62.5t-29.5 61.5t-79.5 18.5h-73v37h64q49 0 77.5 21t28.5 62q0 35 -23.5 54.5t-64.5 19.5q-32 0 -65 -13.5t-58 -38.5l-23 31q27 27 66 42.5t82 15.5q59 0 93.5 -29.5
t34.5 -78.5q0 -39 -20 -64t-50 -37q36 -10 59 -36t23 -67q0 -57 -40 -87.5t-99 -30.5z" />
    <glyph glyph-name="acute" unicode="&#xb4;" horiz-adv-x="500" 
d="M232 549zM232 549l104 200h54l-122 -200h-36z" />
    <glyph glyph-name="mu" unicode="&#xb5;" horiz-adv-x="561" 
d="M85 -216v716h42v-316q0 -79 33 -115t100 -36q77 0 124 48t47 129v290h42v-500h-41v92q-24 -49 -69 -74.5t-101 -25.5q-44 0 -79.5 12.5t-59.5 45.5l4 -266h-42z" />
    <glyph glyph-name="paragraph" unicode="&#xb6;" horiz-adv-x="570" 
d="M246 -180v515q-59 0 -102.5 24t-67 66t-23.5 95q0 54 23.5 95.5t67.5 65.5t103 24h226v-885h-42v847h-143v-847h-42z" />
    <glyph glyph-name="periodcentered" unicode="&#xb7;" horiz-adv-x="214" 
d="M72 238v70h70v-70h-70z" />
    <glyph glyph-name="cedilla" unicode="&#xb8;" horiz-adv-x="500" 
d="M177 0zM255 -190q-49 0 -78 18l9 34q19 -9 34 -12.5t39 -3.5q27 0 44.5 11t17.5 32q0 32 -39 32q-11 0 -22.5 -2t-28.5 -8l-15 13l15 96h38l-12 -69q15 3 26 3q32 0 55 -17t23 -48q0 -35 -29.5 -57t-76.5 -22z" />
    <glyph glyph-name="uni00B9" unicode="&#xb9;" horiz-adv-x="380" 
d="M100 282zM100 282v37h96v337l-89 -58v44l95 63h33v-386h86v-37h-221z" />
    <glyph glyph-name="ordmasculine" unicode="&#xba;" horiz-adv-x="328" 
d="M164 413q-59 0 -98 41t-39 109t39 109t98 41t98 -41t39 -109t-39 -109t-98 -41zM164 444q47 0 74 30.5t27 88.5t-27 88.5t-74 30.5q-46 0 -73.5 -30.5t-27.5 -88.5t27.5 -88.5t73.5 -30.5z" />
    <glyph glyph-name="guillemotright" unicode="&#xbb;" horiz-adv-x="398" 
d="M43 89zM84 89h-41l113 179l-113 179h41l125 -179zM244 89h-41l113 179l-113 179h41l125 -179z" />
    <glyph glyph-name="onequarter" unicode="&#xbc;" horiz-adv-x="880" 
d="M100 0zM100 282zM100 282v37h96v337l-89 -58v44l95 63h33v-386h86v-37h-221zM266 -8h-42l430 721h42zM749 0v94h-206v33l212 296h33v-292h69v-37h-69v-94h-39zM749 131v224l-162 -224h162z" />
    <glyph glyph-name="onehalf" unicode="&#xbd;" horiz-adv-x="920" 
d="M100 0zM100 282zM100 282v37h96v337l-89 -58v44l95 63h33v-386h86v-37h-221zM266 -8h-42l430 721h42zM597 0v29l155 161q32 35 46.5 63t14.5 59q0 78 -86 78q-32 0 -65 -13.5t-58 -37.5l-23 30q27 27 66 42.5t82 15.5q59 0 92.5 -30.5t33.5 -83.5q0 -67 -69 -139
l-133 -137h223v-37h-279z" />
    <glyph glyph-name="threequarters" unicode="&#xbe;" horiz-adv-x="880" 
d="M36 0zM36 279zM186 279q-46 0 -85.5 15.5t-64.5 42.5l22 30q24 -24 57.5 -37.5t70.5 -13.5q41 0 69 19.5t28 62.5t-29.5 61.5t-79.5 18.5h-73v37h64q49 0 77.5 21t28.5 62q0 35 -23.5 54.5t-64.5 19.5q-32 0 -65 -13.5t-58 -38.5l-23 31q27 27 66 42.5t82 15.5
q59 0 93.5 -29.5t34.5 -78.5q0 -39 -20 -64t-50 -37q36 -10 59 -36t23 -67q0 -57 -40 -87.5t-99 -30.5zM266 -8h-42l430 721h42zM749 0v94h-206v33l212 296h33v-292h69v-37h-69v-94h-39zM749 131v224l-162 -224h162z" />
    <glyph glyph-name="questiondown" unicode="&#xbf;" horiz-adv-x="433" 
d="M280 499v-70h-69v70h69zM219 -214q-82 0 -131.5 41.5t-49.5 109.5q0 32 9 60.5t29.5 59.5t55.5 71q50 57 71 99t25 88l2 22h30v-20q0 -53 -20.5 -102t-76.5 -112q-45 -51 -63 -88t-18 -78q0 -52 36.5 -81t99.5 -29q39 0 73.5 9t65.5 26v-46q-31 -14 -66 -22t-72 -8z" />
    <glyph glyph-name="Agrave" unicode="&#xc0;" horiz-adv-x="721" 
d="M34 0zM34 0l303 705h41l309 -705h-46l-85 195h-394l-83 -195h-45zM356 649l-176 -415h359l-181 415h-2zM339 765l-136 170h56l118 -170h-38z" />
    <glyph glyph-name="Aacute" unicode="&#xc1;" horiz-adv-x="721" 
d="M34 0zM34 0l303 705h41l309 -705h-46l-85 195h-394l-83 -195h-45zM356 649l-176 -415h359l-181 415h-2zM339 765l118 170h56l-136 -170h-38z" />
    <glyph glyph-name="Acircumflex" unicode="&#xc2;" horiz-adv-x="721" 
d="M34 0zM34 0l303 705h41l309 -705h-46l-85 195h-394l-83 -195h-45zM356 649l-176 -415h359l-181 415h-2zM213 765l121 170h48l121 -170h-37l-108 132l-108 -132h-37z" />
    <glyph glyph-name="Atilde" unicode="&#xc3;" horiz-adv-x="721" 
d="M34 0zM34 0l303 705h41l309 -705h-46l-85 195h-394l-83 -195h-45zM356 649l-176 -415h359l-181 415h-2zM194 792l-32 2q7 58 35 89.5t72 31.5q23 0 46 -11t56 -35q32 -22 48 -30.5t31 -8.5q30 0 47.5 22.5t24.5 64.5l32 -2q-7 -58 -34.5 -89.5t-71.5 -31.5q-22 0 -46 11
t-60 37q-28 21 -45 29t-31 8q-30 0 -47.5 -22.5t-24.5 -64.5z" />
    <glyph glyph-name="Adieresis" unicode="&#xc4;" horiz-adv-x="721" 
d="M34 0zM34 0l303 705h41l309 -705h-46l-85 195h-394l-83 -195h-45zM356 649l-176 -415h359l-181 415h-2zM408 820v60h61v-60h-61zM247 820v60h61v-60h-61z" />
    <glyph glyph-name="Aring" unicode="&#xc5;" horiz-adv-x="721" 
d="M34 0zM34 0l303 705h41l309 -705h-46l-85 195h-394l-83 -195h-45zM356 649l-176 -415h359l-181 415h-2zM358 760q-47 0 -79.5 32t-32.5 78t32.5 78t79.5 32t79.5 -32t32.5 -78t-32.5 -78t-79.5 -32zM358 792q35 0 56.5 22.5t21.5 55.5t-21.5 55.5t-56.5 22.5
q-34 0 -56 -22.5t-22 -55.5t22 -55.5t56 -22.5z" />
    <glyph glyph-name="AE" unicode="&#xc6;" horiz-adv-x="996" 
d="M14 0l423 705h502v-39h-397l28 -289h348v-39h-345l29 -299h337v-39h-376l-19 195h-362l-118 -195h-50zM461 665l-256 -431h336l-41 431h-39z" />
    <glyph glyph-name="Ccedilla" unicode="&#xc7;" horiz-adv-x="684" 
d="M68 0zM385 -8q-102 0 -172.5 43.5t-107.5 124.5t-37 193t37 192.5t107.5 124t172.5 43.5q77 0 135.5 -24.5t103.5 -71.5l-22 -35q-49 47 -99.5 68.5t-118.5 21.5q-133 0 -202 -83.5t-69 -235.5t69 -236t202 -84q68 0 118.5 21.5t99.5 68.5l22 -35q-45 -47 -104 -71.5
t-135 -24.5zM389 -190q-49 0 -78 18l9 34q19 -9 34 -12.5t39 -3.5q27 0 44.5 11t17.5 32q0 32 -39 32q-11 0 -22.5 -2t-28.5 -8l-15 13l15 96h38l-12 -69q15 3 26 3q32 0 55 -17t23 -48q0 -35 -29.5 -57t-76.5 -22z" />
    <glyph glyph-name="Egrave" unicode="&#xc8;" horiz-adv-x="582" 
d="M97 0zM97 0v705h428v-39h-386v-289h364v-39h-364v-299h386v-39h-428zM304 765l-136 170h56l118 -170h-38z" />
    <glyph glyph-name="Eacute" unicode="&#xc9;" horiz-adv-x="582" 
d="M97 0zM97 0v705h428v-39h-386v-289h364v-39h-364v-299h386v-39h-428zM304 765l118 170h56l-136 -170h-38z" />
    <glyph glyph-name="Ecircumflex" unicode="&#xca;" horiz-adv-x="582" 
d="M97 0zM97 0v705h428v-39h-386v-289h364v-39h-364v-299h386v-39h-428zM178 765l121 170h48l121 -170h-37l-108 132l-108 -132h-37z" />
    <glyph glyph-name="Edieresis" unicode="&#xcb;" horiz-adv-x="582" 
d="M97 0zM97 0v705h428v-39h-386v-289h364v-39h-364v-299h386v-39h-428zM373 820v60h61v-60h-61zM212 820v60h61v-60h-61z" />
    <glyph glyph-name="Igrave" unicode="&#xcc;" horiz-adv-x="236" 
d="M0 0zM97 0v705h42v-705h-42zM99 765l-136 170h56l118 -170h-38z" />
    <glyph glyph-name="Iacute" unicode="&#xcd;" horiz-adv-x="236" 
d="M97 0zM97 0v705h42v-705h-42zM99 765l118 170h56l-136 -170h-38z" />
    <glyph glyph-name="Icircumflex" unicode="&#xce;" horiz-adv-x="236" 
d="M0 0zM97 0v705h42v-705h-42zM-27 765l121 170h48l121 -170h-37l-108 132l-108 -132h-37z" />
    <glyph glyph-name="Idieresis" unicode="&#xcf;" horiz-adv-x="236" 
d="M7 0zM97 0v705h42v-705h-42zM168 820v60h61v-60h-61zM7 820v60h61v-60h-61z" />
    <glyph glyph-name="Eth" unicode="&#xd0;" horiz-adv-x="733" 
d="M9 0zM97 0v705h214q171 0 262.5 -89.5t91.5 -262.5t-91.5 -263t-262.5 -90h-214zM139 39h168q313 0 313 314q0 313 -313 313h-168v-627zM9 340v37h334v-37h-334z" />
    <glyph glyph-name="Ntilde" unicode="&#xd1;" horiz-adv-x="739" 
d="M97 0zM97 0v705h36l470 -635v635h39v-705h-35l-471 636v-636h-39zM206 792l-32 2q7 58 35 89.5t72 31.5q23 0 46 -11t56 -35q32 -22 48 -30.5t31 -8.5q30 0 47.5 22.5t24.5 64.5l32 -2q-7 -58 -34.5 -89.5t-71.5 -31.5q-22 0 -46 11t-60 37q-28 21 -45 29t-31 8
q-30 0 -47.5 -22.5t-24.5 -64.5z" />
    <glyph glyph-name="Ograve" unicode="&#xd2;" horiz-adv-x="759" 
d="M68 0zM379 -8q-98 0 -167.5 44t-106.5 125t-37 192q0 112 36.5 192.5t106 124t168.5 43.5q96 0 166 -43.5t108 -124t38 -191.5q0 -112 -38.5 -193t-108.5 -125t-165 -44zM379 33q125 0 196 84t71 236t-70.5 235.5t-196.5 83.5q-130 0 -198 -83.5t-68 -235.5
q0 -151 68 -235.5t198 -84.5zM360 765l-136 170h56l118 -170h-38z" />
    <glyph glyph-name="Oacute" unicode="&#xd3;" horiz-adv-x="759" 
d="M68 0zM379 -8q-98 0 -167.5 44t-106.5 125t-37 192q0 112 36.5 192.5t106 124t168.5 43.5q96 0 166 -43.5t108 -124t38 -191.5q0 -112 -38.5 -193t-108.5 -125t-165 -44zM379 33q125 0 196 84t71 236t-70.5 235.5t-196.5 83.5q-130 0 -198 -83.5t-68 -235.5
q0 -151 68 -235.5t198 -84.5zM360 765l118 170h56l-136 -170h-38z" />
    <glyph glyph-name="Ocircumflex" unicode="&#xd4;" horiz-adv-x="759" 
d="M68 0zM379 -8q-98 0 -167.5 44t-106.5 125t-37 192q0 112 36.5 192.5t106 124t168.5 43.5q96 0 166 -43.5t108 -124t38 -191.5q0 -112 -38.5 -193t-108.5 -125t-165 -44zM379 33q125 0 196 84t71 236t-70.5 235.5t-196.5 83.5q-130 0 -198 -83.5t-68 -235.5
q0 -151 68 -235.5t198 -84.5zM234 765l121 170h48l121 -170h-37l-108 132l-108 -132h-37z" />
    <glyph glyph-name="Otilde" unicode="&#xd5;" horiz-adv-x="759" 
d="M68 0zM379 -8q-98 0 -167.5 44t-106.5 125t-37 192q0 112 36.5 192.5t106 124t168.5 43.5q96 0 166 -43.5t108 -124t38 -191.5q0 -112 -38.5 -193t-108.5 -125t-165 -44zM379 33q125 0 196 84t71 236t-70.5 235.5t-196.5 83.5q-130 0 -198 -83.5t-68 -235.5
q0 -151 68 -235.5t198 -84.5zM215 792l-32 2q7 58 35 89.5t72 31.5q23 0 46 -11t56 -35q32 -22 48 -30.5t31 -8.5q30 0 47.5 22.5t24.5 64.5l32 -2q-7 -58 -34.5 -89.5t-71.5 -31.5q-22 0 -46 11t-60 37q-28 21 -45 29t-31 8q-30 0 -47.5 -22.5t-24.5 -64.5z" />
    <glyph glyph-name="Odieresis" unicode="&#xd6;" horiz-adv-x="759" 
d="M68 0zM379 -8q-98 0 -167.5 44t-106.5 125t-37 192q0 112 36.5 192.5t106 124t168.5 43.5q96 0 166 -43.5t108 -124t38 -191.5q0 -112 -38.5 -193t-108.5 -125t-165 -44zM379 33q125 0 196 84t71 236t-70.5 235.5t-196.5 83.5q-130 0 -198 -83.5t-68 -235.5
q0 -151 68 -235.5t198 -84.5zM429 820v60h61v-60h-61zM268 820v60h61v-60h-61z" />
    <glyph glyph-name="multiply" unicode="&#xd7;" horiz-adv-x="600" 
d="M93 49l-28 27l207 208l-207 208l28 27l207 -207l207 207l28 -27l-207 -208l207 -208l-28 -27l-207 207z" />
    <glyph glyph-name="Oslash" unicode="&#xd8;" horiz-adv-x="759" 
d="M68 0zM379 -8q-98 0 -167.5 44t-106.5 125t-37 192q0 112 36.5 192.5t106 124t168.5 43.5q96 0 166 -43.5t108 -124t38 -191.5q0 -112 -38.5 -193t-108.5 -125t-165 -44zM379 33q125 0 196 84t71 236t-70.5 235.5t-196.5 83.5q-130 0 -198 -83.5t-68 -235.5
q0 -151 68 -235.5t198 -84.5zM175 -35l-33 18l46 79l13 22l324 556l13 22l46 78l33 -18l-46 -79l-13 -22l-324 -556l-13 -22z" />
    <glyph glyph-name="Ugrave" unicode="&#xd9;" horiz-adv-x="722" 
d="M92 0zM361 -8q-137 0 -203 71t-66 207v435h42v-429q0 -122 54.5 -182.5t172.5 -60.5q111 0 169 60.5t58 182.5v429h42v-435q0 -136 -69 -207t-200 -71zM342 765l-136 170h56l118 -170h-38z" />
    <glyph glyph-name="Uacute" unicode="&#xda;" horiz-adv-x="722" 
d="M92 0zM361 -8q-137 0 -203 71t-66 207v435h42v-429q0 -122 54.5 -182.5t172.5 -60.5q111 0 169 60.5t58 182.5v429h42v-435q0 -136 -69 -207t-200 -71zM342 765l118 170h56l-136 -170h-38z" />
    <glyph glyph-name="Ucircumflex" unicode="&#xdb;" horiz-adv-x="722" 
d="M92 0zM361 -8q-137 0 -203 71t-66 207v435h42v-429q0 -122 54.5 -182.5t172.5 -60.5q111 0 169 60.5t58 182.5v429h42v-435q0 -136 -69 -207t-200 -71zM216 765l121 170h48l121 -170h-37l-108 132l-108 -132h-37z" />
    <glyph glyph-name="Udieresis" unicode="&#xdc;" horiz-adv-x="722" 
d="M92 0zM361 -8q-137 0 -203 71t-66 207v435h42v-429q0 -122 54.5 -182.5t172.5 -60.5q111 0 169 60.5t58 182.5v429h42v-435q0 -136 -69 -207t-200 -71zM411 820v60h61v-60h-61zM250 820v60h61v-60h-61z" />
    <glyph glyph-name="Yacute" unicode="&#xdd;" horiz-adv-x="587" 
d="M1 0zM272 0v304l-271 401h49l245 -367l244 367h47l-272 -402v-303h-42zM275 765l118 170h56l-136 -170h-38z" />
    <glyph glyph-name="Thorn" unicode="&#xde;" horiz-adv-x="638" 
d="M97 0v705h42v-146h221q107 0 166 -51t59 -143q0 -91 -59 -142.5t-166 -51.5h-221v-171h-42zM139 210h220q89 0 135 40.5t46 114.5t-46 114.5t-135 40.5h-220v-310z" />
    <glyph glyph-name="germandbls" unicode="&#xdf;" horiz-adv-x="599" 
d="M88 0v510q0 111 52.5 170.5t159.5 59.5q84 0 130.5 -42t46.5 -115q0 -67 -36.5 -120t-129.5 -93q93 -26 148 -59t79 -73t24 -86q0 -74 -49.5 -117t-133.5 -43q-111 0 -176 65l20 34q38 -32 76 -46t83 -14q64 0 100 31t36 89q0 40 -22 73.5t-78.5 63.5t-160.5 58v38
q70 28 109 58.5t55 66t16 76.5q0 53 -35 84.5t-101 31.5q-90 0 -130.5 -47.5t-40.5 -141.5v-512h-42z" />
    <glyph glyph-name="agrave" unicode="&#xe0;" horiz-adv-x="539" 
d="M247 -7q-74 0 -123 42.5t-49 105.5q0 54 29.5 85.5t97 44.5t206.5 13v43q0 70 -28 105t-92 35q-91 0 -173 -55l-21 37q35 25 83 42t105 17q171 0 171 -183v-325h-45v91q-27 -52 -69.5 -75t-91.5 -23zM247 36q54 0 89.5 24.5t53.5 63t18 82.5v38q-86 0 -141.5 -4.5
t-86.5 -15.5t-43.5 -30.5t-12.5 -49.5q0 -36 17 -60t45 -36t61 -12zM256 549l-122 200h54l104 -200h-36z" />
    <glyph glyph-name="aacute" unicode="&#xe1;" horiz-adv-x="539" 
d="M247 -7q-74 0 -123 42.5t-49 105.5q0 54 29.5 85.5t97 44.5t206.5 13v43q0 70 -28 105t-92 35q-91 0 -173 -55l-21 37q35 25 83 42t105 17q171 0 171 -183v-325h-45v91q-27 -52 -69.5 -75t-91.5 -23zM247 36q54 0 89.5 24.5t53.5 63t18 82.5v38q-86 0 -141.5 -4.5
t-86.5 -15.5t-43.5 -30.5t-12.5 -49.5q0 -36 17 -60t45 -36t61 -12zM256 549l104 200h54l-122 -200h-36z" />
    <glyph glyph-name="acircumflex" unicode="&#xe2;" horiz-adv-x="539" 
d="M247 -7q-74 0 -123 42.5t-49 105.5q0 54 29.5 85.5t97 44.5t206.5 13v43q0 70 -28 105t-92 35q-91 0 -173 -55l-21 37q35 25 83 42t105 17q171 0 171 -183v-325h-45v91q-27 -52 -69.5 -75t-91.5 -23zM247 36q54 0 89.5 24.5t53.5 63t18 82.5v38q-86 0 -141.5 -4.5
t-86.5 -15.5t-43.5 -30.5t-12.5 -49.5q0 -36 17 -60t45 -36t61 -12zM141 549l109 200h48l109 -200h-35l-98 161l-98 -161h-35z" />
    <glyph glyph-name="atilde" unicode="&#xe3;" horiz-adv-x="539" 
d="M247 -7q-74 0 -123 42.5t-49 105.5q0 54 29.5 85.5t97 44.5t206.5 13v43q0 70 -28 105t-92 35q-91 0 -173 -55l-21 37q35 25 83 42t105 17q171 0 171 -183v-325h-45v91q-27 -52 -69.5 -75t-91.5 -23zM247 36q54 0 89.5 24.5t53.5 63t18 82.5v38q-86 0 -141.5 -4.5
t-86.5 -15.5t-43.5 -30.5t-12.5 -49.5q0 -36 17 -60t45 -36t61 -12zM138 595l-32 2q6 58 31 89.5t65 31.5q21 0 39.5 -11.5t42.5 -35.5q22 -22 35.5 -30t26.5 -8q52 0 64 87l32 -2q-6 -58 -31 -89.5t-64 -31.5q-20 0 -38.5 11.5t-44.5 35.5q-22 21 -35 29.5t-27 8.5
q-52 0 -64 -87z" />
    <glyph glyph-name="adieresis" unicode="&#xe4;" horiz-adv-x="539" 
d="M247 -7q-74 0 -123 42.5t-49 105.5q0 54 29.5 85.5t97 44.5t206.5 13v43q0 70 -28 105t-92 35q-91 0 -173 -55l-21 37q35 25 83 42t105 17q171 0 171 -183v-325h-45v91q-27 -52 -69.5 -75t-91.5 -23zM247 36q54 0 89.5 24.5t53.5 63t18 82.5v38q-86 0 -141.5 -4.5
t-86.5 -15.5t-43.5 -30.5t-12.5 -49.5q0 -36 17 -60t45 -36t61 -12zM324 620v60h61v-60h-61zM163 620v60h61v-60h-61z" />
    <glyph glyph-name="aring" unicode="&#xe5;" horiz-adv-x="539" 
d="M247 -7q-74 0 -123 42.5t-49 105.5q0 54 29.5 85.5t97 44.5t206.5 13v43q0 70 -28 105t-92 35q-91 0 -173 -55l-21 37q35 25 83 42t105 17q171 0 171 -183v-325h-45v91q-27 -52 -69.5 -75t-91.5 -23zM247 36q54 0 89.5 24.5t53.5 63t18 82.5v38q-86 0 -141.5 -4.5
t-86.5 -15.5t-43.5 -30.5t-12.5 -49.5q0 -36 17 -60t45 -36t61 -12zM274 547q-47 0 -79.5 32t-32.5 78t32.5 78t79.5 32t79.5 -32t32.5 -78t-32.5 -78t-79.5 -32zM274 579q35 0 56.5 22.5t21.5 55.5t-21.5 55.5t-56.5 22.5q-34 0 -56 -22.5t-22 -55.5t22 -55.5t56 -22.5z
" />
    <glyph glyph-name="ae" unicode="&#xe6;" horiz-adv-x="890" 
d="M247 -8q-50 0 -89.5 19.5t-62.5 53t-23 76.5q0 59 27 92t92 46.5t178 13.5h44v35q0 75 -31.5 108t-96.5 33q-48 0 -89 -13t-83 -43l-20 36q38 28 88 43.5t102 15.5q71 0 111 -28.5t54 -83.5q58 112 191 112q93 0 146.5 -61.5t53.5 -167.5v-24h-383q1 -104 50.5 -164
t139.5 -60q45 0 85.5 16t78.5 50l21 -33q-31 -34 -81.5 -53t-102.5 -19q-161 0 -213 136q-21 -64 -70 -100t-117 -36zM636 470q-77 0 -124.5 -45.5t-54.5 -131.5h343q-3 82 -45 129.5t-119 47.5zM250 30q48 0 84.5 22.5t57.5 63t21 93.5v47h-42q-100 0 -155 -9.5
t-76.5 -33.5t-21.5 -69q0 -51 35.5 -82.5t96.5 -31.5z" />
    <glyph glyph-name="ccedilla" unicode="&#xe7;" horiz-adv-x="487" 
d="M54 0zM281 -8q-105 0 -166 70.5t-61 191.5q0 122 62 188t165 66q47 0 90.5 -18.5t72.5 -51.5l-21 -32q-32 33 -69 48t-74 15q-86 0 -134.5 -55.5t-48.5 -160.5q0 -106 48.5 -164t134.5 -58q35 0 72.5 14.5t70.5 48.5l21 -32q-30 -34 -74.5 -52t-88.5 -18zM286 -190
q-49 0 -78 18l9 34q19 -9 34 -12.5t39 -3.5q27 0 44.5 11t17.5 32q0 32 -39 32q-11 0 -22.5 -2t-28.5 -8l-15 13l15 96h38l-12 -69q15 3 26 3q32 0 55 -17t23 -48q0 -35 -29.5 -57t-76.5 -22z" />
    <glyph glyph-name="egrave" unicode="&#xe8;" horiz-adv-x="541" 
d="M54 0zM294 -8q-110 0 -175 67.5t-65 188.5q0 80 29 138t81.5 90t120.5 32q97 0 151 -61t54 -168v-27h-393v-4q0 -106 52 -161.5t145 -55.5q47 0 88 15t79 51l21 -33q-31 -34 -82 -53t-106 -19zM284 470q-80 0 -128 -49.5t-57 -130.5h352q-3 84 -45.5 132t-121.5 48z
M267 549l-122 200h54l104 -200h-36z" />
    <glyph glyph-name="eacute" unicode="&#xe9;" horiz-adv-x="541" 
d="M54 0zM294 -8q-110 0 -175 67.5t-65 188.5q0 80 29 138t81.5 90t120.5 32q97 0 151 -61t54 -168v-27h-393v-4q0 -106 52 -161.5t145 -55.5q47 0 88 15t79 51l21 -33q-31 -34 -82 -53t-106 -19zM284 470q-80 0 -128 -49.5t-57 -130.5h352q-3 84 -45.5 132t-121.5 48z
M267 549l104 200h54l-122 -200h-36z" />
    <glyph glyph-name="ecircumflex" unicode="&#xea;" horiz-adv-x="541" 
d="M54 0zM294 -8q-110 0 -175 67.5t-65 188.5q0 80 29 138t81.5 90t120.5 32q97 0 151 -61t54 -168v-27h-393v-4q0 -106 52 -161.5t145 -55.5q47 0 88 15t79 51l21 -33q-31 -34 -82 -53t-106 -19zM284 470q-80 0 -128 -49.5t-57 -130.5h352q-3 84 -45.5 132t-121.5 48z
M152 549l109 200h48l109 -200h-35l-98 161l-98 -161h-35z" />
    <glyph glyph-name="edieresis" unicode="&#xeb;" horiz-adv-x="541" 
d="M54 0zM294 -8q-110 0 -175 67.5t-65 188.5q0 80 29 138t81.5 90t120.5 32q97 0 151 -61t54 -168v-27h-393v-4q0 -106 52 -161.5t145 -55.5q47 0 88 15t79 51l21 -33q-31 -34 -82 -53t-106 -19zM284 470q-80 0 -128 -49.5t-57 -130.5h352q-3 84 -45.5 132t-121.5 48z
M335 620v60h61v-60h-61zM174 620v60h61v-60h-61z" />
    <glyph glyph-name="igrave" unicode="&#xec;" horiz-adv-x="218" 
d="M0 0zM88 0v500h42v-500h-42zM91 549l-122 200h54l104 -200h-36z" />
    <glyph glyph-name="iacute" unicode="&#xed;" horiz-adv-x="218" 
d="M88 0zM88 0v500h42v-500h-42zM91 549l104 200h54l-122 -200h-36z" />
    <glyph glyph-name="icircumflex" unicode="&#xee;" horiz-adv-x="218" 
d="M0 0zM88 0v500h42v-500h-42zM-24 549l109 200h48l109 -200h-35l-98 161l-98 -161h-35z" />
    <glyph glyph-name="idieresis" unicode="&#xef;" horiz-adv-x="218" 
d="M0 0zM88 0v500h42v-500h-42zM159 620v60h61v-60h-61zM-2 620v60h61v-60h-61z" />
    <glyph glyph-name="eth" unicode="&#xf0;" horiz-adv-x="556" 
d="M277 -8q-67 0 -117.5 29t-78 82t-27.5 124q0 72 28 125t79 82t119 29q125 0 176 -103q-9 76 -43 143t-92 117l-185 -75l-13 33l165 67q-59 41 -135 63l12 33q48 -14 88.5 -34t74.5 -45l107 43l13 -33l-88 -36q72 -65 107 -156.5t35 -203.5q0 -139 -57.5 -211.5
t-167.5 -72.5zM276 31q83 0 132 52.5t49 143.5q0 92 -48.5 144t-131.5 52t-131.5 -52t-48.5 -144q0 -93 47.5 -144.5t131.5 -51.5z" />
    <glyph glyph-name="ntilde" unicode="&#xf1;" horiz-adv-x="570" 
d="M80 0zM88 0v392q0 26 -2.5 53t-5.5 55h41l7 -95q25 51 71 77t106 26q89 0 134.5 -46t45.5 -144v-318h-42v314q0 81 -33 118t-104 37q-81 0 -128.5 -49t-47.5 -132v-288h-42zM148 595l-32 2q6 58 31 89.5t65 31.5q21 0 39.5 -11.5t42.5 -35.5q22 -22 35.5 -30t26.5 -8
q52 0 64 87l32 -2q-6 -58 -31 -89.5t-64 -31.5q-20 0 -38.5 11.5t-44.5 35.5q-22 21 -35 29.5t-27 8.5q-52 0 -64 -87z" />
    <glyph glyph-name="ograve" unicode="&#xf2;" horiz-adv-x="553" 
d="M54 0zM276 -8q-102 0 -162 69t-60 189t60 189t162 69t162.5 -69t60.5 -189t-60.5 -189t-162.5 -69zM276 31q82 0 131 56.5t49 162.5t-49 162.5t-131 56.5t-130.5 -56.5t-48.5 -162.5t48.5 -162.5t130.5 -56.5zM259 549l-122 200h54l104 -200h-36z" />
    <glyph glyph-name="oacute" unicode="&#xf3;" horiz-adv-x="553" 
d="M54 0zM276 -8q-102 0 -162 69t-60 189t60 189t162 69t162.5 -69t60.5 -189t-60.5 -189t-162.5 -69zM276 31q82 0 131 56.5t49 162.5t-49 162.5t-131 56.5t-130.5 -56.5t-48.5 -162.5t48.5 -162.5t130.5 -56.5zM259 549l104 200h54l-122 -200h-36z" />
    <glyph glyph-name="ocircumflex" unicode="&#xf4;" horiz-adv-x="553" 
d="M54 0zM276 -8q-102 0 -162 69t-60 189t60 189t162 69t162.5 -69t60.5 -189t-60.5 -189t-162.5 -69zM276 31q82 0 131 56.5t49 162.5t-49 162.5t-131 56.5t-130.5 -56.5t-48.5 -162.5t48.5 -162.5t130.5 -56.5zM144 549l109 200h48l109 -200h-35l-98 161l-98 -161h-35z
" />
    <glyph glyph-name="otilde" unicode="&#xf5;" horiz-adv-x="553" 
d="M54 0zM276 -8q-102 0 -162 69t-60 189t60 189t162 69t162.5 -69t60.5 -189t-60.5 -189t-162.5 -69zM276 31q82 0 131 56.5t49 162.5t-49 162.5t-131 56.5t-130.5 -56.5t-48.5 -162.5t48.5 -162.5t130.5 -56.5zM141 595l-32 2q6 58 31 89.5t65 31.5q21 0 39.5 -11.5
t42.5 -35.5q22 -22 35.5 -30t26.5 -8q52 0 64 87l32 -2q-6 -58 -31 -89.5t-64 -31.5q-20 0 -38.5 11.5t-44.5 35.5q-22 21 -35 29.5t-27 8.5q-52 0 -64 -87z" />
    <glyph glyph-name="odieresis" unicode="&#xf6;" horiz-adv-x="553" 
d="M54 0zM276 -8q-102 0 -162 69t-60 189t60 189t162 69t162.5 -69t60.5 -189t-60.5 -189t-162.5 -69zM276 31q82 0 131 56.5t49 162.5t-49 162.5t-131 56.5t-130.5 -56.5t-48.5 -162.5t48.5 -162.5t130.5 -56.5zM327 620v60h61v-60h-61zM166 620v60h61v-60h-61z" />
    <glyph glyph-name="divide" unicode="&#xf7;" horiz-adv-x="600" 
d="M260 452v70h70v-70h-70zM52 267v39h496v-39h-496zM260 51v70h70v-70h-70z" />
    <glyph glyph-name="oslash" unicode="&#xf8;" horiz-adv-x="553" 
d="M135 -31l-30 19l30 52q-39 33 -60 86.5t-21 123.5q0 120 60 189t162 69q64 0 113 -28l30 51l30 -19l-31 -53q39 -33 60 -86t21 -123q0 -120 -60.5 -189t-162.5 -69q-63 0 -112 28zM97 250q0 -59 15.5 -102.5t43.5 -71.5l213 369q-40 24 -93 24q-82 0 -130.5 -56.5
t-48.5 -162.5zM276 31q82 0 131 56.5t49 162.5q0 58 -15.5 101.5t-43.5 71.5l-213 -369q39 -23 92 -23z" />
    <glyph glyph-name="ugrave" unicode="&#xf9;" horiz-adv-x="561" 
d="M85 0zM262 -8q-177 0 -177 191v317h42v-313q0 -81 33 -118.5t102 -37.5q77 0 123 49.5t46 131.5v288h42v-500h-41v93q-24 -49 -68.5 -75t-101.5 -26zM263 550l-122 200h54l104 -200h-36z" />
    <glyph glyph-name="uacute" unicode="&#xfa;" horiz-adv-x="561" 
d="M85 0zM262 -8q-177 0 -177 191v317h42v-313q0 -81 33 -118.5t102 -37.5q77 0 123 49.5t46 131.5v288h42v-500h-41v93q-24 -49 -68.5 -75t-101.5 -26zM263 550l104 200h54l-122 -200h-36z" />
    <glyph glyph-name="ucircumflex" unicode="&#xfb;" horiz-adv-x="561" 
d="M85 0zM262 -8q-177 0 -177 191v317h42v-313q0 -81 33 -118.5t102 -37.5q77 0 123 49.5t46 131.5v288h42v-500h-41v93q-24 -49 -68.5 -75t-101.5 -26zM148 550l109 200h48l109 -200h-35l-98 161l-98 -161h-35z" />
    <glyph glyph-name="udieresis" unicode="&#xfc;" horiz-adv-x="561" 
d="M85 0zM262 -8q-177 0 -177 191v317h42v-313q0 -81 33 -118.5t102 -37.5q77 0 123 49.5t46 131.5v288h42v-500h-41v93q-24 -49 -68.5 -75t-101.5 -26zM331 621v60h61v-60h-61zM170 621v60h61v-60h-61z" />
    <glyph glyph-name="yacute" unicode="&#xfd;" horiz-adv-x="520" 
d="M24 0zM60 -227l-10 39q47 11 77.5 27.5t51.5 42.5t38 65l21 48l-214 505h48l189 -456l187 456h48l-233 -554q-24 -57 -53 -91.5t-66 -53t-84 -28.5zM241 549l104 200h54l-122 -200h-36z" />
    <glyph glyph-name="thorn" unicode="&#xfe;" horiz-adv-x="583" 
d="M88 -216v952h42v-335q22 51 68.5 79t109.5 28q101 0 161 -68.5t60 -189.5t-59.5 -189.5t-161.5 -68.5q-63 0 -109.5 28t-68.5 79v-315h-42zM308 31q82 0 130 56.5t48 162.5t-48 162.5t-130 56.5t-130.5 -56.5t-48.5 -162.5t48.5 -162.5t130.5 -56.5z" />
    <glyph glyph-name="ydieresis" unicode="&#xff;" horiz-adv-x="520" 
d="M24 0zM60 -227l-10 39q47 11 77.5 27.5t51.5 42.5t38 65l21 48l-214 505h48l189 -456l187 456h48l-233 -554q-24 -57 -53 -91.5t-66 -53t-84 -28.5zM309 620v60h61v-60h-61zM148 620v60h61v-60h-61z" />
    <glyph glyph-name="Amacron" unicode="&#x100;" horiz-adv-x="721" 
d="M34 0zM34 0l303 705h41l309 -705h-46l-85 195h-394l-83 -195h-45zM356 649l-176 -415h359l-181 415h-2zM203 822v38h310v-38h-310z" />
    <glyph glyph-name="amacron" unicode="&#x101;" horiz-adv-x="539" 
d="M247 -7q-74 0 -123 42.5t-49 105.5q0 54 29.5 85.5t97 44.5t206.5 13v43q0 70 -28 105t-92 35q-91 0 -173 -55l-21 37q35 25 83 42t105 17q171 0 171 -183v-325h-45v91q-27 -52 -69.5 -75t-91.5 -23zM247 36q54 0 89.5 24.5t53.5 63t18 82.5v38q-86 0 -141.5 -4.5
t-86.5 -15.5t-43.5 -30.5t-12.5 -49.5q0 -36 17 -60t45 -36t61 -12zM134 633v38h280v-38h-280z" />
    <glyph glyph-name="Abreve" unicode="&#x102;" horiz-adv-x="721" 
d="M34 0zM34 0l303 705h41l309 -705h-46l-85 195h-394l-83 -195h-45zM356 649l-176 -415h359l-181 415h-2zM358 760q-64 0 -107 44.5t-50 122.5l33 4q5 -64 38 -99.5t86 -35.5t86.5 35.5t37.5 99.5l33 -4q-7 -78 -50 -122.5t-107 -44.5z" />
    <glyph glyph-name="abreve" unicode="&#x103;" horiz-adv-x="539" 
d="M247 -7q-74 0 -123 42.5t-49 105.5q0 54 29.5 85.5t97 44.5t206.5 13v43q0 70 -28 105t-92 35q-91 0 -173 -55l-21 37q35 25 83 42t105 17q171 0 171 -183v-325h-45v91q-27 -52 -69.5 -75t-91.5 -23zM247 36q54 0 89.5 24.5t53.5 63t18 82.5v38q-86 0 -141.5 -4.5
t-86.5 -15.5t-43.5 -30.5t-12.5 -49.5q0 -36 17 -60t45 -36t61 -12zM274 547q-62 0 -100.5 49.5t-43.5 137.5l33 4q4 -74 33 -114.5t78 -40.5q50 0 78.5 40.5t32.5 114.5l33 -4q-5 -88 -43.5 -137.5t-100.5 -49.5z" />
    <glyph glyph-name="Aogonek" unicode="&#x104;" horiz-adv-x="721" 
d="M34 0zM34 0l303 705h41l309 -705h-46l-85 195h-394l-83 -195h-45zM356 649l-176 -415h359l-181 415h-2zM670 -190q-41 0 -67.5 25t-26.5 67q0 38 23.5 72.5t66.5 56.5l21 -31q-15 -6 -31.5 -19t-28.5 -32t-12 -43q0 -31 17.5 -45.5t42.5 -14.5q26 0 53 13l13 -32
q-24 -17 -71 -17z" />
    <glyph glyph-name="aogonek" unicode="&#x105;" horiz-adv-x="539" 
d="M247 -7q-74 0 -123 42.5t-49 105.5q0 54 29.5 85.5t97 44.5t206.5 13v43q0 70 -28 105t-92 35q-91 0 -173 -55l-21 37q35 25 83 42t105 17q171 0 171 -183v-325h-45v91q-27 -52 -69.5 -75t-91.5 -23zM247 36q54 0 89.5 24.5t53.5 63t18 82.5v38q-86 0 -141.5 -4.5
t-86.5 -15.5t-43.5 -30.5t-12.5 -49.5q0 -36 17 -60t45 -36t61 -12zM467 -190q-41 0 -67.5 25t-26.5 67q0 38 23.5 72.5t66.5 56.5l21 -31q-15 -6 -31.5 -19t-28.5 -32t-12 -43q0 -31 17.5 -45.5t42.5 -14.5q26 0 53 13l13 -32q-24 -17 -71 -17z" />
    <glyph glyph-name="Cacute" unicode="&#x106;" horiz-adv-x="684" 
d="M68 0zM385 -8q-102 0 -172.5 43.5t-107.5 124.5t-37 193t37 192.5t107.5 124t172.5 43.5q77 0 135.5 -24.5t103.5 -71.5l-22 -35q-49 47 -99.5 68.5t-118.5 21.5q-133 0 -202 -83.5t-69 -235.5t69 -236t202 -84q68 0 118.5 21.5t99.5 68.5l22 -35q-45 -47 -104 -71.5
t-135 -24.5zM367 765l118 170h56l-136 -170h-38z" />
    <glyph glyph-name="cacute" unicode="&#x107;" horiz-adv-x="487" 
d="M54 0zM281 -8q-105 0 -166 70.5t-61 191.5q0 122 62 188t165 66q47 0 90.5 -18.5t72.5 -51.5l-21 -32q-32 33 -69 48t-74 15q-86 0 -134.5 -55.5t-48.5 -160.5q0 -106 48.5 -164t134.5 -58q35 0 72.5 14.5t70.5 48.5l21 -32q-30 -34 -74.5 -52t-88.5 -18zM263 549
l104 200h54l-122 -200h-36z" />
    <glyph glyph-name="Ccircumflex" unicode="&#x108;" horiz-adv-x="684" 
d="M68 0zM385 -8q-102 0 -172.5 43.5t-107.5 124.5t-37 193t37 192.5t107.5 124t172.5 43.5q77 0 135.5 -24.5t103.5 -71.5l-22 -35q-49 47 -99.5 68.5t-118.5 21.5q-133 0 -202 -83.5t-69 -235.5t69 -236t202 -84q68 0 118.5 21.5t99.5 68.5l22 -35q-45 -47 -104 -71.5
t-135 -24.5zM241 765l121 170h48l121 -170h-37l-108 132l-108 -132h-37z" />
    <glyph glyph-name="ccircumflex" unicode="&#x109;" horiz-adv-x="487" 
d="M54 0zM281 -8q-105 0 -166 70.5t-61 191.5q0 122 62 188t165 66q47 0 90.5 -18.5t72.5 -51.5l-21 -32q-32 33 -69 48t-74 15q-86 0 -134.5 -55.5t-48.5 -160.5q0 -106 48.5 -164t134.5 -58q35 0 72.5 14.5t70.5 48.5l21 -32q-30 -34 -74.5 -52t-88.5 -18zM148 549
l109 200h48l109 -200h-35l-98 161l-98 -161h-35z" />
    <glyph glyph-name="Cdotaccent" unicode="&#x10a;" horiz-adv-x="684" 
d="M68 0zM385 -8q-102 0 -172.5 43.5t-107.5 124.5t-37 193t37 192.5t107.5 124t172.5 43.5q77 0 135.5 -24.5t103.5 -71.5l-22 -35q-49 47 -99.5 68.5t-118.5 21.5q-133 0 -202 -83.5t-69 -235.5t69 -236t202 -84q68 0 118.5 21.5t99.5 68.5l22 -35q-45 -47 -104 -71.5
t-135 -24.5zM355 818v63h62v-63h-62z" />
    <glyph glyph-name="cdotaccent" unicode="&#x10b;" horiz-adv-x="487" 
d="M54 0zM281 -8q-105 0 -166 70.5t-61 191.5q0 122 62 188t165 66q47 0 90.5 -18.5t72.5 -51.5l-21 -32q-32 33 -69 48t-74 15q-86 0 -134.5 -55.5t-48.5 -160.5q0 -106 48.5 -164t134.5 -58q35 0 72.5 14.5t70.5 48.5l21 -32q-30 -34 -74.5 -52t-88.5 -18zM249 619v63h64
v-63h-64z" />
    <glyph glyph-name="Ccaron" unicode="&#x10c;" horiz-adv-x="684" 
d="M68 0zM385 -8q-102 0 -172.5 43.5t-107.5 124.5t-37 193t37 192.5t107.5 124t172.5 43.5q77 0 135.5 -24.5t103.5 -71.5l-22 -35q-49 47 -99.5 68.5t-118.5 21.5q-133 0 -202 -83.5t-69 -235.5t69 -236t202 -84q68 0 118.5 21.5t99.5 68.5l22 -35q-45 -47 -104 -71.5
t-135 -24.5zM362 765l-121 170h37l108 -132l108 132h37l-121 -170h-48z" />
    <glyph glyph-name="ccaron" unicode="&#x10d;" horiz-adv-x="487" 
d="M54 0zM281 -8q-105 0 -166 70.5t-61 191.5q0 122 62 188t165 66q47 0 90.5 -18.5t72.5 -51.5l-21 -32q-32 33 -69 48t-74 15q-86 0 -134.5 -55.5t-48.5 -160.5q0 -106 48.5 -164t134.5 -58q35 0 72.5 14.5t70.5 48.5l21 -32q-30 -34 -74.5 -52t-88.5 -18zM257 549
l-109 200h35l98 -161l98 161h35l-109 -200h-48z" />
    <glyph glyph-name="Dcaron" unicode="&#x10e;" horiz-adv-x="733" 
d="M97 0zM97 0v705h214q171 0 262.5 -89.5t91.5 -262.5t-91.5 -263t-262.5 -90h-214zM139 39h168q313 0 313 314q0 313 -313 313h-168v-627zM348 765l-121 170h37l108 -132l108 132h37l-121 -170h-48z" />
    <glyph glyph-name="dcaron" unicode="&#x10f;" horiz-adv-x="583" 
d="M54 0zM274 -8q-101 0 -160.5 68.5t-59.5 189.5t59.5 189.5t160.5 68.5q62 0 109 -28.5t70 -79.5v336h42v-736h-42v100q-23 -51 -70 -79.5t-109 -28.5zM275 31q81 0 130 56.5t49 162.5t-49 162.5t-130 56.5q-82 0 -130 -56.5t-48 -162.5t48 -162.5t130 -56.5zM550 548v188
h49l-22 -188h-27z" />
    <glyph glyph-name="Dcroat" unicode="&#x110;" horiz-adv-x="733" 
d="M9 0zM9 0zM97 0v705h214q171 0 262.5 -89.5t91.5 -262.5t-91.5 -263t-262.5 -90h-214zM139 39h168q313 0 313 314q0 313 -313 313h-168v-627zM9 340v37h334v-37h-334z" />
    <glyph glyph-name="dcroat" unicode="&#x111;" horiz-adv-x="583" 
d="M275 -8q-101 0 -161 68.5t-60 189.5t60 189.5t161 68.5q62 0 108.5 -28.5t69.5 -79.5v194h-196v37h196v105h42v-105h98v-37h-98v-594h-42v100q-23 -51 -69.5 -79.5t-108.5 -28.5zM276 31q80 0 129 56.5t49 162.5t-49 162.5t-129 56.5q-82 0 -130.5 -56.5t-48.5 -162.5
t48.5 -162.5t130.5 -56.5z" />
    <glyph glyph-name="Emacron" unicode="&#x112;" horiz-adv-x="582" 
d="M97 0zM97 0v705h428v-39h-386v-289h364v-39h-364v-299h386v-39h-428zM168 822v38h310v-38h-310z" />
    <glyph glyph-name="emacron" unicode="&#x113;" horiz-adv-x="541" 
d="M54 0zM294 -8q-110 0 -175 67.5t-65 188.5q0 80 29 138t81.5 90t120.5 32q97 0 151 -61t54 -168v-27h-393v-4q0 -106 52 -161.5t145 -55.5q47 0 88 15t79 51l21 -33q-31 -34 -82 -53t-106 -19zM284 470q-80 0 -128 -49.5t-57 -130.5h352q-3 84 -45.5 132t-121.5 48z
M145 633v38h280v-38h-280z" />
    <glyph glyph-name="Ebreve" unicode="&#x114;" horiz-adv-x="582" 
d="M97 0zM97 0v705h428v-39h-386v-289h364v-39h-364v-299h386v-39h-428zM323 760q-64 0 -107 44.5t-50 122.5l33 4q5 -64 38 -99.5t86 -35.5t86.5 35.5t37.5 99.5l33 -4q-7 -78 -50 -122.5t-107 -44.5z" />
    <glyph glyph-name="ebreve" unicode="&#x115;" horiz-adv-x="541" 
d="M54 0zM294 -8q-110 0 -175 67.5t-65 188.5q0 80 29 138t81.5 90t120.5 32q97 0 151 -61t54 -168v-27h-393v-4q0 -106 52 -161.5t145 -55.5q47 0 88 15t79 51l21 -33q-31 -34 -82 -53t-106 -19zM284 470q-80 0 -128 -49.5t-57 -130.5h352q-3 84 -45.5 132t-121.5 48z
M285 547q-62 0 -100.5 49.5t-43.5 137.5l33 4q4 -74 33 -114.5t78 -40.5q50 0 78.5 40.5t32.5 114.5l33 -4q-5 -88 -43.5 -137.5t-100.5 -49.5z" />
    <glyph glyph-name="Edotaccent" unicode="&#x116;" horiz-adv-x="582" 
d="M97 0zM97 0v705h428v-39h-386v-289h364v-39h-364v-299h386v-39h-428zM292 818v63h62v-63h-62z" />
    <glyph glyph-name="edotaccent" unicode="&#x117;" horiz-adv-x="541" 
d="M54 0zM294 -8q-110 0 -175 67.5t-65 188.5q0 80 29 138t81.5 90t120.5 32q97 0 151 -61t54 -168v-27h-393v-4q0 -106 52 -161.5t145 -55.5q47 0 88 15t79 51l21 -33q-31 -34 -82 -53t-106 -19zM284 470q-80 0 -128 -49.5t-57 -130.5h352q-3 84 -45.5 132t-121.5 48z
M253 619v63h64v-63h-64z" />
    <glyph glyph-name="Eogonek" unicode="&#x118;" horiz-adv-x="582" 
d="M97 0zM97 0v705h428v-39h-386v-289h364v-39h-364v-299h386v-39h-428zM482 -190q-41 0 -67.5 25t-26.5 67q0 38 23.5 72.5t66.5 56.5l21 -31q-15 -6 -31.5 -19t-28.5 -32t-12 -43q0 -31 17.5 -45.5t42.5 -14.5q26 0 53 13l13 -32q-24 -17 -71 -17z" />
    <glyph glyph-name="eogonek" unicode="&#x119;" horiz-adv-x="541" 
d="M54 0zM294 -8q-110 0 -175 67.5t-65 188.5q0 80 29 138t81.5 90t120.5 32q97 0 151 -61t54 -168v-27h-393v-4q0 -106 52 -161.5t145 -55.5q47 0 88 15t79 51l21 -33q-31 -34 -82 -53t-106 -19zM284 470q-80 0 -128 -49.5t-57 -130.5h352q-3 84 -45.5 132t-121.5 48z
M337 -190q-41 0 -67.5 25t-26.5 67q0 38 23.5 72.5t66.5 56.5l21 -31q-15 -6 -31.5 -19t-28.5 -32t-12 -43q0 -31 17.5 -45.5t42.5 -14.5q26 0 53 13l13 -32q-24 -17 -71 -17z" />
    <glyph glyph-name="Ecaron" unicode="&#x11a;" horiz-adv-x="582" 
d="M97 0zM97 0v705h428v-39h-386v-289h364v-39h-364v-299h386v-39h-428zM299 765l-121 170h37l108 -132l108 132h37l-121 -170h-48z" />
    <glyph glyph-name="ecaron" unicode="&#x11b;" horiz-adv-x="541" 
d="M54 0zM294 -8q-110 0 -175 67.5t-65 188.5q0 80 29 138t81.5 90t120.5 32q97 0 151 -61t54 -168v-27h-393v-4q0 -106 52 -161.5t145 -55.5q47 0 88 15t79 51l21 -33q-31 -34 -82 -53t-106 -19zM284 470q-80 0 -128 -49.5t-57 -130.5h352q-3 84 -45.5 132t-121.5 48z
M261 549l-109 200h35l98 -161l98 161h35l-109 -200h-48z" />
    <glyph glyph-name="Gcircumflex" unicode="&#x11c;" horiz-adv-x="723" 
d="M68 0zM406 -8q-169 0 -253.5 94.5t-84.5 266.5q0 112 38.5 192.5t111 124t174.5 43.5q77 0 132.5 -24.5t101.5 -71.5l-22 -35q-33 32 -64.5 51.5t-66.5 29t-82 9.5q-133 0 -205.5 -84t-72.5 -236q0 -155 71.5 -237t221.5 -82q53 0 99.5 9t88.5 27v249h-194v39h234v-316
q-38 -21 -101.5 -35t-126.5 -14zM246 765l121 170h48l121 -170h-37l-108 132l-108 -132h-37z" />
    <glyph glyph-name="gcircumflex" unicode="&#x11d;" horiz-adv-x="587" 
d="M54 0zM298 -223q-61 0 -114.5 17.5t-96.5 52.5l20 34q49 -36 91.5 -50.5t100.5 -14.5q78 0 118.5 42.5t40.5 121.5v138q-22 -51 -69.5 -79t-109.5 -28q-69 0 -119.5 30.5t-78 86.5t-27.5 132q0 114 61 181t164 67q63 0 110.5 -29t69.5 -82l8 103h41q-3 -28 -5.5 -55
t-2.5 -53v-405q0 -210 -202 -210zM278 50q83 0 131.5 55.5t48.5 154.5t-48.5 154t-131.5 55t-132 -55t-49 -154t49 -154.5t132 -55.5zM163 549l109 200h48l109 -200h-35l-98 161l-98 -161h-35z" />
    <glyph glyph-name="Gbreve" unicode="&#x11e;" horiz-adv-x="723" 
d="M68 0zM406 -8q-169 0 -253.5 94.5t-84.5 266.5q0 112 38.5 192.5t111 124t174.5 43.5q77 0 132.5 -24.5t101.5 -71.5l-22 -35q-33 32 -64.5 51.5t-66.5 29t-82 9.5q-133 0 -205.5 -84t-72.5 -236q0 -155 71.5 -237t221.5 -82q53 0 99.5 9t88.5 27v249h-194v39h234v-316
q-38 -21 -101.5 -35t-126.5 -14zM391 760q-64 0 -107 44.5t-50 122.5l33 4q5 -64 38 -99.5t86 -35.5t86.5 35.5t37.5 99.5l33 -4q-7 -78 -50 -122.5t-107 -44.5z" />
    <glyph glyph-name="gbreve" unicode="&#x11f;" horiz-adv-x="587" 
d="M54 0zM298 -223q-61 0 -114.5 17.5t-96.5 52.5l20 34q49 -36 91.5 -50.5t100.5 -14.5q78 0 118.5 42.5t40.5 121.5v138q-22 -51 -69.5 -79t-109.5 -28q-69 0 -119.5 30.5t-78 86.5t-27.5 132q0 114 61 181t164 67q63 0 110.5 -29t69.5 -82l8 103h41q-3 -28 -5.5 -55
t-2.5 -53v-405q0 -210 -202 -210zM278 50q83 0 131.5 55.5t48.5 154.5t-48.5 154t-131.5 55t-132 -55t-49 -154t49 -154.5t132 -55.5zM296 547q-62 0 -100.5 49.5t-43.5 137.5l33 4q4 -74 33 -114.5t78 -40.5q50 0 78.5 40.5t32.5 114.5l33 -4q-5 -88 -43.5 -137.5
t-100.5 -49.5z" />
    <glyph glyph-name="Gdotaccent" unicode="&#x120;" horiz-adv-x="723" 
d="M68 0zM406 -8q-169 0 -253.5 94.5t-84.5 266.5q0 112 38.5 192.5t111 124t174.5 43.5q77 0 132.5 -24.5t101.5 -71.5l-22 -35q-33 32 -64.5 51.5t-66.5 29t-82 9.5q-133 0 -205.5 -84t-72.5 -236q0 -155 71.5 -237t221.5 -82q53 0 99.5 9t88.5 27v249h-194v39h234v-316
q-38 -21 -101.5 -35t-126.5 -14zM360 818v63h62v-63h-62z" />
    <glyph glyph-name="gdotaccent" unicode="&#x121;" horiz-adv-x="587" 
d="M54 0zM298 -223q-61 0 -114.5 17.5t-96.5 52.5l20 34q49 -36 91.5 -50.5t100.5 -14.5q78 0 118.5 42.5t40.5 121.5v138q-22 -51 -69.5 -79t-109.5 -28q-69 0 -119.5 30.5t-78 86.5t-27.5 132q0 114 61 181t164 67q63 0 110.5 -29t69.5 -82l8 103h41q-3 -28 -5.5 -55
t-2.5 -53v-405q0 -210 -202 -210zM278 50q83 0 131.5 55.5t48.5 154.5t-48.5 154t-131.5 55t-132 -55t-49 -154t49 -154.5t132 -55.5zM264 619v63h64v-63h-64z" />
    <glyph glyph-name="uni0122" unicode="&#x122;" horiz-adv-x="723" 
d="M68 0zM406 -8q-169 0 -253.5 94.5t-84.5 266.5q0 112 38.5 192.5t111 124t174.5 43.5q77 0 132.5 -24.5t101.5 -71.5l-22 -35q-33 32 -64.5 51.5t-66.5 29t-82 9.5q-133 0 -205.5 -84t-72.5 -236q0 -155 71.5 -237t221.5 -82q53 0 99.5 9t88.5 27v249h-194v39h234v-316
q-38 -21 -101.5 -35t-126.5 -14zM394 -259l-26 20q21 24 29 44.5t9 43.5h-35v65h70v-54q0 -70 -47 -119z" />
    <glyph glyph-name="uni0123" unicode="&#x123;" horiz-adv-x="587" 
d="M54 0zM298 -223q-61 0 -114.5 17.5t-96.5 52.5l20 34q49 -36 91.5 -50.5t100.5 -14.5q78 0 118.5 42.5t40.5 121.5v138q-22 -51 -69.5 -79t-109.5 -28q-69 0 -119.5 30.5t-78 86.5t-27.5 132q0 114 61 181t164 67q63 0 110.5 -29t69.5 -82l8 103h41q-3 -28 -5.5 -55
t-2.5 -53v-405q0 -210 -202 -210zM278 50q83 0 131.5 55.5t48.5 154.5t-48.5 154t-131.5 55t-132 -55t-49 -154t49 -154.5t132 -55.5zM261 570v54q0 70 47 119l26 -20q-21 -24 -29 -44.5t-9 -43.5h35v-65h-70z" />
    <glyph glyph-name="Hcircumflex" unicode="&#x124;" horiz-adv-x="759" 
d="M97 0zM97 0v705h42v-328h481v328h42v-705h-42v338h-481v-338h-42zM235 765l121 170h48l121 -170h-37l-108 132l-108 -132h-37z" />
    <glyph glyph-name="hcircumflex" unicode="&#x125;" horiz-adv-x="570" 
d="M88 0zM88 0v736h42v-327q25 49 71.5 74t105.5 25q91 0 134.5 -47t43.5 -141v-320h-42v316q0 80 -32 116.5t-104 36.5q-80 0 -128.5 -49t-48.5 -130v-290h-42zM145 765l121 170h48l121 -170h-37l-108 132l-108 -132h-37z" />
    <glyph glyph-name="Hbar" unicode="&#x126;" horiz-adv-x="767" 
d="M102 0v527h-98v38h98v140h42v-140h479v140h42v-140h98v-38h-98v-527h-42v338h-479v-338h-42zM144 377h479v150h-479v-150z" />
    <glyph glyph-name="hbar" unicode="&#x127;" horiz-adv-x="570" 
d="M88 0v594h-99v37h99v105h42v-105h204v-37h-204v-185q25 49 71.5 74t105.5 25q178 0 178 -188v-320h-42v316q0 80 -32.5 116.5t-103.5 36.5q-80 0 -128.5 -49t-48.5 -130v-290h-42z" />
    <glyph glyph-name="Itilde" unicode="&#x128;" horiz-adv-x="236" 
d="M0 0zM97 0v705h42v-705h-42zM-46 792l-32 2q7 58 35 89.5t72 31.5q23 0 46 -11t56 -35q32 -22 48 -30.5t31 -8.5q30 0 47.5 22.5t24.5 64.5l32 -2q-7 -58 -34.5 -89.5t-71.5 -31.5q-22 0 -46 11t-60 37q-28 21 -45 29t-31 8q-30 0 -47.5 -22.5t-24.5 -64.5z" />
    <glyph glyph-name="itilde" unicode="&#x129;" horiz-adv-x="218" 
d="M0 0zM88 0v500h42v-500h-42zM-27 595l-32 2q6 58 31 89.5t65 31.5q21 0 39.5 -11.5t42.5 -35.5q22 -22 35.5 -30t26.5 -8q52 0 64 87l32 -2q-6 -58 -31 -89.5t-64 -31.5q-20 0 -38.5 11.5t-44.5 35.5q-22 21 -35 29.5t-27 8.5q-52 0 -64 -87z" />
    <glyph glyph-name="Imacron" unicode="&#x12a;" horiz-adv-x="236" 
d="M0 0zM97 0v705h42v-705h-42zM-37 822v38h310v-38h-310z" />
    <glyph glyph-name="imacron" unicode="&#x12b;" horiz-adv-x="218" 
d="M0 0zM88 0v500h42v-500h-42zM-31 633v38h280v-38h-280z" />
    <glyph glyph-name="Ibreve" unicode="&#x12c;" horiz-adv-x="236" 
d="M0 0zM97 0v705h42v-705h-42zM118 760q-64 0 -107 44.5t-50 122.5l33 4q5 -64 38 -99.5t86 -35.5t86.5 35.5t37.5 99.5l33 -4q-7 -78 -50 -122.5t-107 -44.5z" />
    <glyph glyph-name="ibreve" unicode="&#x12d;" horiz-adv-x="218" 
d="M0 0zM88 0v500h42v-500h-42zM109 547q-62 0 -100.5 49.5t-43.5 137.5l33 4q4 -74 33 -114.5t78 -40.5q50 0 78.5 40.5t32.5 114.5l33 -4q-5 -88 -43.5 -137.5t-100.5 -49.5z" />
    <glyph glyph-name="Iogonek" unicode="&#x12e;" horiz-adv-x="236" 
d="M28 0zM97 0v705h42v-705h-42zM122 -190q-41 0 -67.5 25t-26.5 67q0 38 23.5 72.5t66.5 56.5l21 -31q-15 -6 -31.5 -19t-28.5 -32t-12 -43q0 -31 17.5 -45.5t42.5 -14.5q26 0 53 13l13 -32q-24 -17 -71 -17z" />
    <glyph glyph-name="iogonek" unicode="&#x12f;" horiz-adv-x="218" 
d="M20 0zM88 0v500h42v-500h-42zM77 619v63h64v-63h-64zM114 -190q-41 0 -67.5 25t-26.5 67q0 38 23.5 72.5t66.5 56.5l21 -31q-15 -6 -31.5 -19t-28.5 -32t-12 -43q0 -31 17.5 -45.5t42.5 -14.5q26 0 53 13l13 -32q-24 -17 -71 -17z" />
    <glyph glyph-name="Idotaccent" unicode="&#x130;" horiz-adv-x="236" 
d="M87 0zM97 0v705h42v-705h-42zM87 818v63h62v-63h-62z" />
    <glyph glyph-name="dotlessi" unicode="&#x131;" horiz-adv-x="218" 
d="M88 0v500h42v-500h-42z" />
    <glyph glyph-name="IJ" unicode="&#x132;" horiz-adv-x="536" 
d="M97 0zM97 0v705h42v-705h-42zM306 -186q-16 0 -33.5 1.5t-36.5 6.5v39q38 -9 64 -9q46 0 71.5 30t25.5 94v729h42v-731q0 -76 -33.5 -118t-99.5 -42z" />
    <glyph glyph-name="Jcircumflex" unicode="&#x134;" horiz-adv-x="300" 
d="M0 0zM70 -186q-16 0 -33.5 1.5t-36.5 6.5v39q38 -9 64 -9q46 0 71.5 30t25.5 94v729h42v-731q0 -76 -33.5 -118t-99.5 -42zM36 765l121 170h48l121 -170h-37l-108 132l-108 -132h-37z" />
    <glyph glyph-name="jcircumflex" unicode="&#x135;" horiz-adv-x="218" 
d="M0 0zM9 -218q-10 0 -29.5 3.5t-30.5 7.5v40q11 -4 28 -8t30 -4q47 0 68 31t21 97v551h42v-560q0 -158 -129 -158zM-16 549l109 200h48l109 -200h-35l-98 161l-98 -161h-35z" />
    <glyph glyph-name="uni0136" unicode="&#x136;" horiz-adv-x="605" 
d="M97 0zM97 0v705h42v-328h2l366 328h61l-390 -346l421 -359h-63l-395 338h-2v-338h-42zM297 -259l-26 20q21 24 29 44.5t9 43.5h-35v65h70v-54q0 -70 -47 -119z" />
    <glyph glyph-name="uni0137" unicode="&#x137;" horiz-adv-x="482" 
d="M88 0zM88 0v736h42v-467h2l259 231h58l-272 -241l305 -259h-61l-289 245h-2v-245h-42zM229 -259l-26 20q21 24 29 44.5t9 43.5h-35v65h70v-54q0 -70 -47 -119z" />
    <glyph glyph-name="kgreenlandic" unicode="&#x138;" horiz-adv-x="482" 
d="M88 0v500h42v-231h2l259 231h58l-272 -241l305 -259h-61l-289 245h-2v-245h-42z" />
    <glyph glyph-name="Lacute" unicode="&#x139;" horiz-adv-x="532" 
d="M97 0zM97 0v705h42v-666h378v-39h-420zM99 765l118 170h56l-136 -170h-38z" />
    <glyph glyph-name="lacute" unicode="&#x13a;" horiz-adv-x="283" 
d="M85 0zM223 -8q-66 0 -102 42.5t-36 118.5v583h44v-576q0 -127 98 -127q26 0 49 6l-3 -41q-28 -6 -50 -6zM90 765l118 170h56l-136 -170h-38z" />
    <glyph glyph-name="uni013B" unicode="&#x13b;" horiz-adv-x="532" 
d="M97 0zM97 0v705h42v-666h378v-39h-420zM291 -259l-26 20q21 24 29 44.5t9 43.5h-35v65h70v-54q0 -70 -47 -119z" />
    <glyph glyph-name="uni013C" unicode="&#x13c;" horiz-adv-x="283" 
d="M85 0zM223 -8q-66 0 -102 42.5t-36 118.5v583h44v-576q0 -127 98 -127q26 0 49 6l-3 -41q-28 -6 -50 -6zM169 -259l-26 20q21 24 29 44.5t9 43.5h-35v65h70v-54q0 -70 -47 -119z" />
    <glyph glyph-name="Lcaron" unicode="&#x13d;" horiz-adv-x="532" 
d="M97 0zM97 0v705h42v-666h378v-39h-420zM256 489v216h49l-19 -216h-30z" />
    <glyph glyph-name="lcaron" unicode="&#x13e;" horiz-adv-x="283" 
d="M85 0zM223 -8q-66 0 -102 42.5t-36 118.5v583h44v-576q0 -127 98 -127q26 0 49 6l-3 -41q-28 -6 -50 -6zM182 548v188h49l-22 -188h-27z" />
    <glyph glyph-name="Ldot" unicode="&#x13f;" horiz-adv-x="532" 
d="M97 0zM97 0v705h42v-666h378v-39h-420zM350 352v68h69v-68h-69z" />
    <glyph glyph-name="ldot" unicode="&#x140;" horiz-adv-x="283" 
d="M85 0zM223 -8q-66 0 -102 42.5t-36 118.5v583h44v-576q0 -127 98 -127q26 0 49 6l-3 -41q-28 -6 -50 -6zM186 323v68h69v-68h-69z" />
    <glyph glyph-name="Lslash" unicode="&#x141;" horiz-adv-x="532" 
d="M0 0zM97 0v705h42v-666h378v-39h-420zM11 277l-20 34l324 186l20 -33z" />
    <glyph glyph-name="lslash" unicode="&#x142;" horiz-adv-x="283" 
d="M0 0zM223 -8q-66 0 -102 42.5t-36 118.5v583h44v-576q0 -127 98 -127q26 0 49 6l-3 -41q-28 -6 -50 -6zM5 274l-20 33l228 133l20 -33z" />
    <glyph glyph-name="Nacute" unicode="&#x143;" horiz-adv-x="739" 
d="M97 0zM97 0v705h36l470 -635v635h39v-705h-35l-471 636v-636h-39zM351 765l118 170h56l-136 -170h-38z" />
    <glyph glyph-name="nacute" unicode="&#x144;" horiz-adv-x="570" 
d="M80 0zM88 0v392q0 26 -2.5 53t-5.5 55h41l7 -95q25 51 71 77t106 26q89 0 134.5 -46t45.5 -144v-318h-42v314q0 81 -33 118t-104 37q-81 0 -128.5 -49t-47.5 -132v-288h-42zM266 549l104 200h54l-122 -200h-36z" />
    <glyph glyph-name="uni0145" unicode="&#x145;" horiz-adv-x="739" 
d="M97 0zM97 0v705h36l470 -635v635h39v-705h-35l-471 636v-636h-39zM358 -259l-26 20q21 24 29 44.5t9 43.5h-35v65h70v-54q0 -70 -47 -119z" />
    <glyph glyph-name="uni0146" unicode="&#x146;" horiz-adv-x="570" 
d="M80 0zM88 0v392q0 26 -2.5 53t-5.5 55h41l7 -95q25 51 71 77t106 26q89 0 134.5 -46t45.5 -144v-318h-42v314q0 81 -33 118t-104 37q-81 0 -128.5 -49t-47.5 -132v-288h-42zM272 -259l-26 20q21 24 29 44.5t9 43.5h-35v65h70v-54q0 -70 -47 -119z" />
    <glyph glyph-name="Ncaron" unicode="&#x147;" horiz-adv-x="739" 
d="M97 0zM97 0v705h36l470 -635v635h39v-705h-35l-471 636v-636h-39zM346 765l-121 170h37l108 -132l108 132h37l-121 -170h-48z" />
    <glyph glyph-name="ncaron" unicode="&#x148;" horiz-adv-x="570" 
d="M80 0zM88 0v392q0 26 -2.5 53t-5.5 55h41l7 -95q25 51 71 77t106 26q89 0 134.5 -46t45.5 -144v-318h-42v314q0 81 -33 118t-104 37q-81 0 -128.5 -49t-47.5 -132v-288h-42zM260 549l-109 200h35l98 -161l98 161h35l-109 -200h-48z" />
    <glyph glyph-name="napostrophe" unicode="&#x149;" horiz-adv-x="662" 
d="M85 0zM111 575l-26 20q20 22 26 41t7 37h-32v70h69v-55q0 -31 -9 -59.5t-35 -53.5zM180 0v392q0 26 -2.5 53t-5.5 55h41l7 -95q25 51 71 77t106 26q89 0 134.5 -46t45.5 -144v-318h-42v314q0 81 -33 118t-104 37q-81 0 -128.5 -49t-47.5 -132v-288h-42z" />
    <glyph glyph-name="Eng" unicode="&#x14a;" horiz-adv-x="739" 
d="M451 -193l-3 38l43 3q54 4 83 37t29 93v27l-467 631v-636h-39v705h36l470 -635v635h39v-726q0 -77 -38.5 -120.5t-107.5 -48.5z" />
    <glyph glyph-name="eng" unicode="&#x14b;" horiz-adv-x="570" 
d="M88 0v392q0 26 -2.5 53t-5.5 55h41l7 -95q25 51 71.5 77t106.5 26q89 0 134 -46t45 -144v-372q0 -78 -37 -121t-106 -43q-16 0 -32.5 3.5t-27.5 7.5v40q11 -4 24.5 -8t32.5 -4q54 0 79 34t25 100v359q0 81 -32.5 118t-103.5 37q-81 0 -129 -49t-48 -132v-288h-42z" />
    <glyph glyph-name="Omacron" unicode="&#x14c;" horiz-adv-x="759" 
d="M68 0zM379 -8q-98 0 -167.5 44t-106.5 125t-37 192q0 112 36.5 192.5t106 124t168.5 43.5q96 0 166 -43.5t108 -124t38 -191.5q0 -112 -38.5 -193t-108.5 -125t-165 -44zM379 33q125 0 196 84t71 236t-70.5 235.5t-196.5 83.5q-130 0 -198 -83.5t-68 -235.5
q0 -151 68 -235.5t198 -84.5zM224 822v38h310v-38h-310z" />
    <glyph glyph-name="omacron" unicode="&#x14d;" horiz-adv-x="553" 
d="M54 0zM276 -8q-102 0 -162 69t-60 189t60 189t162 69t162.5 -69t60.5 -189t-60.5 -189t-162.5 -69zM276 31q82 0 131 56.5t49 162.5t-49 162.5t-131 56.5t-130.5 -56.5t-48.5 -162.5t48.5 -162.5t130.5 -56.5zM137 633v38h280v-38h-280z" />
    <glyph glyph-name="Obreve" unicode="&#x14e;" horiz-adv-x="759" 
d="M68 0zM379 -8q-98 0 -167.5 44t-106.5 125t-37 192q0 112 36.5 192.5t106 124t168.5 43.5q96 0 166 -43.5t108 -124t38 -191.5q0 -112 -38.5 -193t-108.5 -125t-165 -44zM379 33q125 0 196 84t71 236t-70.5 235.5t-196.5 83.5q-130 0 -198 -83.5t-68 -235.5
q0 -151 68 -235.5t198 -84.5zM379 760q-64 0 -107 44.5t-50 122.5l33 4q5 -64 38 -99.5t86 -35.5t86.5 35.5t37.5 99.5l33 -4q-7 -78 -50 -122.5t-107 -44.5z" />
    <glyph glyph-name="obreve" unicode="&#x14f;" horiz-adv-x="553" 
d="M54 0zM276 -8q-102 0 -162 69t-60 189t60 189t162 69t162.5 -69t60.5 -189t-60.5 -189t-162.5 -69zM276 31q82 0 131 56.5t49 162.5t-49 162.5t-131 56.5t-130.5 -56.5t-48.5 -162.5t48.5 -162.5t130.5 -56.5zM277 547q-62 0 -100.5 49.5t-43.5 137.5l33 4
q4 -74 33 -114.5t78 -40.5q50 0 78.5 40.5t32.5 114.5l33 -4q-5 -88 -43.5 -137.5t-100.5 -49.5z" />
    <glyph glyph-name="Ohungarumlaut" unicode="&#x150;" horiz-adv-x="759" 
d="M68 0zM379 -8q-98 0 -167.5 44t-106.5 125t-37 192q0 112 36.5 192.5t106 124t168.5 43.5q96 0 166 -43.5t108 -124t38 -191.5q0 -112 -38.5 -193t-108.5 -125t-165 -44zM379 33q125 0 196 84t71 236t-70.5 235.5t-196.5 83.5q-130 0 -198 -83.5t-68 -235.5
q0 -151 68 -235.5t198 -84.5zM311 765l86 170h52l-111 -170h-27zM420 765l85 170h52l-110 -170h-27z" />
    <glyph glyph-name="ohungarumlaut" unicode="&#x151;" horiz-adv-x="553" 
d="M54 0zM276 -8q-102 0 -162 69t-60 189t60 189t162 69t162.5 -69t60.5 -189t-60.5 -189t-162.5 -69zM276 31q82 0 131 56.5t49 162.5t-49 162.5t-131 56.5t-130.5 -56.5t-48.5 -162.5t48.5 -162.5t130.5 -56.5zM318 549l58 200h48l-79 -200h-27zM209 549l58 200h48
l-79 -200h-27z" />
    <glyph glyph-name="OE" unicode="&#x152;" horiz-adv-x="1057" 
d="M379 -8q-98 0 -167.5 44t-106.5 125t-37 192q0 112 36.5 192.5t106 124t168.5 43.5q58 0 106.5 -11.5t86.5 -39.5v43h428v-39h-386v-289h366v-39h-366v-299h386v-39h-428v50q-78 -58 -193 -58zM113 353q0 -151 68 -235.5t198 -84.5q61 0 110 17.5t83 55.5v500
q-34 37 -82.5 51.5t-110.5 14.5q-130 0 -198 -83.5t-68 -235.5z" />
    <glyph glyph-name="oe" unicode="&#x153;" horiz-adv-x="936" 
d="M277 -8q-102 0 -162.5 69t-60.5 189t60.5 189t162.5 69q71 0 124 -36.5t78 -105.5q26 69 80.5 105.5t125.5 36.5q94 0 147 -61.5t53 -167.5v-27h-384v-4q0 -105 50 -161t142 -56q44 0 84.5 16t78.5 50l21 -33q-31 -34 -80.5 -53t-102.5 -19q-166 0 -217 140
q-25 -68 -76.5 -104t-123.5 -36zM682 470q-77 0 -123.5 -49.5t-55.5 -130.5h343q-3 83 -44.5 131.5t-119.5 48.5zM277 31q82 0 131 56.5t49 162.5t-49 162.5t-131 56.5t-131 -56.5t-49 -162.5t49 -162.5t131 -56.5z" />
    <glyph glyph-name="Racute" unicode="&#x154;" horiz-adv-x="684" 
d="M97 0zM97 0v705h270q107 0 166 -50t59 -141q0 -74 -41.5 -120t-107.5 -59q30 -6 54 -25t39 -58l97 -252h-47l-88 236q-20 55 -58.5 70.5t-99.5 15.5h-201v-322h-42zM139 361h224q90 0 137 39.5t47 113.5t-47 113t-137 39h-224v-305zM319 765l118 170h56l-136 -170h-38z
" />
    <glyph glyph-name="racute" unicode="&#x155;" horiz-adv-x="336" 
d="M80 0zM86 0v386q0 59 -6 114h41l5 -87q21 48 66.5 71.5t91.5 23.5q12 0 23.5 -1t21.5 -4l-2 -39q-10 3 -21.5 4t-24.5 1q-46 0 -80.5 -23.5t-53.5 -58t-19 -67.5v-320h-42zM190 549l104 200h54l-122 -200h-36z" />
    <glyph glyph-name="uni0156" unicode="&#x156;" horiz-adv-x="684" 
d="M97 0zM97 0v705h270q107 0 166 -50t59 -141q0 -74 -41.5 -120t-107.5 -59q30 -6 54 -25t39 -58l97 -252h-47l-88 236q-20 55 -58.5 70.5t-99.5 15.5h-201v-322h-42zM139 361h224q90 0 137 39.5t47 113.5t-47 113t-137 39h-224v-305zM326 -259l-26 20q21 24 29 44.5
t9 43.5h-35v65h70v-54q0 -70 -47 -119z" />
    <glyph glyph-name="uni0157" unicode="&#x157;" horiz-adv-x="336" 
d="M69 0zM86 0v386q0 59 -6 114h41l5 -87q21 48 66.5 71.5t91.5 23.5q12 0 23.5 -1t21.5 -4l-2 -39q-10 3 -21.5 4t-24.5 1q-46 0 -80.5 -23.5t-53.5 -58t-19 -67.5v-320h-42zM95 -259l-26 20q21 24 29 44.5t9 43.5h-35v65h70v-54q0 -70 -47 -119z" />
    <glyph glyph-name="Rcaron" unicode="&#x158;" horiz-adv-x="684" 
d="M97 0zM97 0v705h270q107 0 166 -50t59 -141q0 -74 -41.5 -120t-107.5 -59q30 -6 54 -25t39 -58l97 -252h-47l-88 236q-20 55 -58.5 70.5t-99.5 15.5h-201v-322h-42zM139 361h224q90 0 137 39.5t47 113.5t-47 113t-137 39h-224v-305zM314 765l-121 170h37l108 -132
l108 132h37l-121 -170h-48z" />
    <glyph glyph-name="rcaron" unicode="&#x159;" horiz-adv-x="336" 
d="M75 0zM86 0v386q0 59 -6 114h41l5 -87q21 48 66.5 71.5t91.5 23.5q12 0 23.5 -1t21.5 -4l-2 -39q-10 3 -21.5 4t-24.5 1q-46 0 -80.5 -23.5t-53.5 -58t-19 -67.5v-320h-42zM184 549l-109 200h35l98 -161l98 161h35l-109 -200h-48z" />
    <glyph glyph-name="Sacute" unicode="&#x15a;" horiz-adv-x="604" 
d="M52 0zM313 -8q-85 0 -148 22.5t-113 65.5l21 36q37 -29 71 -47.5t74.5 -27t93.5 -8.5q98 0 148.5 39.5t50.5 105.5q0 56 -35.5 86t-121.5 47l-99 20q-97 20 -144 63t-47 119q0 60 31 105t86 70t128 25q151 0 240 -92l-20 -36q-49 47 -101 67t-119 20q-92 0 -146.5 -43
t-54.5 -116q0 -59 35 -91.5t113 -48.5l100 -20q104 -21 151.5 -60.5t47.5 -113.5q0 -83 -64.5 -135t-177.5 -52zM294 765l118 170h56l-136 -170h-38z" />
    <glyph glyph-name="sacute" unicode="&#x15b;" horiz-adv-x="492" 
d="M58 0zM244 -8q-56 0 -105.5 17.5t-80.5 48.5l21 33q36 -31 78 -45.5t89 -14.5q68 0 104 26t36 71q0 35 -23 56.5t-76 32.5l-87 19q-64 15 -95 48t-31 82q0 62 48 102t131 40q53 0 97.5 -18t71.5 -50l-22 -33q-60 62 -147 62q-65 0 -99.5 -28t-34.5 -74q0 -35 21.5 -57
t68.5 -33l87 -20q68 -16 101 -46.5t33 -80.5q0 -63 -51 -100.5t-135 -37.5zM234 549l104 200h54l-122 -200h-36z" />
    <glyph glyph-name="Scircumflex" unicode="&#x15c;" horiz-adv-x="604" 
d="M52 0zM313 -8q-85 0 -148 22.5t-113 65.5l21 36q37 -29 71 -47.5t74.5 -27t93.5 -8.5q98 0 148.5 39.5t50.5 105.5q0 56 -35.5 86t-121.5 47l-99 20q-97 20 -144 63t-47 119q0 60 31 105t86 70t128 25q151 0 240 -92l-20 -36q-49 47 -101 67t-119 20q-92 0 -146.5 -43
t-54.5 -116q0 -59 35 -91.5t113 -48.5l100 -20q104 -21 151.5 -60.5t47.5 -113.5q0 -83 -64.5 -135t-177.5 -52zM168 765l121 170h48l121 -170h-37l-108 132l-108 -132h-37z" />
    <glyph glyph-name="scircumflex" unicode="&#x15d;" horiz-adv-x="492" 
d="M58 0zM244 -8q-56 0 -105.5 17.5t-80.5 48.5l21 33q36 -31 78 -45.5t89 -14.5q68 0 104 26t36 71q0 35 -23 56.5t-76 32.5l-87 19q-64 15 -95 48t-31 82q0 62 48 102t131 40q53 0 97.5 -18t71.5 -50l-22 -33q-60 62 -147 62q-65 0 -99.5 -28t-34.5 -74q0 -35 21.5 -57
t68.5 -33l87 -20q68 -16 101 -46.5t33 -80.5q0 -63 -51 -100.5t-135 -37.5zM119 549l109 200h48l109 -200h-35l-98 161l-98 -161h-35z" />
    <glyph glyph-name="Scedilla" unicode="&#x15e;" horiz-adv-x="604" 
d="M52 0zM313 -8q-85 0 -148 22.5t-113 65.5l21 36q37 -29 71 -47.5t74.5 -27t93.5 -8.5q98 0 148.5 39.5t50.5 105.5q0 56 -35.5 86t-121.5 47l-99 20q-97 20 -144 63t-47 119q0 60 31 105t86 70t128 25q151 0 240 -92l-20 -36q-49 47 -101 67t-119 20q-92 0 -146.5 -43
t-54.5 -116q0 -59 35 -91.5t113 -48.5l100 -20q104 -21 151.5 -60.5t47.5 -113.5q0 -83 -64.5 -135t-177.5 -52zM324 -190q-49 0 -78 18l9 34q19 -9 34 -12.5t39 -3.5q27 0 44.5 11t17.5 32q0 32 -39 32q-11 0 -22.5 -2t-28.5 -8l-15 13l15 96h38l-12 -69q15 3 26 3
q32 0 55 -17t23 -48q0 -35 -29.5 -57t-76.5 -22z" />
    <glyph glyph-name="scedilla" unicode="&#x15f;" horiz-adv-x="492" 
d="M58 0zM244 -8q-56 0 -105.5 17.5t-80.5 48.5l21 33q36 -31 78 -45.5t89 -14.5q68 0 104 26t36 71q0 35 -23 56.5t-76 32.5l-87 19q-64 15 -95 48t-31 82q0 62 48 102t131 40q53 0 97.5 -18t71.5 -50l-22 -33q-60 62 -147 62q-65 0 -99.5 -28t-34.5 -74q0 -35 21.5 -57
t68.5 -33l87 -20q68 -16 101 -46.5t33 -80.5q0 -63 -51 -100.5t-135 -37.5zM249 -190q-49 0 -78 18l9 34q19 -9 34 -12.5t39 -3.5q27 0 44.5 11t17.5 32q0 32 -39 32q-11 0 -22.5 -2t-28.5 -8l-15 13l15 96h38l-12 -69q15 3 26 3q32 0 55 -17t23 -48q0 -35 -29.5 -57
t-76.5 -22z" />
    <glyph glyph-name="Scaron" unicode="&#x160;" horiz-adv-x="604" 
d="M52 0zM313 -8q-85 0 -148 22.5t-113 65.5l21 36q37 -29 71 -47.5t74.5 -27t93.5 -8.5q98 0 148.5 39.5t50.5 105.5q0 56 -35.5 86t-121.5 47l-99 20q-97 20 -144 63t-47 119q0 60 31 105t86 70t128 25q151 0 240 -92l-20 -36q-49 47 -101 67t-119 20q-92 0 -146.5 -43
t-54.5 -116q0 -59 35 -91.5t113 -48.5l100 -20q104 -21 151.5 -60.5t47.5 -113.5q0 -83 -64.5 -135t-177.5 -52zM289 765l-121 170h37l108 -132l108 132h37l-121 -170h-48z" />
    <glyph glyph-name="scaron" unicode="&#x161;" horiz-adv-x="492" 
d="M58 0zM244 -8q-56 0 -105.5 17.5t-80.5 48.5l21 33q36 -31 78 -45.5t89 -14.5q68 0 104 26t36 71q0 35 -23 56.5t-76 32.5l-87 19q-64 15 -95 48t-31 82q0 62 48 102t131 40q53 0 97.5 -18t71.5 -50l-22 -33q-60 62 -147 62q-65 0 -99.5 -28t-34.5 -74q0 -35 21.5 -57
t68.5 -33l87 -20q68 -16 101 -46.5t33 -80.5q0 -63 -51 -100.5t-135 -37.5zM228 549l-109 200h35l98 -161l98 161h35l-109 -200h-48z" />
    <glyph glyph-name="uni0162" unicode="&#x162;" horiz-adv-x="590" 
d="M10 0zM272 0v666h-262v39h566v-39h-262v-666h-42zM300 -190q-49 0 -78 18l9 34q19 -9 34 -12.5t39 -3.5q27 0 44.5 11t17.5 32q0 32 -39 32q-11 0 -22.5 -2t-28.5 -8l-15 13l15 96h38l-12 -69q15 3 26 3q32 0 55 -17t23 -48q0 -35 -29.5 -57t-76.5 -22z" />
    <glyph glyph-name="uni0163" unicode="&#x163;" horiz-adv-x="324" 
d="M8 0zM234 -8q-61 0 -93.5 38.5t-32.5 117.5v316h-100v36h100v143l42 16v-159h152v-36h-152v-307q0 -66 20.5 -96t66.5 -30q20 0 36 4t27 9v-40q-26 -12 -66 -12zM216 -190q-49 0 -78 18l9 34q19 -9 34 -12.5t39 -3.5q27 0 44.5 11t17.5 32q0 32 -39 32q-11 0 -22.5 -2
t-28.5 -8l-15 13l15 96h38l-12 -69q15 3 26 3q32 0 55 -17t23 -48q0 -35 -29.5 -57t-76.5 -22z" />
    <glyph glyph-name="Tcaron" unicode="&#x164;" horiz-adv-x="590" 
d="M10 0zM272 0v666h-262v39h566v-39h-262v-666h-42zM271 765l-121 170h37l108 -132l108 132h37l-121 -170h-48z" />
    <glyph glyph-name="tcaron" unicode="&#x165;" horiz-adv-x="324" 
d="M8 0zM234 -8q-61 0 -93.5 38.5t-32.5 117.5v316h-100v36h100v143l42 16v-159h152v-36h-152v-307q0 -66 20.5 -96t66.5 -30q20 0 36 4t27 9v-40q-26 -12 -66 -12zM233 535v170h48l-21 -170h-27z" />
    <glyph glyph-name="Tbar" unicode="&#x166;" horiz-adv-x="590" 
d="M10 0zM272 0v666h-262v39h566v-39h-262v-666h-42zM128 340v37h334v-37h-334z" />
    <glyph glyph-name="tbar" unicode="&#x167;" horiz-adv-x="324" 
d="M8 0zM234 -8q-61 0 -93.5 38.5t-32.5 117.5v316h-100v36h100v143l42 16v-159h152v-36h-152v-307q0 -66 20.5 -96t66.5 -30q20 0 36 4t27 9v-40q-26 -12 -66 -12zM34 262v36h245v-36h-245z" />
    <glyph glyph-name="Utilde" unicode="&#x168;" horiz-adv-x="722" 
d="M92 0zM361 -8q-137 0 -203 71t-66 207v435h42v-429q0 -122 54.5 -182.5t172.5 -60.5q111 0 169 60.5t58 182.5v429h42v-435q0 -136 -69 -207t-200 -71zM197 792l-32 2q7 58 35 89.5t72 31.5q23 0 46 -11t56 -35q32 -22 48 -30.5t31 -8.5q30 0 47.5 22.5t24.5 64.5l32 -2
q-7 -58 -34.5 -89.5t-71.5 -31.5q-22 0 -46 11t-60 37q-28 21 -45 29t-31 8q-30 0 -47.5 -22.5t-24.5 -64.5z" />
    <glyph glyph-name="utilde" unicode="&#x169;" horiz-adv-x="561" 
d="M85 0zM262 -8q-177 0 -177 191v317h42v-313q0 -81 33 -118.5t102 -37.5q77 0 123 49.5t46 131.5v288h42v-500h-41v93q-24 -49 -68.5 -75t-101.5 -26zM145 596l-32 2q6 58 31 89.5t65 31.5q21 0 39.5 -11.5t42.5 -35.5q22 -22 35.5 -30t26.5 -8q52 0 64 87l32 -2
q-6 -58 -31 -89.5t-64 -31.5q-20 0 -38.5 11.5t-44.5 35.5q-22 21 -35 29.5t-27 8.5q-52 0 -64 -87z" />
    <glyph glyph-name="Umacron" unicode="&#x16a;" horiz-adv-x="722" 
d="M92 0zM361 -8q-137 0 -203 71t-66 207v435h42v-429q0 -122 54.5 -182.5t172.5 -60.5q111 0 169 60.5t58 182.5v429h42v-435q0 -136 -69 -207t-200 -71zM206 822v38h310v-38h-310z" />
    <glyph glyph-name="umacron" unicode="&#x16b;" horiz-adv-x="561" 
d="M85 0zM262 -8q-177 0 -177 191v317h42v-313q0 -81 33 -118.5t102 -37.5q77 0 123 49.5t46 131.5v288h42v-500h-41v93q-24 -49 -68.5 -75t-101.5 -26zM141 634v38h280v-38h-280z" />
    <glyph glyph-name="Ubreve" unicode="&#x16c;" horiz-adv-x="722" 
d="M92 0zM361 -8q-137 0 -203 71t-66 207v435h42v-429q0 -122 54.5 -182.5t172.5 -60.5q111 0 169 60.5t58 182.5v429h42v-435q0 -136 -69 -207t-200 -71zM361 760q-64 0 -107 44.5t-50 122.5l33 4q5 -64 38 -99.5t86 -35.5t86.5 35.5t37.5 99.5l33 -4q-7 -78 -50 -122.5
t-107 -44.5z" />
    <glyph glyph-name="ubreve" unicode="&#x16d;" horiz-adv-x="561" 
d="M85 0zM262 -8q-177 0 -177 191v317h42v-313q0 -81 33 -118.5t102 -37.5q77 0 123 49.5t46 131.5v288h42v-500h-41v93q-24 -49 -68.5 -75t-101.5 -26zM281 548q-62 0 -100.5 49.5t-43.5 137.5l33 4q4 -74 33 -114.5t78 -40.5q50 0 78.5 40.5t32.5 114.5l33 -4
q-5 -88 -43.5 -137.5t-100.5 -49.5z" />
    <glyph glyph-name="Uring" unicode="&#x16e;" horiz-adv-x="722" 
d="M92 0zM361 -8q-137 0 -203 71t-66 207v435h42v-429q0 -122 54.5 -182.5t172.5 -60.5q111 0 169 60.5t58 182.5v429h42v-435q0 -136 -69 -207t-200 -71zM361 760q-47 0 -79.5 32t-32.5 78t32.5 78t79.5 32t79.5 -32t32.5 -78t-32.5 -78t-79.5 -32zM361 792q35 0 56.5 22.5
t21.5 55.5t-21.5 55.5t-56.5 22.5q-34 0 -56 -22.5t-22 -55.5t22 -55.5t56 -22.5z" />
    <glyph glyph-name="uring" unicode="&#x16f;" horiz-adv-x="561" 
d="M85 0zM262 -8q-177 0 -177 191v317h42v-313q0 -81 33 -118.5t102 -37.5q77 0 123 49.5t46 131.5v288h42v-500h-41v93q-24 -49 -68.5 -75t-101.5 -26zM281 548q-47 0 -79.5 32t-32.5 78t32.5 78t79.5 32t79.5 -32t32.5 -78t-32.5 -78t-79.5 -32zM281 580q35 0 56.5 22.5
t21.5 55.5t-21.5 55.5t-56.5 22.5q-34 0 -56 -22.5t-22 -55.5t22 -55.5t56 -22.5z" />
    <glyph glyph-name="Uhungarumlaut" unicode="&#x170;" horiz-adv-x="722" 
d="M92 0zM361 -8q-137 0 -203 71t-66 207v435h42v-429q0 -122 54.5 -182.5t172.5 -60.5q111 0 169 60.5t58 182.5v429h42v-435q0 -136 -69 -207t-200 -71zM293 765l86 170h52l-111 -170h-27zM402 765l85 170h52l-110 -170h-27z" />
    <glyph glyph-name="uhungarumlaut" unicode="&#x171;" horiz-adv-x="561" 
d="M85 0zM262 -8q-177 0 -177 191v317h42v-313q0 -81 33 -118.5t102 -37.5q77 0 123 49.5t46 131.5v288h42v-500h-41v93q-24 -49 -68.5 -75t-101.5 -26zM322 550l58 200h48l-79 -200h-27zM213 550l58 200h48l-79 -200h-27z" />
    <glyph glyph-name="Uogonek" unicode="&#x172;" horiz-adv-x="722" 
d="M92 0zM361 -8q-137 0 -203 71t-66 207v435h42v-429q0 -122 54.5 -182.5t172.5 -60.5q111 0 169 60.5t58 182.5v429h42v-435q0 -136 -69 -207t-200 -71zM412 -190q-41 0 -67.5 25t-26.5 67q0 38 23.5 72.5t66.5 56.5l21 -31q-15 -6 -31.5 -19t-28.5 -32t-12 -43
q0 -31 17.5 -45.5t42.5 -14.5q26 0 53 13l13 -32q-24 -17 -71 -17z" />
    <glyph glyph-name="uogonek" unicode="&#x173;" horiz-adv-x="561" 
d="M85 0zM262 -8q-177 0 -177 191v317h42v-313q0 -81 33 -118.5t102 -37.5q77 0 123 49.5t46 131.5v288h42v-500h-41v93q-24 -49 -68.5 -75t-101.5 -26zM456 -190q-41 0 -67.5 25t-26.5 67q0 38 23.5 72.5t66.5 56.5l21 -31q-15 -6 -31.5 -19t-28.5 -32t-12 -43
q0 -31 17.5 -45.5t42.5 -14.5q26 0 53 13l13 -32q-24 -17 -71 -17z" />
    <glyph glyph-name="Wcircumflex" unicode="&#x174;" horiz-adv-x="1104" 
d="M42 0zM285 0l-243 705h45l220 -643l228 643h39l220 -647l225 647h43l-246 -705h-44l-217 643l-228 -643h-42zM407 765l121 170h48l121 -170h-37l-108 132l-108 -132h-37z" />
    <glyph glyph-name="wcircumflex" unicode="&#x175;" horiz-adv-x="857" 
d="M42 0zM218 0l-176 500h47l154 -448l160 448h53l157 -447l156 447h46l-177 -500h-50l-158 449l-161 -449h-51zM295 549l109 200h48l109 -200h-35l-98 161l-98 -161h-35z" />
    <glyph glyph-name="Ycircumflex" unicode="&#x176;" horiz-adv-x="587" 
d="M1 0zM272 0v304l-271 401h49l245 -367l244 367h47l-272 -402v-303h-42zM149 765l121 170h48l121 -170h-37l-108 132l-108 -132h-37z" />
    <glyph glyph-name="ycircumflex" unicode="&#x177;" horiz-adv-x="520" 
d="M24 0zM60 -227l-10 39q47 11 77.5 27.5t51.5 42.5t38 65l21 48l-214 505h48l189 -456l187 456h48l-233 -554q-24 -57 -53 -91.5t-66 -53t-84 -28.5zM126 549l109 200h48l109 -200h-35l-98 161l-98 -161h-35z" />
    <glyph glyph-name="Ydieresis" unicode="&#x178;" horiz-adv-x="587" 
d="M1 0zM272 0v304l-271 401h49l245 -367l244 367h47l-272 -402v-303h-42zM344 820v60h61v-60h-61zM183 820v60h61v-60h-61z" />
    <glyph glyph-name="Zacute" unicode="&#x179;" horiz-adv-x="585" 
d="M42 0zM42 0v31l438 635h-438v39h494v-31l-439 -635h449v-39h-504zM275 765l118 170h56l-136 -170h-38z" />
    <glyph glyph-name="zacute" unicode="&#x17a;" horiz-adv-x="512" 
d="M51 0zM51 0v30l349 434h-349v36h401v-30l-350 -434h362v-36h-413zM233 549l104 200h54l-122 -200h-36z" />
    <glyph glyph-name="Zdotaccent" unicode="&#x17b;" horiz-adv-x="585" 
d="M42 0zM42 0v31l438 635h-438v39h494v-31l-439 -635h449v-39h-504zM263 818v63h62v-63h-62z" />
    <glyph glyph-name="zdotaccent" unicode="&#x17c;" horiz-adv-x="512" 
d="M51 0zM51 0v30l349 434h-349v36h401v-30l-350 -434h362v-36h-413zM219 619v63h64v-63h-64z" />
    <glyph glyph-name="Zcaron" unicode="&#x17d;" horiz-adv-x="585" 
d="M42 0zM42 0v31l438 635h-438v39h494v-31l-439 -635h449v-39h-504zM270 765l-121 170h37l108 -132l108 132h37l-121 -170h-48z" />
    <glyph glyph-name="zcaron" unicode="&#x17e;" horiz-adv-x="512" 
d="M51 0zM51 0v30l349 434h-349v36h401v-30l-350 -434h362v-36h-413zM227 549l-109 200h35l98 -161l98 161h35l-109 -200h-48z" />
    <glyph glyph-name="uni0181" unicode="&#x181;" horiz-adv-x="778" 
d="M203 0v666h-39q-125 0 -125 -117v-43h-40v45q0 78 42.5 116t133.5 38h285q110 0 170 -47.5t60 -136.5q0 -59 -32 -100.5t-88 -60.5q64 -14 100.5 -58t36.5 -111q0 -94 -60.5 -142.5t-173.5 -48.5h-270zM245 376h212q93 0 141 37.5t48 107.5q0 71 -48 108t-141 37h-212
v-290zM245 39h227q191 0 191 149t-190 149h-228v-298z" />
    <glyph glyph-name="uni018A" unicode="&#x18a;" horiz-adv-x="839" 
d="M203 0v666h-39q-125 0 -125 -117v-43h-40v45q0 154 167 154h251q171 0 262.5 -89.5t91.5 -262.5t-91.5 -263t-262.5 -90h-214zM245 39h168q313 0 313 314q0 313 -313 313h-168v-627z" />
    <glyph glyph-name="uni018F" unicode="&#x18f;" horiz-adv-x="736" 
d="M363 -8q-106 0 -171 44t-94.5 124t-29.5 188v28h555q-6 142 -76.5 219t-199.5 77q-51 0 -90 -9t-72.5 -29t-68.5 -52l-21 35q47 48 108 72t146 24q101 0 172 -43t109 -123.5t38 -192.5t-36 -193.5t-104 -125t-165 -43.5zM362 33q123 0 190 79.5t71 224.5h-511
q3 -147 59.5 -225.5t190.5 -78.5z" />
    <glyph glyph-name="florin" unicode="&#x192;" horiz-adv-x="600" 
d="M49 -188v37h39q50 0 81.5 25.5t45.5 91.5l102 482h-130v36h139l16 78q15 73 55 112t114 39h38v-39h-38q-51 0 -82 -24t-45 -92l-15 -74h131v-36h-139l-104 -486q-16 -72 -55.5 -111t-113.5 -39h-39z" />
    <glyph glyph-name="Ohorn" unicode="&#x1a0;" horiz-adv-x="759" 
d="M68 0zM379 -8q-98 0 -167.5 44t-106.5 125t-37 192q0 112 36.5 192.5t106 124t168.5 43.5q96 0 166 -43.5t108 -124t38 -191.5q0 -112 -38.5 -193t-108.5 -125t-165 -44zM379 33q125 0 196 84t71 236t-70.5 235.5t-196.5 83.5q-130 0 -198 -83.5t-68 -235.5
q0 -151 68 -235.5t198 -84.5zM489 667l-54 42q29 -2 50.5 -3t43.5 -1q73 0 96.5 31t23.5 89v12h40v-20q0 -70 -37.5 -110t-106.5 -40h-56z" />
    <glyph glyph-name="ohorn" unicode="&#x1a1;" horiz-adv-x="553" 
d="M54 0zM276 -8q-102 0 -162 69t-60 189t60 189t162 69t162.5 -69t60.5 -189t-60.5 -189t-162.5 -69zM276 31q82 0 131 56.5t49 162.5t-49 162.5t-131 56.5t-130.5 -56.5t-48.5 -162.5t48.5 -162.5t130.5 -56.5zM339 462l-15 13v25q73 1 96.5 31.5t23.5 88.5v12h40v-20
q0 -70 -37 -108.5t-108 -41.5z" />
    <glyph glyph-name="Uhorn" unicode="&#x1af;" horiz-adv-x="722" 
d="M92 0zM361 -8q-137 0 -203 71t-66 207v435h42v-429q0 -122 54.5 -182.5t172.5 -60.5q111 0 169 60.5t58 182.5v429h42v-435q0 -136 -69 -207t-200 -71zM611 667l-15 13v25q73 1 96.5 31.5t23.5 88.5v12h40v-20q0 -70 -37 -108.5t-108 -41.5z" />
    <glyph glyph-name="uhorn" unicode="&#x1b0;" horiz-adv-x="561" 
d="M85 0zM262 -8q-177 0 -177 191v317h42v-313q0 -81 33 -118.5t102 -37.5q77 0 123 49.5t46 131.5v288h42v-500h-41v93q-24 -49 -68.5 -75t-101.5 -26zM446 462l-15 13v25q73 1 96.5 31.5t23.5 88.5v12h40v-20q0 -70 -37 -108.5t-108 -41.5z" />
    <glyph glyph-name="uni01B3" unicode="&#x1b3;" horiz-adv-x="587" 
d="M272 0v343l-271 362h49l245 -328l191 266q26 37 56.5 53t65.5 16q16 0 26.5 -1.5t23.5 -6.5v-37q-10 4 -22 6t-26 2q-27 0 -49.5 -11.5t-43.5 -40.5l-203 -281v-342h-42z" />
    <glyph glyph-name="uni01B4" unicode="&#x1b4;" horiz-adv-x="554" 
d="M60 -227l-10 39q47 11 77.5 27.5t51.5 42.5t38 65l21 48l-214 505h48l189 -456l148 362q23 55 53 78.5t78 23.5q28 0 50 -7l-6 -37q-9 3 -19.5 4.5t-18.5 1.5q-35 0 -56 -18t-44 -71l-183 -435q-24 -57 -53 -91.5t-66 -53t-84 -28.5z" />
    <glyph glyph-name="uni01C4" unicode="&#x1c4;" horiz-adv-x="1303" 
d="M97 0zM97 0v705h214q171 0 262.5 -89.5t91.5 -262.5t-91.5 -263t-262.5 -90h-214zM139 39h168q313 0 313 314q0 313 -313 313h-168v-627zM760 0zM760 0v31l438 635h-438v39h494v-31l-439 -635h449v-39h-504zM988 765l-121 170h37l108 -132l108 132h37l-121 -170h-48z" />
    <glyph glyph-name="uni01C5" unicode="&#x1c5;" horiz-adv-x="1245" 
d="M97 0zM97 0v705h214q171 0 262.5 -89.5t91.5 -262.5t-91.5 -263t-262.5 -90h-214zM139 39h168q313 0 313 314q0 313 -313 313h-168v-627zM784 0zM784 0v30l349 434h-349v36h401v-30l-350 -434h362v-36h-413zM960 549l-109 200h35l98 -161l98 161h35l-109 -200h-48z" />
    <glyph glyph-name="uni01C6" unicode="&#x1c6;" horiz-adv-x="1095" 
d="M54 0zM274 -8q-101 0 -160.5 68.5t-59.5 189.5t59.5 189.5t160.5 68.5q62 0 109 -28.5t70 -79.5v336h42v-736h-42v100q-23 -51 -70 -79.5t-109 -28.5zM275 31q81 0 130 56.5t49 162.5t-49 162.5t-130 56.5q-82 0 -130 -56.5t-48 -162.5t48 -162.5t130 -56.5zM634 0z
M634 0v30l349 434h-349v36h401v-30l-350 -434h362v-36h-413zM810 549l-109 200h35l98 -161l98 161h35l-109 -200h-48z" />
    <glyph glyph-name="uni01C7" unicode="&#x1c7;" horiz-adv-x="872" 
d="M97 0zM97 0v705h42v-666h378v-39h-420zM642 -186q-16 0 -33.5 1.5t-36.5 6.5v39q38 -9 64 -9q46 0 71.5 30t25.5 94v729h42v-731q0 -76 -33.5 -118t-99.5 -42z" />
    <glyph glyph-name="uni01C8" unicode="&#x1c8;" horiz-adv-x="750" 
d="M97 0zM97 0v705h42v-666h378v-39h-420zM617 631v63h64v-63h-64zM541 -218q-10 0 -29.5 3.5t-30.5 7.5v40q11 -4 28 -8t30 -4q47 0 68 31t21 97v551h42v-560q0 -158 -129 -158z" />
    <glyph glyph-name="uni01C9" unicode="&#x1c9;" horiz-adv-x="501" 
d="M85 0zM223 -8q-66 0 -102 42.5t-36 118.5v583h44v-576q0 -127 98 -127q26 0 49 6l-3 -41q-28 -6 -50 -6zM368 631v63h64v-63h-64zM292 -218q-10 0 -29.5 3.5t-30.5 7.5v40q11 -4 28 -8t30 -4q47 0 68 31t21 97v551h42v-560q0 -158 -129 -158z" />
    <glyph glyph-name="uni01CA" unicode="&#x1ca;" horiz-adv-x="1039" 
d="M97 0zM97 0v705h36l470 -635v635h39v-705h-35l-471 636v-636h-39zM809 -186q-16 0 -33.5 1.5t-36.5 6.5v39q38 -9 64 -9q46 0 71.5 30t25.5 94v729h42v-731q0 -76 -33.5 -118t-99.5 -42z" />
    <glyph glyph-name="uni01CB" unicode="&#x1cb;" horiz-adv-x="957" 
d="M97 0zM97 0v705h36l470 -635v635h39v-705h-35l-471 636v-636h-39zM824 631v63h64v-63h-64zM748 -218q-10 0 -29.5 3.5t-30.5 7.5v40q11 -4 28 -8t30 -4q47 0 68 31t21 97v551h42v-560q0 -158 -129 -158z" />
    <glyph glyph-name="uni01CC" unicode="&#x1cc;" horiz-adv-x="788" 
d="M80 0zM88 0v392q0 26 -2.5 53t-5.5 55h41l7 -95q25 51 71 77t106 26q89 0 134.5 -46t45.5 -144v-318h-42v314q0 81 -33 118t-104 37q-81 0 -128.5 -49t-47.5 -132v-288h-42zM655 631v63h64v-63h-64zM579 -218q-10 0 -29.5 3.5t-30.5 7.5v40q11 -4 28 -8t30 -4q47 0 68 31
t21 97v551h42v-560q0 -158 -129 -158z" />
    <glyph glyph-name="uni01CE" unicode="&#x1ce;" horiz-adv-x="539" 
d="M247 -7q-74 0 -123 42.5t-49 105.5q0 54 29.5 85.5t97 44.5t206.5 13v43q0 70 -28 105t-92 35q-91 0 -173 -55l-21 37q35 25 83 42t105 17q171 0 171 -183v-325h-45v91q-27 -52 -69.5 -75t-91.5 -23zM247 36q54 0 89.5 24.5t53.5 63t18 82.5v38q-86 0 -141.5 -4.5
t-86.5 -15.5t-43.5 -30.5t-12.5 -49.5q0 -36 17 -60t45 -36t61 -12zM250 549l-109 200h35l98 -161l98 161h35l-109 -200h-48z" />
    <glyph glyph-name="uni01D4" unicode="&#x1d4;" horiz-adv-x="561" 
d="M85 0zM262 -8q-177 0 -177 191v317h42v-313q0 -81 33 -118.5t102 -37.5q77 0 123 49.5t46 131.5v288h42v-500h-41v93q-24 -49 -68.5 -75t-101.5 -26zM257 550l-109 200h35l98 -161l98 161h35l-109 -200h-48z" />
    <glyph glyph-name="uni01E5" unicode="&#x1e5;" horiz-adv-x="587" 
d="M298 -223q-61 0 -114.5 17.5t-96.5 52.5l20 34q49 -36 91.5 -50.5t100.5 -14.5q119 0 150 97h-124v36h131q1 8 1.5 15.5t0.5 15.5v138q-22 -51 -69.5 -79t-109.5 -28q-69 0 -119.5 30.5t-78 86.5t-27.5 132q0 114 61 181t164 67q60 0 106.5 -26.5t69.5 -74.5l7 93h41
q-3 -28 -5.5 -55t-2.5 -53l4 -405q0 -20 -2 -38h80v-36h-86q-31 -136 -193 -136zM278 50q83 0 131.5 55.5t48.5 154.5t-48.5 154t-131.5 55t-132 -55t-49 -154t49 -154.5t132 -55.5z" />
    <glyph glyph-name="Gcaron" unicode="&#x1e6;" horiz-adv-x="723" 
d="M68 0zM406 -8q-169 0 -253.5 94.5t-84.5 266.5q0 112 38.5 192.5t111 124t174.5 43.5q77 0 132.5 -24.5t101.5 -71.5l-22 -35q-33 32 -64.5 51.5t-66.5 29t-82 9.5q-133 0 -205.5 -84t-72.5 -236q0 -155 71.5 -237t221.5 -82q53 0 99.5 9t88.5 27v249h-194v39h234v-316
q-38 -21 -101.5 -35t-126.5 -14zM367 765l-121 170h37l108 -132l108 132h37l-121 -170h-48z" />
    <glyph glyph-name="gcaron" unicode="&#x1e7;" horiz-adv-x="587" 
d="M54 0zM298 -223q-61 0 -114.5 17.5t-96.5 52.5l20 34q49 -36 91.5 -50.5t100.5 -14.5q78 0 118.5 42.5t40.5 121.5v138q-22 -51 -69.5 -79t-109.5 -28q-69 0 -119.5 30.5t-78 86.5t-27.5 132q0 114 61 181t164 67q63 0 110.5 -29t69.5 -82l8 103h41q-3 -28 -5.5 -55
t-2.5 -53v-405q0 -210 -202 -210zM278 50q83 0 131.5 55.5t48.5 154.5t-48.5 154t-131.5 55t-132 -55t-49 -154t49 -154.5t132 -55.5zM272 549l-109 200h35l98 -161l98 161h35l-109 -200h-48z" />
    <glyph glyph-name="uni01E9" unicode="&#x1e9;" horiz-adv-x="482" 
d="M88 0zM88 0v736h42v-467h2l259 231h58l-272 -241l305 -259h-61l-289 245h-2v-245h-42zM224 765l-121 170h37l108 -132l108 132h37l-121 -170h-48z" />
    <glyph glyph-name="uni01EA" unicode="&#x1ea;" horiz-adv-x="759" 
d="M68 0zM379 -8q-98 0 -167.5 44t-106.5 125t-37 192q0 112 36.5 192.5t106 124t168.5 43.5q96 0 166 -43.5t108 -124t38 -191.5q0 -112 -38.5 -193t-108.5 -125t-165 -44zM379 33q125 0 196 84t71 236t-70.5 235.5t-196.5 83.5q-130 0 -198 -83.5t-68 -235.5
q0 -151 68 -235.5t198 -84.5zM419 -190q-41 0 -67.5 25t-26.5 67q0 38 23.5 72.5t66.5 56.5l21 -31q-15 -6 -31.5 -19t-28.5 -32t-12 -43q0 -31 17.5 -45.5t42.5 -14.5q26 0 53 13l13 -32q-24 -17 -71 -17z" />
    <glyph glyph-name="uni01EB" unicode="&#x1eb;" horiz-adv-x="553" 
d="M54 0zM276 -8q-102 0 -162 69t-60 189t60 189t162 69t162.5 -69t60.5 -189t-60.5 -189t-162.5 -69zM276 31q82 0 131 56.5t49 162.5t-49 162.5t-131 56.5t-130.5 -56.5t-48.5 -162.5t48.5 -162.5t130.5 -56.5zM315 -190q-41 0 -67.5 25t-26.5 67q0 38 23.5 72.5
t66.5 56.5l21 -31q-15 -6 -31.5 -19t-28.5 -32t-12 -43q0 -31 17.5 -45.5t42.5 -14.5q26 0 53 13l13 -32q-24 -17 -71 -17z" />
    <glyph glyph-name="Aringacute" unicode="&#x1fa;" horiz-adv-x="721" 
d="M34 0zM34 0l303 705h41l309 -705h-46l-85 195h-394l-83 -195h-45zM356 649l-176 -415h359l-181 415h-2zM358 760q-47 0 -79.5 32t-32.5 78t32.5 78t79.5 32q38 0 68 -22l76 71h61l-113 -95q20 -28 20 -64q0 -46 -32.5 -78t-79.5 -32zM358 792q35 0 56.5 22.5t21.5 55.5
t-21.5 55.5t-56.5 22.5q-34 0 -56 -22.5t-22 -55.5t22 -55.5t56 -22.5z" />
    <glyph glyph-name="aringacute" unicode="&#x1fb;" horiz-adv-x="539" 
d="M247 -7q-74 0 -123 42.5t-49 105.5q0 54 29.5 85.5t97 44.5t206.5 13v43q0 70 -28 105t-92 35q-91 0 -173 -55l-21 37q35 25 83 42t105 17q171 0 171 -183v-325h-45v91q-27 -52 -69.5 -75t-91.5 -23zM247 36q54 0 89.5 24.5t53.5 63t18 82.5v38q-86 0 -141.5 -4.5
t-86.5 -15.5t-43.5 -30.5t-12.5 -49.5q0 -36 17 -60t45 -36t61 -12zM274 547q-47 0 -79.5 32t-32.5 78t32.5 78t79.5 32q38 0 68 -22l76 71h61l-113 -95q20 -28 20 -64q0 -46 -32.5 -78t-79.5 -32zM274 579q35 0 56.5 22.5t21.5 55.5t-21.5 55.5t-56.5 22.5q-34 0 -56 -22.5
t-22 -55.5t22 -55.5t56 -22.5z" />
    <glyph glyph-name="AEacute" unicode="&#x1fc;" horiz-adv-x="996" 
d="M14 0zM14 0l423 705h502v-39h-397l28 -289h348v-39h-345l29 -299h337v-39h-376l-19 195h-362l-118 -195h-50zM461 665l-256 -431h336l-41 431h-39zM495 765l118 170h56l-136 -170h-38z" />
    <glyph glyph-name="aeacute" unicode="&#x1fd;" horiz-adv-x="890" 
d="M72 0zM247 -8q-50 0 -89.5 19.5t-62.5 53t-23 76.5q0 59 27 92t92 46.5t178 13.5h44v35q0 75 -31.5 108t-96.5 33q-48 0 -89 -13t-83 -43l-20 36q38 28 88 43.5t102 15.5q71 0 111 -28.5t54 -83.5q58 112 191 112q93 0 146.5 -61.5t53.5 -167.5v-24h-383
q1 -104 50.5 -164t139.5 -60q45 0 85.5 16t78.5 50l21 -33q-31 -34 -81.5 -53t-102.5 -19q-161 0 -213 136q-21 -64 -70 -100t-117 -36zM636 470q-77 0 -124.5 -45.5t-54.5 -131.5h343q-3 82 -45 129.5t-119 47.5zM250 30q48 0 84.5 22.5t57.5 63t21 93.5v47h-42
q-100 0 -155 -9.5t-76.5 -33.5t-21.5 -69q0 -51 35.5 -82.5t96.5 -31.5zM418 549l104 200h54l-122 -200h-36z" />
    <glyph glyph-name="Oslashacute" unicode="&#x1fe;" horiz-adv-x="759" 
d="M68 0zM68 0zM379 -8q-98 0 -167.5 44t-106.5 125t-37 192q0 112 36.5 192.5t106 124t168.5 43.5q96 0 166 -43.5t108 -124t38 -191.5q0 -112 -38.5 -193t-108.5 -125t-165 -44zM379 33q125 0 196 84t71 236t-70.5 235.5t-196.5 83.5q-130 0 -198 -83.5t-68 -235.5
q0 -151 68 -235.5t198 -84.5zM175 -35l-33 18l46 79l13 22l324 556l13 22l46 78l33 -18l-46 -79l-13 -22l-324 -556l-13 -22zM360 765l118 170h56l-136 -170h-38z" />
    <glyph glyph-name="oslashacute" unicode="&#x1ff;" horiz-adv-x="553" 
d="M54 0zM135 -31l-30 19l30 52q-39 33 -60 86.5t-21 123.5q0 120 60 189t162 69q64 0 113 -28l30 51l30 -19l-31 -53q39 -33 60 -86t21 -123q0 -120 -60.5 -189t-162.5 -69q-63 0 -112 28zM97 250q0 -59 15.5 -102.5t43.5 -71.5l213 369q-40 24 -93 24q-82 0 -130.5 -56.5
t-48.5 -162.5zM276 31q82 0 131 56.5t49 162.5q0 58 -15.5 101.5t-43.5 71.5l-213 -369q39 -23 92 -23zM258 549l104 200h54l-122 -200h-36z" />
    <glyph glyph-name="uni0200" unicode="&#x200;" horiz-adv-x="721" 
d="M34 0zM34 0l303 705h41l309 -705h-46l-85 195h-394l-83 -195h-45zM356 649l-176 -415h359l-181 415h-2zM399 765l-111 170h52l86 -170h-27zM290 765l-110 170h52l85 -170h-27z" />
    <glyph glyph-name="uni0201" unicode="&#x201;" horiz-adv-x="539" 
d="M247 -7q-74 0 -123 42.5t-49 105.5q0 54 29.5 85.5t97 44.5t206.5 13v43q0 70 -28 105t-92 35q-91 0 -173 -55l-21 37q35 25 83 42t105 17q171 0 171 -183v-325h-45v91q-27 -52 -69.5 -75t-91.5 -23zM247 36q54 0 89.5 24.5t53.5 63t18 82.5v38q-86 0 -141.5 -4.5
t-86.5 -15.5t-43.5 -30.5t-12.5 -49.5q0 -36 17 -60t45 -36t61 -12zM315 549l-79 200h48l58 -200h-27zM206 549l-79 200h48l58 -200h-27z" />
    <glyph glyph-name="uni0202" unicode="&#x202;" horiz-adv-x="721" 
d="M34 0zM34 0l303 705h41l309 -705h-46l-85 195h-394l-83 -195h-45zM356 649l-176 -415h359l-181 415h-2zM234 760l-33 4q7 78 50 122.5t107 44.5t107 -44.5t50 -122.5l-33 -4q-4 65 -37.5 100t-86.5 35t-86 -35t-38 -100z" />
    <glyph glyph-name="uni0203" unicode="&#x203;" horiz-adv-x="539" 
d="M247 -7q-74 0 -123 42.5t-49 105.5q0 54 29.5 85.5t97 44.5t206.5 13v43q0 70 -28 105t-92 35q-91 0 -173 -55l-21 37q35 25 83 42t105 17q171 0 171 -183v-325h-45v91q-27 -52 -69.5 -75t-91.5 -23zM247 36q54 0 89.5 24.5t53.5 63t18 82.5v38q-86 0 -141.5 -4.5
t-86.5 -15.5t-43.5 -30.5t-12.5 -49.5q0 -36 17 -60t45 -36t61 -12zM163 541l-33 4q5 88 43.5 137.5t100.5 49.5t100.5 -49.5t43.5 -137.5l-33 -4q-4 74 -32.5 114.5t-78.5 40.5q-49 0 -78 -40.5t-33 -114.5z" />
    <glyph glyph-name="uni0204" unicode="&#x204;" horiz-adv-x="582" 
d="M97 0zM97 0v705h428v-39h-386v-289h364v-39h-364v-299h386v-39h-428zM364 765l-111 170h52l86 -170h-27zM255 765l-110 170h52l85 -170h-27z" />
    <glyph glyph-name="uni0205" unicode="&#x205;" horiz-adv-x="541" 
d="M54 0zM294 -8q-110 0 -175 67.5t-65 188.5q0 80 29 138t81.5 90t120.5 32q97 0 151 -61t54 -168v-27h-393v-4q0 -106 52 -161.5t145 -55.5q47 0 88 15t79 51l21 -33q-31 -34 -82 -53t-106 -19zM284 470q-80 0 -128 -49.5t-57 -130.5h352q-3 84 -45.5 132t-121.5 48z
M326 549l-79 200h48l58 -200h-27zM217 549l-79 200h48l58 -200h-27z" />
    <glyph glyph-name="uni0206" unicode="&#x206;" horiz-adv-x="582" 
d="M97 0zM97 0v705h428v-39h-386v-289h364v-39h-364v-299h386v-39h-428zM199 760l-33 4q7 78 50 122.5t107 44.5t107 -44.5t50 -122.5l-33 -4q-4 65 -37.5 100t-86.5 35t-86 -35t-38 -100z" />
    <glyph glyph-name="uni0207" unicode="&#x207;" horiz-adv-x="541" 
d="M54 0zM294 -8q-110 0 -175 67.5t-65 188.5q0 80 29 138t81.5 90t120.5 32q97 0 151 -61t54 -168v-27h-393v-4q0 -106 52 -161.5t145 -55.5q47 0 88 15t79 51l21 -33q-31 -34 -82 -53t-106 -19zM284 470q-80 0 -128 -49.5t-57 -130.5h352q-3 84 -45.5 132t-121.5 48z
M174 541l-33 4q5 88 43.5 137.5t100.5 49.5t100.5 -49.5t43.5 -137.5l-33 -4q-4 74 -32.5 114.5t-78.5 40.5q-49 0 -78 -40.5t-33 -114.5z" />
    <glyph glyph-name="uni0208" unicode="&#x208;" horiz-adv-x="236" 
d="M0 0zM97 0v705h42v-705h-42zM159 765l-111 170h52l86 -170h-27zM50 765l-110 170h52l85 -170h-27z" />
    <glyph glyph-name="uni0209" unicode="&#x209;" horiz-adv-x="218" 
d="M0 0zM88 0v500h42v-500h-42zM150 549l-79 200h48l58 -200h-27zM41 549l-79 200h48l58 -200h-27z" />
    <glyph glyph-name="uni020A" unicode="&#x20a;" horiz-adv-x="236" 
d="M0 0zM97 0v705h42v-705h-42zM-6 760l-33 4q7 78 50 122.5t107 44.5t107 -44.5t50 -122.5l-33 -4q-4 65 -37.5 100t-86.5 35t-86 -35t-38 -100z" />
    <glyph glyph-name="uni020B" unicode="&#x20b;" horiz-adv-x="218" 
d="M0 0zM88 0v500h42v-500h-42zM-2 541l-33 4q5 88 43.5 137.5t100.5 49.5t100.5 -49.5t43.5 -137.5l-33 -4q-4 74 -32.5 114.5t-78.5 40.5q-49 0 -78 -40.5t-33 -114.5z" />
    <glyph glyph-name="uni020C" unicode="&#x20c;" horiz-adv-x="759" 
d="M68 0zM379 -8q-98 0 -167.5 44t-106.5 125t-37 192q0 112 36.5 192.5t106 124t168.5 43.5q96 0 166 -43.5t108 -124t38 -191.5q0 -112 -38.5 -193t-108.5 -125t-165 -44zM379 33q125 0 196 84t71 236t-70.5 235.5t-196.5 83.5q-130 0 -198 -83.5t-68 -235.5
q0 -151 68 -235.5t198 -84.5zM420 765l-111 170h52l86 -170h-27zM311 765l-110 170h52l85 -170h-27z" />
    <glyph glyph-name="uni020D" unicode="&#x20d;" horiz-adv-x="553" 
d="M54 0zM276 -8q-102 0 -162 69t-60 189t60 189t162 69t162.5 -69t60.5 -189t-60.5 -189t-162.5 -69zM276 31q82 0 131 56.5t49 162.5t-49 162.5t-131 56.5t-130.5 -56.5t-48.5 -162.5t48.5 -162.5t130.5 -56.5zM318 549l-79 200h48l58 -200h-27zM209 549l-79 200h48
l58 -200h-27z" />
    <glyph glyph-name="uni020E" unicode="&#x20e;" horiz-adv-x="759" 
d="M68 0zM379 -8q-98 0 -167.5 44t-106.5 125t-37 192q0 112 36.5 192.5t106 124t168.5 43.5q96 0 166 -43.5t108 -124t38 -191.5q0 -112 -38.5 -193t-108.5 -125t-165 -44zM379 33q125 0 196 84t71 236t-70.5 235.5t-196.5 83.5q-130 0 -198 -83.5t-68 -235.5
q0 -151 68 -235.5t198 -84.5zM255 760l-33 4q7 78 50 122.5t107 44.5t107 -44.5t50 -122.5l-33 -4q-4 65 -37.5 100t-86.5 35t-86 -35t-38 -100z" />
    <glyph glyph-name="uni020F" unicode="&#x20f;" horiz-adv-x="553" 
d="M54 0zM276 -8q-102 0 -162 69t-60 189t60 189t162 69t162.5 -69t60.5 -189t-60.5 -189t-162.5 -69zM276 31q82 0 131 56.5t49 162.5t-49 162.5t-131 56.5t-130.5 -56.5t-48.5 -162.5t48.5 -162.5t130.5 -56.5zM166 541l-33 4q5 88 43.5 137.5t100.5 49.5t100.5 -49.5
t43.5 -137.5l-33 -4q-4 74 -32.5 114.5t-78.5 40.5q-49 0 -78 -40.5t-33 -114.5z" />
    <glyph glyph-name="uni0210" unicode="&#x210;" horiz-adv-x="684" 
d="M97 0zM97 0v705h270q107 0 166 -50t59 -141q0 -74 -41.5 -120t-107.5 -59q30 -6 54 -25t39 -58l97 -252h-47l-88 236q-20 55 -58.5 70.5t-99.5 15.5h-201v-322h-42zM139 361h224q90 0 137 39.5t47 113.5t-47 113t-137 39h-224v-305zM379 765l-111 170h52l86 -170h-27z
M270 765l-110 170h52l85 -170h-27z" />
    <glyph glyph-name="uni0211" unicode="&#x211;" horiz-adv-x="336" 
d="M61 0zM86 0v386q0 59 -6 114h41l5 -87q21 48 66.5 71.5t91.5 23.5q12 0 23.5 -1t21.5 -4l-2 -39q-10 3 -21.5 4t-24.5 1q-46 0 -80.5 -23.5t-53.5 -58t-19 -67.5v-320h-42zM249 549l-79 200h48l58 -200h-27zM140 549l-79 200h48l58 -200h-27z" />
    <glyph glyph-name="uni0212" unicode="&#x212;" horiz-adv-x="684" 
d="M97 0zM97 0v705h270q107 0 166 -50t59 -141q0 -74 -41.5 -120t-107.5 -59q30 -6 54 -25t39 -58l97 -252h-47l-88 236q-20 55 -58.5 70.5t-99.5 15.5h-201v-322h-42zM139 361h224q90 0 137 39.5t47 113.5t-47 113t-137 39h-224v-305zM214 760l-33 4q7 78 50 122.5
t107 44.5t107 -44.5t50 -122.5l-33 -4q-4 65 -37.5 100t-86.5 35t-86 -35t-38 -100z" />
    <glyph glyph-name="uni0213" unicode="&#x213;" horiz-adv-x="336" 
d="M64 0zM86 0v386q0 59 -6 114h41l5 -87q21 48 66.5 71.5t91.5 23.5q12 0 23.5 -1t21.5 -4l-2 -39q-10 3 -21.5 4t-24.5 1q-46 0 -80.5 -23.5t-53.5 -58t-19 -67.5v-320h-42zM97 541l-33 4q5 88 43.5 137.5t100.5 49.5t100.5 -49.5t43.5 -137.5l-33 -4q-4 74 -32.5 114.5
t-78.5 40.5q-49 0 -78 -40.5t-33 -114.5z" />
    <glyph glyph-name="uni0214" unicode="&#x214;" horiz-adv-x="722" 
d="M92 0zM361 -8q-137 0 -203 71t-66 207v435h42v-429q0 -122 54.5 -182.5t172.5 -60.5q111 0 169 60.5t58 182.5v429h42v-435q0 -136 -69 -207t-200 -71zM402 765l-111 170h52l86 -170h-27zM293 765l-110 170h52l85 -170h-27z" />
    <glyph glyph-name="uni0215" unicode="&#x215;" horiz-adv-x="561" 
d="M85 0zM262 -8q-177 0 -177 191v317h42v-313q0 -81 33 -118.5t102 -37.5q77 0 123 49.5t46 131.5v288h42v-500h-41v93q-24 -49 -68.5 -75t-101.5 -26zM322 550l-79 200h48l58 -200h-27zM213 550l-79 200h48l58 -200h-27z" />
    <glyph glyph-name="uni0216" unicode="&#x216;" horiz-adv-x="722" 
d="M92 0zM361 -8q-137 0 -203 71t-66 207v435h42v-429q0 -122 54.5 -182.5t172.5 -60.5q111 0 169 60.5t58 182.5v429h42v-435q0 -136 -69 -207t-200 -71zM237 760l-33 4q7 78 50 122.5t107 44.5t107 -44.5t50 -122.5l-33 -4q-4 65 -37.5 100t-86.5 35t-86 -35t-38 -100z
" />
    <glyph glyph-name="uni0217" unicode="&#x217;" horiz-adv-x="561" 
d="M85 0zM262 -8q-177 0 -177 191v317h42v-313q0 -81 33 -118.5t102 -37.5q77 0 123 49.5t46 131.5v288h42v-500h-41v93q-24 -49 -68.5 -75t-101.5 -26zM170 542l-33 4q5 88 43.5 137.5t100.5 49.5t100.5 -49.5t43.5 -137.5l-33 -4q-4 74 -32.5 114.5t-78.5 40.5
q-49 0 -78 -40.5t-33 -114.5z" />
    <glyph glyph-name="uni0218" unicode="&#x218;" horiz-adv-x="604" 
d="M52 0zM313 -8q-85 0 -148 22.5t-113 65.5l21 36q37 -29 71 -47.5t74.5 -27t93.5 -8.5q98 0 148.5 39.5t50.5 105.5q0 56 -35.5 86t-121.5 47l-99 20q-97 20 -144 63t-47 119q0 60 31 105t86 70t128 25q151 0 240 -92l-20 -36q-49 47 -101 67t-119 20q-92 0 -146.5 -43
t-54.5 -116q0 -59 35 -91.5t113 -48.5l100 -20q104 -21 151.5 -60.5t47.5 -113.5q0 -83 -64.5 -135t-177.5 -52zM307 -259l-26 20q21 24 29 44.5t9 43.5h-35v65h70v-54q0 -70 -47 -119z" />
    <glyph glyph-name="uni0219" unicode="&#x219;" horiz-adv-x="492" 
d="M58 0zM244 -8q-56 0 -105.5 17.5t-80.5 48.5l21 33q36 -31 78 -45.5t89 -14.5q68 0 104 26t36 71q0 35 -23 56.5t-76 32.5l-87 19q-64 15 -95 48t-31 82q0 62 48 102t131 40q53 0 97.5 -18t71.5 -50l-22 -33q-60 62 -147 62q-65 0 -99.5 -28t-34.5 -74q0 -35 21.5 -57
t68.5 -33l87 -20q68 -16 101 -46.5t33 -80.5q0 -63 -51 -100.5t-135 -37.5zM232 -259l-26 20q21 24 29 44.5t9 43.5h-35v65h70v-54q0 -70 -47 -119z" />
    <glyph glyph-name="uni021A" unicode="&#x21a;" horiz-adv-x="590" 
d="M10 0zM272 0v666h-262v39h566v-39h-262v-666h-42zM283 -259l-26 20q21 24 29 44.5t9 43.5h-35v65h70v-54q0 -70 -47 -119z" />
    <glyph glyph-name="uni021B" unicode="&#x21b;" horiz-adv-x="324" 
d="M8 0zM234 -8q-61 0 -93.5 38.5t-32.5 117.5v316h-100v36h100v143l42 16v-159h152v-36h-152v-307q0 -66 20.5 -96t66.5 -30q20 0 36 4t27 9v-40q-26 -12 -66 -12zM199 -259l-26 20q21 24 29 44.5t9 43.5h-35v65h70v-54q0 -70 -47 -119z" />
    <glyph glyph-name="uni021F" unicode="&#x21f;" horiz-adv-x="570" 
d="M88 0zM88 0v736h42v-327q25 49 71.5 74t105.5 25q91 0 134.5 -47t43.5 -141v-320h-42v316q0 80 -32 116.5t-104 36.5q-80 0 -128.5 -49t-48.5 -130v-290h-42zM266 765l-121 170h37l108 -132l108 132h37l-121 -170h-48z" />
    <glyph glyph-name="uni0227" unicode="&#x227;" horiz-adv-x="539" 
d="M247 -7q-74 0 -123 42.5t-49 105.5q0 54 29.5 85.5t97 44.5t206.5 13v43q0 70 -28 105t-92 35q-91 0 -173 -55l-21 37q35 25 83 42t105 17q171 0 171 -183v-325h-45v91q-27 -52 -69.5 -75t-91.5 -23zM247 36q54 0 89.5 24.5t53.5 63t18 82.5v38q-86 0 -141.5 -4.5
t-86.5 -15.5t-43.5 -30.5t-12.5 -49.5q0 -36 17 -60t45 -36t61 -12zM242 619v63h64v-63h-64z" />
    <glyph glyph-name="uni0228" unicode="&#x228;" horiz-adv-x="582" 
d="M97 0zM97 0v705h428v-39h-386v-289h364v-39h-364v-299h386v-39h-428zM328 -190q-49 0 -78 18l9 34q19 -9 34 -12.5t39 -3.5q27 0 44.5 11t17.5 32q0 32 -39 32q-11 0 -22.5 -2t-28.5 -8l-15 13l15 96h38l-12 -69q15 3 26 3q32 0 55 -17t23 -48q0 -35 -29.5 -57t-76.5 -22
z" />
    <glyph glyph-name="uni022A" unicode="&#x22a;" horiz-adv-x="759" 
d="M68 0zM379 -8q-98 0 -167.5 44t-106.5 125t-37 192q0 112 36.5 192.5t106 124t168.5 43.5q96 0 166 -43.5t108 -124t38 -191.5q0 -112 -38.5 -193t-108.5 -125t-165 -44zM379 33q125 0 196 84t71 236t-70.5 235.5t-196.5 83.5q-130 0 -198 -83.5t-68 -235.5
q0 -151 68 -235.5t198 -84.5zM239 927v38h280v-38h-280zM268 806v60h61v-60h-61zM429 806v60h61v-60h-61z" />
    <glyph glyph-name="uni022B" unicode="&#x22b;" horiz-adv-x="553" 
d="M54 0zM276 -8q-102 0 -162 69t-60 189t60 189t162 69t162.5 -69t60.5 -189t-60.5 -189t-162.5 -69zM276 31q82 0 131 56.5t49 162.5t-49 162.5t-131 56.5t-130.5 -56.5t-48.5 -162.5t48.5 -162.5t130.5 -56.5zM137 706v38h280v-38h-280zM166 585v60h61v-60h-61zM327 585
v60h61v-60h-61z" />
    <glyph glyph-name="uni022C" unicode="&#x22c;" horiz-adv-x="759" 
d="M68 0zM379 -8q-98 0 -167.5 44t-106.5 125t-37 192q0 112 36.5 192.5t106 124t168.5 43.5q96 0 166 -43.5t108 -124t38 -191.5q0 -112 -38.5 -193t-108.5 -125t-165 -44zM379 33q125 0 196 84t71 236t-70.5 235.5t-196.5 83.5q-130 0 -198 -83.5t-68 -235.5
q0 -151 68 -235.5t198 -84.5zM239 927v38h280v-38h-280zM443 768q-18 0 -34.5 8t-39.5 26q-20 17 -31.5 21.5t-21.5 4.5q-22 0 -33.5 -14.5t-16.5 -47.5l-33 2q5 48 27 72t56 24q17 0 32 -7t37 -24t34 -23t23 -6q23 0 34 14.5t16 47.5l33 -2q-4 -48 -26 -72t-56 -24z" />
    <glyph glyph-name="uni022D" unicode="&#x22d;" horiz-adv-x="553" 
d="M54 0zM276 -8q-102 0 -162 69t-60 189t60 189t162 69t162.5 -69t60.5 -189t-60.5 -189t-162.5 -69zM276 31q82 0 131 56.5t49 162.5t-49 162.5t-131 56.5t-130.5 -56.5t-48.5 -162.5t48.5 -162.5t130.5 -56.5zM137 706v38h280v-38h-280zM164 545l-33 2q5 48 27 72t56 24
q17 0 33.5 -7.5t38.5 -25.5q19 -15 30.5 -21t23.5 -6q23 0 34 14.5t16 47.5l33 -2q-4 -48 -26 -72t-56 -24q-18 0 -34.5 8t-38.5 25q-34 27 -54 27q-22 0 -33.5 -14.5t-16.5 -47.5z" />
    <glyph glyph-name="uni0230" unicode="&#x230;" horiz-adv-x="759" 
d="M68 0zM379 -8q-98 0 -167.5 44t-106.5 125t-37 192q0 112 36.5 192.5t106 124t168.5 43.5q96 0 166 -43.5t108 -124t38 -191.5q0 -112 -38.5 -193t-108.5 -125t-165 -44zM379 33q125 0 196 84t71 236t-70.5 235.5t-196.5 83.5q-130 0 -198 -83.5t-68 -235.5
q0 -151 68 -235.5t198 -84.5zM239 927v38h280v-38h-280zM349 806v60h61v-60h-61z" />
    <glyph glyph-name="uni0231" unicode="&#x231;" horiz-adv-x="553" 
d="M54 0zM276 -8q-102 0 -162 69t-60 189t60 189t162 69t162.5 -69t60.5 -189t-60.5 -189t-162.5 -69zM276 31q82 0 131 56.5t49 162.5t-49 162.5t-131 56.5t-130.5 -56.5t-48.5 -162.5t48.5 -162.5t130.5 -56.5zM137 706v38h280v-38h-280zM247 585v60h61v-60h-61z" />
    <glyph glyph-name="uni0232" unicode="&#x232;" horiz-adv-x="587" 
d="M1 0zM272 0v304l-271 401h49l245 -367l244 367h47l-272 -402v-303h-42zM139 822v38h310v-38h-310z" />
    <glyph glyph-name="uni0233" unicode="&#x233;" horiz-adv-x="520" 
d="M24 0zM60 -227l-10 39q47 11 77.5 27.5t51.5 42.5t38 65l21 48l-214 505h48l189 -456l187 456h48l-233 -554q-24 -57 -53 -91.5t-66 -53t-84 -28.5zM119 633v38h280v-38h-280z" />
    <glyph glyph-name="uni0237" unicode="&#x237;" horiz-adv-x="218" 
d="M9 -218q-10 0 -29.5 3.5t-30.5 7.5v40q11 -4 28 -8t30 -4q47 0 68 31t21 97v551h42v-560q0 -158 -129 -158z" />
    <glyph glyph-name="uni0253" unicode="&#x253;" horiz-adv-x="583" 
d="M309 -8q-63 0 -109.5 28.5t-69.5 79.5v-100h-42v594q0 74 38 112t108 38q27 0 48 -7l-6 -37q-13 4 -21 5t-19 1q-52 0 -79 -28.5t-27 -81.5v-196q23 51 69.5 79.5t109.5 28.5q101 0 160.5 -68.5t59.5 -189.5t-59.5 -189.5t-160.5 -68.5zM308 31q82 0 130 56.5t48 162.5
t-48 162.5t-130 56.5t-130.5 -56.5t-48.5 -162.5t48.5 -162.5t130.5 -56.5z" />
    <glyph glyph-name="uni0257" unicode="&#x257;" horiz-adv-x="583" 
d="M274 -8q-101 0 -160.5 68.5t-59.5 189.5t59.5 189.5t160.5 68.5q63 0 109.5 -28.5t69.5 -79.5v194q0 74 37.5 112t108.5 38q26 0 48 -7l-6 -37q-14 4 -22 5t-18 1q-53 0 -79.5 -28.5t-26.5 -81.5v-596h-42v100q-23 -51 -69.5 -79.5t-109.5 -28.5zM275 31q82 0 130.5 56.5
t48.5 162.5t-48.5 162.5t-130.5 56.5t-130 -56.5t-48 -162.5t48 -162.5t130 -56.5z" />
    <glyph glyph-name="uni0259" unicode="&#x259;" horiz-adv-x="541" 
d="M256 -8q-97 0 -151 61.5t-54 167.5v27h393v4q0 106 -52 161.5t-145 55.5q-46 0 -87.5 -15t-79.5 -51l-21 33q32 35 82.5 53.5t105.5 18.5q110 0 175 -67t65 -189q0 -79 -29 -137.5t-81 -90.5t-121 -32zM257 30q80 0 128 49.5t57 130.5h-352q3 -84 45.5 -132t121.5 -48z
" />
    <glyph glyph-name="uni02B9" unicode="&#x2b9;" horiz-adv-x="202" 
d="M75 440zM88 440l-13 265h52l-11 -265h-28z" />
    <glyph glyph-name="uni02BA" unicode="&#x2ba;" horiz-adv-x="342" 
d="M75 440zM88 440l-13 265h52l-11 -265h-28zM228 440l-13 265h52l-11 -265h-28z" />
    <glyph glyph-name="uni02BB" unicode="&#x2bb;" horiz-adv-x="500" 
d="M215 570v55q0 32 9.5 60t34.5 53l26 -20q-20 -22 -26 -41t-7 -37h32v-70h-69z" />
    <glyph glyph-name="uni02BC" unicode="&#x2bc;" horiz-adv-x="300" 
d="M141 575l-26 20q20 22 26 41t7 37h-32v70h69v-55q0 -31 -9 -59.5t-35 -53.5z" />
    <glyph glyph-name="uni02BE" unicode="&#x2be;" horiz-adv-x="500" 
d="M250 556v35q26 0 41.5 17.5t15.5 41.5q0 25 -15.5 42t-41.5 17v36q42 0 69.5 -27.5t27.5 -67.5t-27.5 -67t-69.5 -27z" />
    <glyph glyph-name="uni02BF" unicode="&#x2bf;" horiz-adv-x="500" 
d="M250 556q-42 0 -69.5 27t-27.5 67t27.5 67.5t69.5 27.5v-36q-25 0 -41 -17t-16 -42q0 -24 16 -41.5t41 -17.5v-35z" />
    <glyph glyph-name="circumflex" unicode="&#x2c6;" horiz-adv-x="500" 
d="M117 549zM117 549l109 200h48l109 -200h-35l-98 161l-98 -161h-35z" />
    <glyph glyph-name="caron" unicode="&#x2c7;" horiz-adv-x="500" 
d="M117 549zM226 549l-109 200h35l98 -161l98 161h35l-109 -200h-48z" />
    <glyph glyph-name="uni02C8" unicode="&#x2c8;" horiz-adv-x="500" 
d="M229 596v198h42v-198h-42z" />
    <glyph glyph-name="uni02C9" unicode="&#x2c9;" horiz-adv-x="500" 
d="M110 633v38h280v-38h-280z" />
    <glyph glyph-name="uni02CA" unicode="&#x2ca;" horiz-adv-x="500" 
d="M232 549l104 200h54l-122 -200h-36z" />
    <glyph glyph-name="uni02CB" unicode="&#x2cb;" horiz-adv-x="500" 
d="M232 549l-122 200h54l104 -200h-36z" />
    <glyph glyph-name="uni02CC" unicode="&#x2cc;" horiz-adv-x="500" 
d="M229 -270v198h42v-198h-42z" />
    <glyph glyph-name="breve" unicode="&#x2d8;" horiz-adv-x="500" 
d="M106 547zM250 547q-62 0 -100.5 49.5t-43.5 137.5l33 4q4 -74 33 -114.5t78 -40.5q50 0 78.5 40.5t32.5 114.5l33 -4q-5 -88 -43.5 -137.5t-100.5 -49.5z" />
    <glyph glyph-name="dotaccent" unicode="&#x2d9;" horiz-adv-x="500" 
d="M218 619zM218 619v63h64v-63h-64z" />
    <glyph glyph-name="ring" unicode="&#x2da;" horiz-adv-x="500" 
d="M138 547zM250 547q-47 0 -79.5 32t-32.5 78t32.5 78t79.5 32t79.5 -32t32.5 -78t-32.5 -78t-79.5 -32zM250 579q35 0 56.5 22.5t21.5 55.5t-21.5 55.5t-56.5 22.5q-34 0 -56 -22.5t-22 -55.5t22 -55.5t56 -22.5z" />
    <glyph glyph-name="ogonek" unicode="&#x2db;" horiz-adv-x="500" 
d="M139 0zM233 -190q-41 0 -67.5 25t-26.5 67q0 38 23.5 72.5t66.5 56.5l21 -31q-15 -6 -31.5 -19t-28.5 -32t-12 -43q0 -31 17.5 -45.5t42.5 -14.5q26 0 53 13l13 -32q-24 -17 -71 -17z" />
    <glyph glyph-name="tilde" unicode="&#x2dc;" horiz-adv-x="500" 
d="M82 595zM114 595l-32 2q6 58 31 89.5t65 31.5q21 0 39.5 -11.5t42.5 -35.5q22 -22 35.5 -30t26.5 -8q52 0 64 87l32 -2q-6 -58 -31 -89.5t-64 -31.5q-20 0 -38.5 11.5t-44.5 35.5q-22 21 -35 29.5t-27 8.5q-52 0 -64 -87z" />
    <glyph glyph-name="hungarumlaut" unicode="&#x2dd;" horiz-adv-x="500" 
d="M182 549zM291 549l58 200h48l-79 -200h-27zM182 549l58 200h48l-79 -200h-27z" />
    <glyph glyph-name="gravecomb" unicode="&#x300;" 
d="M-18 549l-122 200h54l104 -200h-36z" />
    <glyph glyph-name="acutecomb" unicode="&#x301;" 
d="M-18 549l104 200h54l-122 -200h-36z" />
    <glyph glyph-name="uni0302" unicode="&#x302;" 
d="M-133 549l109 200h48l109 -200h-35l-98 161l-98 -161h-35z" />
    <glyph glyph-name="tildecomb" unicode="&#x303;" 
d="M-136 595l-32 2q6 58 31 89.5t65 31.5q21 0 39.5 -11.5t42.5 -35.5q22 -22 35.5 -30t26.5 -8q52 0 64 87l32 -2q-6 -58 -31 -89.5t-64 -31.5q-20 0 -38.5 11.5t-44.5 35.5q-22 21 -35 29.5t-27 8.5q-52 0 -64 -87z" />
    <glyph glyph-name="uni0304" unicode="&#x304;" 
d="M-140 633v38h280v-38h-280z" />
    <glyph glyph-name="uni0306" unicode="&#x306;" 
d="M0 547q-62 0 -100.5 49.5t-43.5 137.5l33 4q4 -74 33 -114.5t78 -40.5q50 0 78.5 40.5t32.5 114.5l33 -4q-5 -88 -43.5 -137.5t-100.5 -49.5z" />
    <glyph glyph-name="uni0307" unicode="&#x307;" 
d="M-32 619v63h64v-63h-64z" />
    <glyph glyph-name="uni0308" unicode="&#x308;" 
d="M50 620v60h61v-60h-61zM-111 620v60h61v-60h-61z" />
    <glyph glyph-name="hookabovecomb" unicode="&#x309;" 
d="M-18 549v20q0 25 10.5 40.5t23.5 27t23.5 23t10.5 27.5q0 31 -52 31q-15 0 -30.5 -3.5t-34.5 -12.5l-9 32q16 11 36 15.5t42 4.5q42 0 65.5 -17t23.5 -48q0 -25 -11 -39.5t-25.5 -25.5t-25.5 -24.5t-11 -35.5v-15h-36z" />
    <glyph glyph-name="uni030A" unicode="&#x30a;" 
d="M0 547q-47 0 -79.5 32t-32.5 78t32.5 78t79.5 32t79.5 -32t32.5 -78t-32.5 -78t-79.5 -32zM0 579q35 0 56.5 22.5t21.5 55.5t-21.5 55.5t-56.5 22.5q-34 0 -56 -22.5t-22 -55.5t22 -55.5t56 -22.5z" />
    <glyph glyph-name="uni030B" unicode="&#x30b;" 
d="M41 549l58 200h48l-79 -200h-27zM-68 549l58 200h48l-79 -200h-27z" />
    <glyph glyph-name="uni030C" unicode="&#x30c;" 
d="M-24 549l-109 200h35l98 -161l98 161h35l-109 -200h-48z" />
    <glyph glyph-name="uni030F" unicode="&#x30f;" 
d="M41 549l-79 200h48l58 -200h-27zM-68 549l-79 200h48l58 -200h-27z" />
    <glyph glyph-name="uni0311" unicode="&#x311;" 
d="M-111 547l-33 4q5 88 43.5 137.5t100.5 49.5t100.5 -49.5t43.5 -137.5l-33 -4q-4 74 -32.5 114.5t-78.5 40.5q-49 0 -78 -40.5t-33 -114.5z" />
    <glyph glyph-name="uni0312" unicode="&#x312;" 
d="M-35 570v54q0 70 47 119l26 -20q-21 -24 -29 -44.5t-9 -43.5h35v-65h-70z" />
    <glyph glyph-name="uni031B" unicode="&#x31b;" 
d="M14 446l-15 13v25q73 1 96.5 31.5t23.5 88.5v12h40v-20q0 -70 -37 -108.5t-108 -41.5z" />
    <glyph glyph-name="dotbelowcomb" unicode="&#x323;" 
d="M-32 -172v63h64v-63h-64z" />
    <glyph glyph-name="uni0324" unicode="&#x324;" 
d="M50 -171v60h61v-60h-61zM-111 -171v60h61v-60h-61z" />
    <glyph glyph-name="uni0326" unicode="&#x326;" 
d="M-12 -259l-26 20q21 24 29 44.5t9 43.5h-35v65h70v-54q0 -70 -47 -119z" />
    <glyph glyph-name="uni0327" unicode="&#x327;" 
d="M5 -190q-49 0 -78 18l9 34q19 -9 34 -12.5t39 -3.5q27 0 44.5 11t17.5 32q0 32 -39 32q-11 0 -22.5 -2t-28.5 -8l-15 13l15 96h38l-12 -69q15 3 26 3q32 0 55 -17t23 -48q0 -35 -29.5 -57t-76.5 -22z" />
    <glyph glyph-name="uni0328" unicode="&#x328;" 
d="M-17 -190q-41 0 -67.5 25t-26.5 67q0 38 23.5 72.5t66.5 56.5l21 -31q-15 -6 -31.5 -19t-28.5 -32t-12 -43q0 -31 17.5 -45.5t42.5 -14.5q26 0 53 13l13 -32q-24 -17 -71 -17z" />
    <glyph glyph-name="uni032E" unicode="&#x32e;" 
d="M0 -215q-62 0 -100.5 39t-43.5 108l33 4q4 -55 33 -85t78 -30q50 0 78.5 30t32.5 85l33 -4q-5 -69 -43.5 -108t-100.5 -39z" />
    <glyph glyph-name="uni0331" unicode="&#x331;" 
d="M-140 -148v38h280v-38h-280z" />
    <glyph glyph-name="uni0335" unicode="&#x335;" 
d="M-167 522v36h334v-36h-334z" />
    <glyph glyph-name="uni0337" unicode="&#x337;" 
d="M-104 274l-20 33l228 133l20 -33z" />
    <glyph glyph-name="uni0338" unicode="&#x338;" 
d="M280 -36l-30 19l314 543l30 -19z" />
    <glyph glyph-name="uni0394" unicode="&#x394;" horiz-adv-x="712" 
d="M35 0v29l301 676h40l301 -676v-29h-642zM355 649l-271 -610h544l-271 610h-2z" />
    <glyph glyph-name="Sigma" unicode="&#x3a3;" horiz-adv-x="600" 
d="M52 -180v31l294 412l-294 411v31h496v-39h-440l276 -387v-33l-276 -387h440v-39h-496z" />
    <glyph glyph-name="uni03A9" unicode="&#x3a9;" horiz-adv-x="768" 
d="M38 0v38h225q-209 138 -209 356q0 99 40 170.5t114.5 110t175.5 38.5q102 0 176 -38.5t114 -110t40 -170.5q0 -218 -209 -356h225v-38h-283v36q115 76 168.5 164t53.5 194q0 133 -75 205.5t-210 72.5t-210 -73t-75 -205q0 -106 54 -194t168 -164v-36h-283z" />
    <glyph glyph-name="uni03BC" unicode="&#x3bc;" horiz-adv-x="561" 
d="M85 -216v716h42v-313q0 -81 33 -118.5t102 -37.5q77 0 123 49.5t46 131.5v288h42v-500h-41v93q-24 -49 -68.5 -75t-101.5 -26q-44 0 -78 12.5t-57 46.5v-267h-42z" />
    <glyph glyph-name="pi" unicode="&#x3c0;" horiz-adv-x="570" 
d="M34 0q73 183 76 464h-105v36h525v-36h-131v-293q0 -124 126 -135l42 -2l-4 -40l-44 3q-77 5 -119.5 50t-42.5 124v293h-205q-1 -148 -19.5 -262t-51.5 -202h-47z" />
    <glyph glyph-name="uni0400" unicode="&#x400;" horiz-adv-x="582" 
d="M97 0zM97 0zM97 0v705h428v-39h-386v-289h364v-39h-364v-299h386v-39h-428zM311 765l-136 170h56l118 -170h-38z" />
    <glyph glyph-name="uni0401" unicode="&#x401;" horiz-adv-x="582" 
d="M97 0zM97 0zM97 0v705h428v-39h-386v-289h364v-39h-364v-299h386v-39h-428zM380 820v60h61v-60h-61zM219 820v60h61v-60h-61z" />
    <glyph glyph-name="uni0402" unicode="&#x402;" horiz-adv-x="832" 
d="M576 -188q-33 0 -63.5 6t-50.5 15l13 37q39 -19 101 -19q152 0 152 190v101q0 125 -55 185.5t-174 60.5q-111 0 -185 -46v-342h-42v666h-262v39h566v-39h-262v-279q32 20 82 31t105 11q269 0 269 -281v-107q0 -112 -50 -170.5t-144 -58.5z" />
    <glyph glyph-name="uni0403" unicode="&#x403;" horiz-adv-x="541" 
d="M97 0zM97 0v705h431v-39h-389v-666h-42zM262 765l118 170h56l-136 -170h-38z" />
    <glyph glyph-name="uni0404" unicode="&#x404;" horiz-adv-x="684" 
d="M385 -8q-102 0 -172.5 43.5t-107.5 124.5t-37 193t37 192.5t107.5 124t172.5 43.5q76 0 135 -24.5t104 -71.5l-22 -35q-49 47 -99 68.5t-119 21.5q-130 0 -197.5 -78t-73.5 -216h398v-40h-398q4 -144 72 -224.5t199 -80.5q69 0 119 21.5t99 68.5l22 -35
q-45 -47 -104 -71.5t-135 -24.5z" />
    <glyph glyph-name="uni0405" unicode="&#x405;" horiz-adv-x="604" 
d="M52 0zM313 -8q-85 0 -148 22.5t-113 65.5l21 36q37 -29 71 -47.5t74.5 -27t93.5 -8.5q98 0 148.5 39.5t50.5 105.5q0 56 -35.5 86t-121.5 47l-99 20q-97 20 -144 63t-47 119q0 60 31 105t86 70t128 25q151 0 240 -92l-20 -36q-49 47 -101 67t-119 20q-92 0 -146.5 -43
t-54.5 -116q0 -59 35 -91.5t113 -48.5l100 -20q104 -21 151.5 -60.5t47.5 -113.5q0 -83 -64.5 -135t-177.5 -52z" />
    <glyph glyph-name="uni0406" unicode="&#x406;" horiz-adv-x="236" 
d="M97 0zM97 0v705h42v-705h-42z" />
    <glyph glyph-name="uni0407" unicode="&#x407;" horiz-adv-x="236" 
d="M7 0zM97 0v705h42v-705h-42zM168 820v60h61v-60h-61zM7 820v60h61v-60h-61z" />
    <glyph glyph-name="uni0408" unicode="&#x408;" horiz-adv-x="300" 
d="M0 0zM70 -186q-16 0 -33.5 1.5t-36.5 6.5v39q38 -9 64 -9q46 0 71.5 30t25.5 94v729h42v-731q0 -76 -33.5 -118t-99.5 -42z" />
    <glyph glyph-name="uni0409" unicode="&#x409;" horiz-adv-x="1162" 
d="M37 -13l-17 38q42 21 75.5 51t57.5 81t36.5 133t12.5 205v210h433v-326h239q113 0 173.5 -46.5t60.5 -141.5t-60.5 -143t-173.5 -48h-281v666h-351v-181q0 -117 -13 -200.5t-39 -141t-64 -95t-89 -61.5zM635 39h238q191 0 191 151q0 150 -191 150h-238v-301z" />
    <glyph glyph-name="uni040A" unicode="&#x40a;" horiz-adv-x="1188" 
d="M97 0v705h41v-328h481v328h42v-326h239q113 0 173.5 -46.5t60.5 -141.5t-60.5 -143t-173.5 -48h-281v339h-481v-339h-41zM661 39h238q190 0 190 151q0 150 -190 150h-238v-301z" />
    <glyph glyph-name="uni040B" unicode="&#x40b;" horiz-adv-x="849" 
d="M272 0v666h-262v39h566v-39h-262v-279q36 21 89.5 31.5t107.5 10.5q136 0 206 -70.5t70 -210.5v-148h-42v142q0 127 -58.5 187t-176.5 60q-53 0 -102.5 -10t-93.5 -36v-343h-42z" />
    <glyph glyph-name="uni040C" unicode="&#x40c;" horiz-adv-x="627" 
d="M97 0zM97 0v705h41v-327h152l230 327h50l-235 -332q50 -10 87.5 -43.5t66.5 -90.5l121 -239h-46l-104 210q-34 70 -77.5 99.5t-105.5 29.5h-139v-339h-41zM304 765l118 170h56l-136 -170h-38z" />
    <glyph glyph-name="uni040D" unicode="&#x40d;" horiz-adv-x="739" 
d="M97 0zM97 0v705h39v-635l470 635h36v-705h-39v638l-472 -638h-34zM353 765l-136 170h56l118 -170h-38z" />
    <glyph glyph-name="uni040E" unicode="&#x40e;" horiz-adv-x="648" 
d="M10 0zM220 0l113 210l-323 495h48l297 -456l243 456h45l-377 -705h-46zM325 760q-56 0 -108 28t-78 96l33 14q21 -52 59 -77t93 -25q56 0 93.5 21.5t68.5 79.5l32 -13q-34 -73 -85 -98.5t-108 -25.5z" />
    <glyph glyph-name="uni040F" unicode="&#x40f;" horiz-adv-x="759" 
d="M359 -150v150h-262v705h42v-666h481v666h42v-705h-262v-150h-41z" />
    <glyph glyph-name="uni0410" unicode="&#x410;" horiz-adv-x="721" 
d="M34 0zM34 0l303 705h41l309 -705h-46l-85 195h-394l-83 -195h-45zM356 649l-176 -415h359l-181 415h-2z" />
    <glyph glyph-name="uni0411" unicode="&#x411;" horiz-adv-x="666" 
d="M97 0v705h449v-39h-407v-287h239q113 0 173.5 -46.5t60.5 -141.5t-60.5 -143t-173.5 -48h-281zM139 39h238q190 0 190 151q0 150 -190 150h-238v-301z" />
    <glyph glyph-name="uni0412" unicode="&#x412;" horiz-adv-x="672" 
d="M97 0zM97 0v705h257q111 0 171 -47.5t60 -136.5q0 -60 -32 -101t-89 -60q64 -14 100.5 -57.5t36.5 -111.5q0 -94 -60 -142.5t-173 -48.5h-271zM139 376h213q93 0 141 37.5t48 107.5q0 71 -48 108t-141 37h-213v-290zM139 39h228q86 0 138 34t52 115q0 82 -52 115.5
t-138 33.5h-228v-298z" />
    <glyph glyph-name="uni0413" unicode="&#x413;" horiz-adv-x="541" 
d="M97 0v705h431v-39h-389v-666h-42z" />
    <glyph glyph-name="uni0414" unicode="&#x414;" horiz-adv-x="785" 
d="M19 -150v189h71q59 71 86.5 189.5t27.5 296.5v180h454v-666h104v-189h-41v150h-661v-150h-41zM137 39h479v627h-372v-141q0 -177 -25.5 -293t-81.5 -193z" />
    <glyph glyph-name="uni0415" unicode="&#x415;" horiz-adv-x="582" 
d="M97 0zM97 0v705h428v-39h-386v-289h364v-39h-364v-299h386v-39h-428z" />
    <glyph glyph-name="uni0416" unicode="&#x416;" horiz-adv-x="957" 
d="M17 0l119 239q28 57 67 91t90 43l-235 332h49l230 -327h121v327h42v-327h120l231 327h49l-235 -332q50 -9 88 -43t66 -91l121 -239h-45l-105 210q-34 70 -77.5 99.5t-105.5 29.5h-107v-339h-42v339h-107q-64 0 -108 -30t-77 -99l-103 -210h-46z" />
    <glyph glyph-name="uni0417" unicode="&#x417;" horiz-adv-x="662" 
d="M327 -8q-92 0 -164.5 26t-114.5 70l21 36q53 -47 114 -69t145 -22q113 0 166 39.5t53 115.5q0 77 -48 113t-144 36h-179v39h166q92 0 140.5 38t48.5 108q0 71 -51.5 110.5t-151.5 39.5q-70 0 -130 -21t-111 -67l-22 36q47 46 117 69.5t145 23.5q122 0 185 -51t63 -140
q0 -59 -32.5 -101t-89.5 -61q64 -14 101 -58t37 -111q0 -94 -65 -146.5t-199 -52.5z" />
    <glyph glyph-name="uni0418" unicode="&#x418;" horiz-adv-x="739" 
d="M97 0v705h39v-635l470 635h36v-705h-39v638l-472 -638h-34z" />
    <glyph glyph-name="uni0419" unicode="&#x419;" horiz-adv-x="739" 
d="M97 0zM97 0v705h39v-635l470 635h36v-705h-39v638l-472 -638h-34zM372 760q-56 0 -108 28t-78 96l33 14q21 -52 59 -77t93 -25q56 0 93.5 21.5t68.5 79.5l32 -13q-34 -73 -85 -98.5t-108 -25.5z" />
    <glyph glyph-name="uni041A" unicode="&#x41a;" horiz-adv-x="627" 
d="M97 0v705h41v-327h152l230 327h50l-235 -332q50 -10 87.5 -43.5t66.5 -90.5l121 -239h-46l-104 210q-34 70 -77.5 99.5t-105.5 29.5h-139v-339h-41z" />
    <glyph glyph-name="uni041B" unicode="&#x41b;" horiz-adv-x="753" 
d="M37 -13l-17 38q42 21 75.5 51t57.5 81t36.5 133t12.5 205v210h454v-705h-42v666h-372v-181q0 -117 -13 -200.5t-39 -141t-64 -95t-89 -61.5z" />
    <glyph glyph-name="uni041C" unicode="&#x41c;" horiz-adv-x="848" 
d="M97 0zM97 0v705h37l290 -656l291 656h36v-705h-39v610l-270 -610h-35l-271 611v-611h-39z" />
    <glyph glyph-name="uni041D" unicode="&#x41d;" horiz-adv-x="759" 
d="M97 0zM97 0v705h42v-328h481v328h42v-705h-42v338h-481v-338h-42z" />
    <glyph glyph-name="uni041E" unicode="&#x41e;" horiz-adv-x="759" 
d="M68 0zM379 -8q-98 0 -167.5 44t-106.5 125t-37 192q0 112 36.5 192.5t106 124t168.5 43.5q96 0 166 -43.5t108 -124t38 -191.5q0 -112 -38.5 -193t-108.5 -125t-165 -44zM379 33q125 0 196 84t71 236t-70.5 235.5t-196.5 83.5q-130 0 -198 -83.5t-68 -235.5
q0 -151 68 -235.5t198 -84.5z" />
    <glyph glyph-name="uni041F" unicode="&#x41f;" horiz-adv-x="759" 
d="M97 0v705h565v-705h-42v666h-482v-666h-41z" />
    <glyph glyph-name="uni0420" unicode="&#x420;" horiz-adv-x="638" 
d="M97 0zM97 0v705h263q107 0 166 -51t59 -143q0 -91 -59 -142.5t-166 -51.5h-221v-317h-42zM139 356h220q89 0 135 40.5t46 114.5t-46 114.5t-135 40.5h-220v-310z" />
    <glyph glyph-name="uni0421" unicode="&#x421;" horiz-adv-x="684" 
d="M68 0zM385 -8q-102 0 -172.5 43.5t-107.5 124.5t-37 193t37 192.5t107.5 124t172.5 43.5q77 0 135.5 -24.5t103.5 -71.5l-22 -35q-49 47 -99.5 68.5t-118.5 21.5q-133 0 -202 -83.5t-69 -235.5t69 -236t202 -84q68 0 118.5 21.5t99.5 68.5l22 -35q-45 -47 -104 -71.5
t-135 -24.5z" />
    <glyph glyph-name="uni0422" unicode="&#x422;" horiz-adv-x="590" 
d="M10 0zM272 0v666h-262v39h566v-39h-262v-666h-42z" />
    <glyph glyph-name="uni0423" unicode="&#x423;" horiz-adv-x="648" 
d="M220 0l113 210l-323 495h48l297 -456l243 456h45l-377 -705h-46z" />
    <glyph glyph-name="uni0424" unicode="&#x424;" horiz-adv-x="834" 
d="M396 -20v77h-12q-99 0 -169.5 37.5t-108.5 105t-38 158.5q0 139 82.5 219.5t233.5 80.5h12v72h42v-72h12q152 0 234 -80.5t82 -219.5q0 -91 -37.5 -158.5t-108.5 -105t-170 -37.5h-12v-77h-42zM461 619h-23v-523h23q80 0 138.5 32.5t90 91.5t31.5 138q0 123 -69 192
t-191 69zM373 96h23v523h-23q-122 0 -191 -69t-69 -192q0 -79 31.5 -138t90 -91.5t138.5 -32.5z" />
    <glyph glyph-name="uni0425" unicode="&#x425;" horiz-adv-x="636" 
d="M24 0zM24 0l270 362l-255 343h51l230 -310l226 310h51l-254 -343l269 -362h-51l-243 328l-243 -328h-51z" />
    <glyph glyph-name="uni0426" unicode="&#x426;" horiz-adv-x="788" 
d="M724 -150v150h-627v705h41v-666h482v666h42v-666h103v-189h-41z" />
    <glyph glyph-name="uni0427" unicode="&#x427;" horiz-adv-x="674" 
d="M535 0v318q-36 -21 -90 -31.5t-108 -10.5q-135 0 -205 71t-70 210v148h42v-142q0 -127 58.5 -186.5t175.5 -59.5q54 0 104 11t93 36v341h42v-705h-42z" />
    <glyph glyph-name="uni0428" unicode="&#x428;" horiz-adv-x="1068" 
d="M97 0v705h42v-666h374v666h42v-666h374v666h42v-705h-874z" />
    <glyph glyph-name="uni0429" unicode="&#x429;" horiz-adv-x="1097" 
d="M1033 -150v150h-936v705h42v-666h374v666h42v-666h374v666h42v-666h103v-189h-41z" />
    <glyph glyph-name="uni042A" unicode="&#x42a;" horiz-adv-x="809" 
d="M240 0v666h-230v39h272v-326h239q113 0 173.5 -46.5t60.5 -141.5t-60.5 -143t-173.5 -48h-281zM282 39h238q191 0 191 151q0 150 -191 150h-238v-301z" />
    <glyph glyph-name="uni042B" unicode="&#x42b;" horiz-adv-x="833" 
d="M97 0v705h42v-326h208q113 0 173.5 -46.5t60.5 -141.5t-60.5 -143t-173.5 -48h-250zM694 0v705h42v-705h-42zM139 39h207q190 0 190 151q0 150 -190 150h-207v-301z" />
    <glyph glyph-name="uni042C" unicode="&#x42c;" horiz-adv-x="666" 
d="M97 0v705h42v-326h239q113 0 173.5 -46.5t60.5 -141.5t-60.5 -143t-173.5 -48h-281zM139 39h238q190 0 190 151q0 150 -190 150h-238v-301z" />
    <glyph glyph-name="uni042D" unicode="&#x42d;" horiz-adv-x="684" 
d="M299 -8q-76 0 -135 24.5t-104 71.5l22 35q49 -47 99 -68.5t119 -21.5q131 0 199 80.5t72 224.5h-398v40h398q-6 138 -73.5 216t-197.5 78q-69 0 -119 -21.5t-99 -68.5l-22 35q45 47 104 71.5t135 24.5q102 0 173 -43.5t107.5 -124t36.5 -192.5t-36.5 -193t-107.5 -124.5
t-173 -43.5z" />
    <glyph glyph-name="uni042E" unicode="&#x42e;" horiz-adv-x="1012" 
d="M633 -8q-94 0 -163 42t-107 119.5t-41 184.5h-183v-338h-42v705h42v-328h183q5 105 43.5 180t106.5 115.5t161 40.5q97 0 166.5 -43.5t107 -124t37.5 -192.5q0 -111 -38 -192t-107.5 -125t-165.5 -44zM633 33q127 0 196.5 84t69.5 236t-69 235.5t-197 83.5
q-127 0 -196.5 -83.5t-69.5 -235.5q0 -151 69.5 -235.5t196.5 -84.5z" />
    <glyph glyph-name="uni042F" unicode="&#x42f;" horiz-adv-x="673" 
d="M46 0l136 242q33 60 75 77q-86 12 -133.5 60.5t-47.5 129.5q0 95 60.5 145.5t174.5 50.5h265v-705h-42v312h-156q-61 0 -95.5 -17t-63.5 -69l-126 -226h-47zM315 351h219v316h-219q-195 0 -195 -158t195 -158z" />
    <glyph glyph-name="uni0430" unicode="&#x430;" horiz-adv-x="575" 
d="M247 -7q-74 0 -123 42.5t-49 105.5q0 54 29.5 85.5t97 44.5t206.5 13v43q0 70 -28 105t-92 35q-91 0 -173 -55l-21 37q35 25 83 42t105 17q171 0 171 -183v-325h-45v91q-27 -52 -69.5 -75t-91.5 -23zM247 36q54 0 89.5 24.5t53.5 63t18 82.5v38q-86 0 -141.5 -4.5
t-86.5 -15.5t-43.5 -30.5t-12.5 -49.5q0 -36 17 -60t45 -36t61 -12z" />
    <glyph glyph-name="uni0431" unicode="&#x431;" horiz-adv-x="559" 
d="M280 -8q-103 0 -163 70t-60 203v90q0 136 50.5 220.5t165.5 116.5l182 51l16 -38l-198 -54q-59 -16 -97.5 -54.5t-57.5 -90.5t-19 -110v-3q24 56 73.5 85.5t109.5 29.5q101 0 160.5 -69t59.5 -189t-60 -189t-162 -69zM279 31q83 0 131.5 56t48.5 163t-48.5 163t-131.5 56
q-82 0 -131 -55t-49 -156q0 -113 48.5 -170t131.5 -57z" />
    <glyph glyph-name="uni0432" unicode="&#x432;" horiz-adv-x="540" 
d="M88 0v500h218q80 0 123 -33t43 -99q0 -40 -23.5 -70t-62.5 -42q45 -10 73 -42t28 -77q0 -64 -46 -100.5t-127 -36.5h-226zM130 272h179q57 0 88.5 25.5t31.5 70.5q0 46 -31.5 71t-88.5 25h-179v-192zM130 36h188q61 0 93.5 26t32.5 74q0 49 -32.5 74.5t-93.5 25.5h-188
v-200z" />
    <glyph glyph-name="uni0433" unicode="&#x433;" horiz-adv-x="425" 
d="M88 0v500h325v-36h-283v-464h-42z" />
    <glyph glyph-name="uni0434" unicode="&#x434;" horiz-adv-x="586" 
d="M27 -130v166h49q41 56 59.5 133t18.5 178v153h321v-464h77v-166h-38v130h-449v-130h-38zM124 36h310v428h-239v-116q0 -90 -18 -172t-53 -140z" />
    <glyph glyph-name="uni0435" unicode="&#x435;" horiz-adv-x="547" 
d="M57 0zM297 -8q-110 0 -175 67.5t-65 188.5q0 80 29 138t81.5 90t120.5 32q97 0 151 -61t54 -168v-27h-393v-4q0 -106 52 -161.5t145 -55.5q47 0 88 15t79 51l21 -33q-31 -34 -82 -53t-106 -19zM287 470q-80 0 -128 -49.5t-57 -130.5h352q-3 84 -45.5 132t-121.5 48z" />
    <glyph glyph-name="uni0436" unicode="&#x436;" horiz-adv-x="771" 
d="M7 0l102 164q23 38 40.5 60t34.5 33t39 16l-188 227h50l183 -223h97v223h42v-223h96l183 223h50l-188 -227q32 -7 56 -30t59 -79l101 -164h-46l-98 159q-20 34 -38 51.5t-40 24.5t-56 7h-79v-242h-42v242h-80q-34 0 -56 -7t-39.5 -24.5t-38.5 -51.5l-97 -159h-47z" />
    <glyph glyph-name="uni0437" unicode="&#x437;" horiz-adv-x="489" 
d="M237 -8q-62 0 -115.5 18.5t-85.5 51.5l22 35q71 -67 179 -67q83 0 119.5 27.5t36.5 77.5q0 49 -33 74.5t-95 25.5h-107v38h99q55 0 87.5 26t32.5 72t-34 72.5t-100 26.5q-51 0 -94.5 -14.5t-83.5 -46.5l-21 33q41 35 90.5 50.5t107.5 15.5q88 0 133 -36t45 -102
q0 -40 -23 -70.5t-62 -43.5q45 -10 73 -42t28 -78q0 -65 -49 -104.5t-150 -39.5z" />
    <glyph glyph-name="uni0438" unicode="&#x438;" horiz-adv-x="578" 
d="M88 0v500h39v-437l325 437h38v-500h-39v436l-325 -436h-38z" />
    <glyph glyph-name="uni0439" unicode="&#x439;" horiz-adv-x="578" 
d="M88 0zM88 0v500h39v-437l325 437h38v-500h-39v436l-325 -436h-38zM289 547q-49 0 -96 27.5t-71 92.5l34 14q37 -98 133 -98q49 0 81 21t60 76l32 -13q-31 -70 -76 -95t-97 -25z" />
    <glyph glyph-name="uni043A" unicode="&#x43a;" horiz-adv-x="509" 
d="M88 0v500h42v-223h112l182 223h49l-186 -227q32 -8 55.5 -30.5t57.5 -78.5l102 -164h-47l-98 159q-20 34 -37.5 51.5t-40 24.5t-56.5 7h-93v-242h-42z" />
    <glyph glyph-name="uni043B" unicode="&#x43b;" horiz-adv-x="568" 
d="M48 -9l-22 33q38 20 62.5 47t38.5 68.5t20 103.5t6 152v105h327v-500h-42v464h-244v-70q0 -126 -13.5 -204.5t-45.5 -124t-87 -74.5z" />
    <glyph glyph-name="uni043C" unicode="&#x43c;" horiz-adv-x="650" 
d="M88 0v500h36l201 -368l202 368h35v-500h-38v418l-186 -338h-26l-186 339v-419h-38z" />
    <glyph glyph-name="uni043D" unicode="&#x43d;" horiz-adv-x="580" 
d="M88 0v500h42v-222h320v222h42v-500h-42v241h-320v-241h-42z" />
    <glyph glyph-name="uni043E" unicode="&#x43e;" horiz-adv-x="559" 
d="M57 0zM279 -8q-102 0 -162 69t-60 189t60 189t162 69t162.5 -69t60.5 -189t-60.5 -189t-162.5 -69zM279 31q82 0 131 56.5t49 162.5t-49 162.5t-131 56.5t-130.5 -56.5t-48.5 -162.5t48.5 -162.5t130.5 -56.5z" />
    <glyph glyph-name="uni043F" unicode="&#x43f;" horiz-adv-x="577" 
d="M88 0v500h401v-500h-42v464h-317v-464h-42z" />
    <glyph glyph-name="uni0440" unicode="&#x440;" horiz-adv-x="589" 
d="M83 0zM91 -216v608q0 26 -2.5 53t-5.5 55h41l8 -102q22 52 68.5 81t109.5 29q101 0 161.5 -68.5t60.5 -189.5t-60 -189.5t-162 -68.5q-63 0 -109 28t-68 79v-315h-42zM310 31q82 0 130.5 56.5t48.5 162.5t-48.5 162.5t-130.5 56.5t-130 -56.5t-48 -162.5t48 -162.5
t130 -56.5z" />
    <glyph glyph-name="uni0441" unicode="&#x441;" horiz-adv-x="493" 
d="M57 0zM284 -8q-105 0 -166 70.5t-61 191.5q0 122 62 188t165 66q47 0 90.5 -18.5t72.5 -51.5l-21 -32q-32 33 -69 48t-74 15q-86 0 -134.5 -55.5t-48.5 -160.5q0 -106 48.5 -164t134.5 -58q35 0 72.5 14.5t70.5 48.5l21 -32q-30 -34 -74.5 -52t-88.5 -18z" />
    <glyph glyph-name="uni0442" unicode="&#x442;" horiz-adv-x="430" 
d="M194 0v464h-191v36h424v-36h-191v-464h-42z" />
    <glyph glyph-name="uni0443" unicode="&#x443;" horiz-adv-x="526" 
d="M27 0zM63 -227l-10 39q47 11 77.5 27.5t51.5 42.5t38 65l21 48l-214 505h48l189 -456l187 456h48l-233 -554q-24 -57 -53 -91.5t-66 -53t-84 -28.5z" />
    <glyph glyph-name="uni0444" unicode="&#x444;" horiz-adv-x="778" 
d="M368 -216v310q-18 -49 -52 -75.5t-84 -26.5q-80 0 -127.5 70t-47.5 188q0 119 47 188.5t128 69.5q50 0 84 -26.5t52 -75.5v330h42v-328q19 48 53 74t82 26q81 0 128.5 -69.5t47.5 -188.5q0 -118 -47 -188t-129 -70q-48 0 -82 26t-53 74v-308h-42zM234 30q63 0 99 57
t36 163q0 104 -36 162t-99 58t-99 -58t-36 -162q0 -106 36 -163t99 -57zM543 30q63 0 99.5 57t36.5 163q0 104 -36.5 162t-99.5 58t-98.5 -58t-35.5 -162q0 -106 35.5 -163t98.5 -57z" />
    <glyph glyph-name="uni0445" unicode="&#x445;" horiz-adv-x="528" 
d="M33 0zM33 0l206 258l-195 242h53l167 -212l167 212h52l-193 -242l205 -258h-54l-177 225l-179 -225h-52z" />
    <glyph glyph-name="uni0446" unicode="&#x446;" horiz-adv-x="589" 
d="M518 -130v130h-430v500h42v-464h307v464h41v-464h77v-166h-37z" />
    <glyph glyph-name="uni0447" unicode="&#x447;" horiz-adv-x="544" 
d="M414 0v221q-62 -42 -148 -42q-103 0 -151 47t-48 144v130h42v-128q0 -81 38.5 -117.5t118.5 -36.5q45 0 79.5 10t68.5 34v238h42v-500h-42z" />
    <glyph glyph-name="uni0448" unicode="&#x448;" horiz-adv-x="789" 
d="M88 0v500h42v-464h243v464h42v-464h243v464h43v-500h-613z" />
    <glyph glyph-name="uni0449" unicode="&#x449;" horiz-adv-x="811" 
d="M740 -130v130h-652v500h42v-464h243v464h42v-464h243v464h43v-464h76v-166h-37z" />
    <glyph glyph-name="uni044A" unicode="&#x44a;" horiz-adv-x="615" 
d="M169 0v464h-166v36h207v-191h168q94 0 141.5 -40t47.5 -114t-47.5 -114.5t-141.5 -40.5h-209zM210 36h171q69 0 106 29t37 90t-37 89.5t-106 28.5h-171v-237z" />
    <glyph glyph-name="uni044B" unicode="&#x44b;" horiz-adv-x="704" 
d="M88 0v500h42v-191h168q94 0 141.5 -40t47.5 -114t-47.5 -114.5t-141.5 -40.5h-210zM575 0v500h41v-500h-41zM130 36h170q70 0 106.5 29t36.5 90t-36.5 89.5t-106.5 28.5h-170v-237z" />
    <glyph glyph-name="uni044C" unicode="&#x44c;" horiz-adv-x="535" 
d="M88 0v500h42v-191h168q94 0 141.5 -40t47.5 -114t-47.5 -114.5t-141.5 -40.5h-210zM130 36h170q70 0 106.5 29t36.5 90t-36.5 89.5t-106.5 28.5h-170v-237z" />
    <glyph glyph-name="uni044D" unicode="&#x44d;" horiz-adv-x="503" 
d="M219 -8q-51 0 -99.5 19t-73.5 51l21 33q30 -33 70 -48.5t83 -15.5q84 0 131.5 53.5t51.5 151.5h-270v39h270q-5 84 -49 139t-134 55q-40 0 -81.5 -15t-71.5 -49l-21 34q29 32 77 50.5t97 18.5q105 0 165.5 -67t60.5 -189t-61.5 -191t-165.5 -69z" />
    <glyph glyph-name="uni044E" unicode="&#x44e;" horiz-adv-x="746" 
d="M466 -8q-100 0 -160 66.5t-63 182.5h-114v-241h-41v500h41v-222h115q8 108 67 169t155 61q102 0 162.5 -69t60.5 -189t-60.5 -189t-162.5 -69zM466 31q83 0 131.5 56.5t48.5 162.5t-48.5 162.5t-131.5 56.5q-82 0 -131 -56.5t-49 -162.5t49 -162.5t131 -56.5z" />
    <glyph glyph-name="uni044F" unicode="&#x44f;" horiz-adv-x="531" 
d="M50 0l82 142q30 53 78 69q-65 8 -102 45t-37 99q0 68 43.5 106.5t130.5 38.5h198v-500h-42v208h-92q-52 0 -86 -24t-56 -62l-70 -122h-47zM249 244h152v221h-152q-69 0 -102.5 -29t-33.5 -81q0 -53 33.5 -82t102.5 -29z" />
    <glyph glyph-name="uni0450" unicode="&#x450;" horiz-adv-x="547" 
d="M57 0zM57 0zM297 -8q-110 0 -175 67.5t-65 188.5q0 80 29 138t81.5 90t120.5 32q97 0 151 -61t54 -168v-27h-393v-4q0 -106 52 -161.5t145 -55.5q47 0 88 15t79 51l21 -33q-31 -34 -82 -53t-106 -19zM287 470q-80 0 -128 -49.5t-57 -130.5h352q-3 84 -45.5 132t-121.5 48
zM270 549l-122 200h54l104 -200h-36z" />
    <glyph glyph-name="uni0451" unicode="&#x451;" horiz-adv-x="547" 
d="M57 0zM57 0zM297 -8q-110 0 -175 67.5t-65 188.5q0 80 29 138t81.5 90t120.5 32q97 0 151 -61t54 -168v-27h-393v-4q0 -106 52 -161.5t145 -55.5q47 0 88 15t79 51l21 -33q-31 -34 -82 -53t-106 -19zM287 470q-80 0 -128 -49.5t-57 -130.5h352q-3 84 -45.5 132t-121.5 48
zM338 620v60h61v-60h-61zM177 620v60h61v-60h-61z" />
    <glyph glyph-name="uni0452" unicode="&#x452;" horiz-adv-x="574" 
d="M306 -185l-8 37q59 12 91 36.5t44.5 64t12.5 96.5v266q0 83 -34.5 118.5t-102.5 35.5q-81 0 -128.5 -49t-47.5 -131v-289h-42v594h-99v37h99v105h42v-105h204v-37h-204v-184q23 47 69 72.5t104 25.5q90 0 136 -45.5t46 -143.5v-266q0 -103 -39 -160.5t-143 -77.5z" />
    <glyph glyph-name="uni0453" unicode="&#x453;" horiz-adv-x="425" 
d="M88 0zM88 0v500h325v-36h-283v-464h-42zM219 549l104 200h54l-122 -200h-36z" />
    <glyph glyph-name="uni0454" unicode="&#x454;" horiz-adv-x="510" 
d="M284 -8q-106 0 -166.5 70t-60.5 192t61.5 188t166.5 66q52 0 99.5 -18.5t72.5 -50.5l-21 -33q-30 33 -71 48t-82 15q-91 0 -135 -55t-49 -139h270v-39h-270q5 -98 52 -151.5t132 -53.5q41 0 82 15t71 48l21 -32q-26 -33 -74.5 -51.5t-98.5 -18.5z" />
    <glyph glyph-name="uni0455" unicode="&#x455;" horiz-adv-x="498" 
d="M61 0zM247 -8q-56 0 -105.5 17.5t-80.5 48.5l21 33q36 -31 78 -45.5t89 -14.5q68 0 104 26t36 71q0 35 -23 56.5t-76 32.5l-87 19q-64 15 -95 48t-31 82q0 62 48 102t131 40q53 0 97.5 -18t71.5 -50l-22 -33q-60 62 -147 62q-65 0 -99.5 -28t-34.5 -74q0 -35 21.5 -57
t68.5 -33l87 -20q68 -16 101 -46.5t33 -80.5q0 -63 -51 -100.5t-135 -37.5z" />
    <glyph glyph-name="uni0456" unicode="&#x456;" horiz-adv-x="224" 
d="M80 0zM80 631v63h64v-63h-64zM91 0v500h42v-500h-42z" />
    <glyph glyph-name="uni0457" unicode="&#x457;" horiz-adv-x="224" 
d="M1 0zM91 0v500h42v-500h-42zM162 620v60h61v-60h-61zM1 620v60h61v-60h-61z" />
    <glyph glyph-name="uni0458" unicode="&#x458;" horiz-adv-x="224" 
d="M0 0zM88 631v63h64v-63h-64zM12 -218q-10 0 -29.5 3.5t-30.5 7.5v40q11 -4 28 -8t30 -4q47 0 68 31t21 97v551h42v-560q0 -158 -129 -158z" />
    <glyph glyph-name="uni0459" unicode="&#x459;" horiz-adv-x="885" 
d="M48 -9l-22 33q38 20 62.5 47t38.5 68.5t20 103.5t6 152v105h326v-191h169q93 0 141 -40t48 -114t-47.5 -114.5t-141.5 -40.5h-210v464h-244v-70q0 -126 -13.5 -204.5t-45.5 -124t-87 -74.5zM479 36h171q70 0 106.5 29t36.5 90t-37 89.5t-106 28.5h-171v-237z" />
    <glyph glyph-name="uni045A" unicode="&#x45a;" horiz-adv-x="897" 
d="M88 0v500h42v-222h321v222h41v-191h168q94 0 141.5 -40t47.5 -114t-47.5 -114.5t-141.5 -40.5h-209v241h-321v-241h-42zM492 36h170q70 0 106.5 29t36.5 90t-36.5 89.5t-106.5 28.5h-170v-237z" />
    <glyph glyph-name="uni045B" unicode="&#x45b;" horiz-adv-x="576" 
d="M0 0zM91 0v594h-99v37h99v105h42v-105h204v-37h-204v-185q25 49 71.5 74t105.5 25q178 0 178 -188v-320h-42v316q0 80 -32.5 116.5t-103.5 36.5q-80 0 -128.5 -49t-48.5 -130v-290h-42z" />
    <glyph glyph-name="uni045C" unicode="&#x45c;" horiz-adv-x="509" 
d="M88 0zM88 0v500h42v-223h112l182 223h49l-186 -227q32 -8 55.5 -30.5t57.5 -78.5l102 -164h-47l-98 159q-20 34 -37.5 51.5t-40 24.5t-56.5 7h-93v-242h-42zM262 549l104 200h54l-122 -200h-36z" />
    <glyph glyph-name="uni045D" unicode="&#x45d;" horiz-adv-x="578" 
d="M88 0zM88 0v500h39v-437l325 437h38v-500h-39v436l-325 -436h-38zM271 549l-122 200h54l104 -200h-36z" />
    <glyph glyph-name="uni045E" unicode="&#x45e;" horiz-adv-x="526" 
d="M27 0zM27 0zM63 -227l-10 39q47 11 77.5 27.5t51.5 42.5t38 65l21 48l-214 505h48l189 -456l187 456h48l-233 -554q-24 -57 -53 -91.5t-66 -53t-84 -28.5zM262 547q-49 0 -96 27.5t-71 92.5l34 14q37 -98 133 -98q49 0 81 21t60 76l32 -13q-31 -70 -76 -95t-97 -25z" />
    <glyph glyph-name="uni045F" unicode="&#x45f;" horiz-adv-x="577" 
d="M269 -130v130h-181v500h42v-464h317v464h42v-500h-182v-130h-38z" />
    <glyph glyph-name="uni0462" unicode="&#x462;" horiz-adv-x="729" 
d="M160 0v548h-180v39h180v118h42v-118h248v-39h-248v-169h239q113 0 173.5 -46.5t60.5 -141.5t-60.5 -143t-173.5 -48h-281zM202 39h239q190 0 190 151q0 150 -190 150h-239v-301z" />
    <glyph glyph-name="uni0463" unicode="&#x463;" horiz-adv-x="616" 
d="M169 0v462h-166v38h166v236h42v-236h165v-38h-165v-153h168q94 0 141.5 -40t47.5 -114t-47.5 -114.5t-141.5 -40.5h-210zM211 36h170q70 0 106.5 29t36.5 90t-36.5 89.5t-106.5 28.5h-170v-237z" />
    <glyph glyph-name="uni046A" unicode="&#x46a;" horiz-adv-x="934" 
d="M17 0l120 239q21 41 49 72t70 49t105 18h55l-292 327h686l-292 -327h55q63 0 105 -18t70.5 -49t48.5 -72l120 -239h-45l-105 210q-34 71 -77 100t-105 29h-97v-339h-42v339h-96q-62 0 -105 -29t-78 -100l-105 -210h-45zM466 382h2l251 285h-504z" />
    <glyph glyph-name="uni046B" unicode="&#x46b;" horiz-adv-x="770" 
d="M7 0l102 164q27 44 48.5 68.5t48 34.5t66.5 10h76l-194 223h462l-193 -223h76q40 0 66.5 -10t48.5 -34.5t48 -68.5l101 -164h-46l-98 159q-20 34 -38 51.5t-40 24.5t-56 7h-79v-242h-42v242h-79q-33 0 -55.5 -7t-40 -24.5t-38.5 -51.5l-98 -159h-46zM385 292h2l145 172
h-294z" />
    <glyph glyph-name="uni0472" unicode="&#x472;" horiz-adv-x="759" 
d="M68 0zM379 -8q-98 0 -167.5 44t-106.5 125t-37 192q0 112 36.5 192.5t106 124t168.5 43.5q96 0 166 -43.5t108 -124t38 -191.5q0 -112 -38.5 -193t-108.5 -125t-165 -44zM379 672q-124 0 -192 -77.5t-74 -217.5h533q-6 141 -76 218t-191 77zM379 33q122 0 192.5 80
t74.5 226h-533q3 -145 71 -225.5t195 -80.5z" />
    <glyph glyph-name="uni0473" unicode="&#x473;" horiz-adv-x="559" 
d="M57 0zM279 -8q-102 0 -162 69t-60 189t60 189t162 69t162.5 -69t60.5 -189t-60.5 -189t-162.5 -69zM279 469q-79 0 -126.5 -52t-52.5 -149h359q-5 97 -53.5 149t-126.5 52zM279 31q78 0 126.5 52t53.5 149h-359q5 -97 52.5 -149t126.5 -52z" />
    <glyph glyph-name="uni0474" unicode="&#x474;" horiz-adv-x="744" 
d="M314 0l-302 705h45l281 -655l209 484q29 67 58 106t68 56t97 17l5 -36q-46 0 -78 -12.5t-56.5 -44t-49.5 -87.5l-231 -533h-46z" />
    <glyph glyph-name="uni0475" unicode="&#x475;" horiz-adv-x="547" 
d="M239 0l-212 500h48l188 -455l147 353q26 62 59.5 86t94.5 24l4 -35q-49 -1 -73.5 -22t-47.5 -74l-160 -377h-48z" />
    <glyph glyph-name="uni048A" unicode="&#x48a;" horiz-adv-x="752" 
d="M372 760q-56 0 -108 28t-78 96l33 14q21 -52 59 -77t93 -25q56 0 93.5 21.5t68.5 79.5l32 -13q-34 -73 -85 -98.5t-108 -25.5zM97 0v705h39v-635l470 635h36v-666h105l-65 -189h-38l52 150h-93v638l-472 -638h-34z" />
    <glyph glyph-name="uni048B" unicode="&#x48b;" horiz-adv-x="599" 
d="M289 547q-49 0 -96 27.5t-71 92.5l34 14q37 -98 133 -98q49 0 81 21t60 76l32 -13q-31 -70 -76 -95t-97 -25zM88 0v500h39v-437l325 437h38v-463h80l-62 -167h-39l49 130h-67v436l-325 -436h-38z" />
    <glyph glyph-name="uni048C" unicode="&#x48c;" horiz-adv-x="718" 
d="M149 0v549h-149v38h149v118h42v-118h148v-38h-148v-170h237q113 0 174.5 -46.5t61.5 -141.5t-61.5 -143t-174.5 -48h-279zM191 39h236q193 0 193 151q0 150 -193 150h-236v-301z" />
    <glyph glyph-name="uni048D" unicode="&#x48d;" horiz-adv-x="616" 
d="M3 0zM169 0v462h-166v38h166v236h42v-236h165v-38h-165v-153h168q94 0 141.5 -40t47.5 -114t-47.5 -114.5t-141.5 -40.5h-210zM211 36h170q70 0 106.5 29t36.5 90t-36.5 89.5t-106.5 28.5h-170v-237z" />
    <glyph glyph-name="uni048E" unicode="&#x48e;" horiz-adv-x="638" 
d="M97 0v705h253q114 0 174.5 -52.5t60.5 -151.5q0 -68 -30.5 -115.5t-86.5 -68.5l54 -80l-30 -21l-61 89q-18 -3 -37.5 -5.5t-43.5 -2.5h-212v-297h-41zM138 336h211q13 0 29 0.5t29 3.5l-54 80l31 21l62 -91q95 36 95 151q0 166 -191 166h-212v-331z" />
    <glyph glyph-name="uni048F" unicode="&#x48f;" horiz-adv-x="589" 
d="M91 -216v608q0 26 -2.5 53t-5.5 55h41l8 -102q22 52 68.5 81t109.5 29q101 0 161.5 -68.5t60.5 -189.5q0 -67 -19 -119t-55 -85l46 -57l-30 -23l-45 58q-50 -32 -119 -32q-63 0 -109 28t-68 79v-315h-42zM310 469q-82 0 -130 -56.5t-48 -162.5t48 -163.5t130 -55.5
q53 1 93 25l-48 59l30 23l47 -60q57 55 57 172q0 106 -48.5 162.5t-130.5 56.5z" />
    <glyph glyph-name="uni0490" unicode="&#x490;" horiz-adv-x="541" 
d="M97 0v705h390v150h41v-189h-389v-666h-42z" />
    <glyph glyph-name="uni0491" unicode="&#x491;" horiz-adv-x="425" 
d="M88 0v500h287v118h38v-154h-283v-464h-42z" />
    <glyph glyph-name="uni0492" unicode="&#x492;" horiz-adv-x="574" 
d="M130 0v338h-103v38h103v329h431v-39h-389v-290h196v-38h-196v-338h-42z" />
    <glyph glyph-name="uni0493" unicode="&#x493;" horiz-adv-x="445" 
d="M109 0v234h-104v36h104v230h324v-36h-283v-194h156v-36h-156v-234h-41z" />
    <glyph glyph-name="uni0494" unicode="&#x494;" horiz-adv-x="657" 
d="M401 -188q-27 0 -55 4t-45 11v42q39 -19 100 -19q74 0 113 48t39 144v100q0 126 -55 186t-174 60q-112 0 -186 -46v-342h-41v705h427v-39h-386v-279q32 20 82.5 31t105.5 11q269 0 269 -281v-105q0 -113 -50 -172t-144 -59z" />
    <glyph glyph-name="uni0495" unicode="&#x495;" horiz-adv-x="541" 
d="M309 -185l-8 37q60 12 91.5 37t43 64.5t11.5 96.5v84q0 85 -33 123t-105 38q-82 0 -130.5 -49.5t-48.5 -130.5v-115h-42v500h325v-39h-283v-224q25 46 71.5 71.5t106.5 25.5q90 0 135.5 -48t45.5 -148v-85q0 -69 -16 -117t-55 -77.5t-109 -43.5z" />
    <glyph glyph-name="uni0496" unicode="&#x496;" horiz-adv-x="959" 
d="M17 0l119 239q28 57 67 91t90 43l-235 332h49l230 -327h121v327h42v-327h120l231 327h49l-235 -332q50 -9 88 -43t66 -91l101 -200h79v-189h-41v150h-63l-105 210q-34 70 -77.5 99.5t-105.5 29.5h-107v-339h-42v339h-107q-64 0 -108 -30t-77 -99l-103 -210h-46z" />
    <glyph glyph-name="uni0497" unicode="&#x497;" horiz-adv-x="808" 
d="M7 0l102 164q23 38 40.5 60t34.5 33t39 16l-188 227h50l183 -223h97v223h42v-223h96l183 223h50l-188 -227q32 -7 56 -30t59 -79l78 -127h53v-167h-39v130h-37l-98 159q-20 34 -38 51.5t-40 24.5t-56 7h-79v-242h-42v242h-80q-34 0 -56 -7t-39.5 -24.5t-38.5 -51.5
l-97 -159h-47z" />
    <glyph glyph-name="uni0498" unicode="&#x498;" horiz-adv-x="662" 
d="M307 -150v142q-85 3 -152 28.5t-107 67.5l21 36q53 -47 114 -69t145 -22q113 0 166 39.5t53 115.5q0 77 -48 113t-144 36h-179v39h166q92 0 140.5 38t48.5 108q0 71 -51.5 110.5t-151.5 39.5q-70 0 -130 -21t-111 -67l-22 36q47 46 117 69.5t145 23.5q122 0 185 -51
t63 -140q0 -59 -32.5 -101t-89.5 -61q64 -14 101 -58t37 -111q0 -90 -59.5 -142t-180.5 -57v-142h-44z" />
    <glyph glyph-name="uni0499" unicode="&#x499;" horiz-adv-x="489" 
d="M220 -130v122q-57 3 -106 21t-78 49l22 35q71 -67 179 -67q83 0 119.5 27.5t36.5 77.5q0 49 -33 74.5t-95 25.5h-107v38h99q55 0 87.5 26t32.5 72t-34 72.5t-100 26.5q-51 0 -94.5 -14.5t-83.5 -46.5l-21 33q41 35 90.5 50.5t107.5 15.5q88 0 133 -36t45 -102
q0 -40 -23 -70.5t-62 -43.5q45 -10 73 -42t28 -78q0 -61 -43.5 -100t-132.5 -43v-123h-40z" />
    <glyph glyph-name="uni049A" unicode="&#x49a;" horiz-adv-x="646" 
d="M97 0v705h41v-327h152l230 327h50l-235 -332q50 -10 87.5 -43.5t66.5 -90.5l101 -200h77v-189h-41v150h-62l-104 210q-34 70 -77.5 99.5t-105.5 29.5h-139v-339h-41z" />
    <glyph glyph-name="uni049B" unicode="&#x49b;" horiz-adv-x="547" 
d="M88 0v500h42v-223h112l182 223h49l-186 -227q32 -8 55.5 -30.5t57.5 -78.5l79 -127h53v-167h-39v130h-38l-98 159q-20 34 -37.5 51.5t-40 24.5t-56.5 7h-93v-242h-42z" />
    <glyph glyph-name="uni049C" unicode="&#x49c;" horiz-adv-x="637" 
d="M97 0v705h42v-327h85v171h36v-171h39l230 327h50l-235 -332q50 -10 88 -43.5t67 -90.5l121 -239h-47l-104 210q-34 70 -77.5 99.5t-105.5 29.5h-26v-171h-36v171h-85v-339h-42z" />
    <glyph glyph-name="uni049D" unicode="&#x49d;" horiz-adv-x="509" 
d="M88 0v500h42v-223h60v119h36v-119h16l181 223h50l-186 -228q31 -7 54.5 -30t58.5 -78l102 -164h-47l-98 159q-20 33 -37.5 51t-39 25t-54.5 7v-128h-36v128h-60v-242h-42z" />
    <glyph glyph-name="uni049E" unicode="&#x49e;" horiz-adv-x="662" 
d="M132 0v552h-145v38h145v115h41v-115h158v-38h-158v-174h152l230 327h50l-235 -332q50 -10 87.5 -43.5t66.5 -90.5l121 -239h-46l-104 210q-34 70 -77.5 99.5t-105.5 29.5h-139v-339h-41z" />
    <glyph glyph-name="uni049F" unicode="&#x49f;" horiz-adv-x="512" 
d="M91 0v594h-99v37h99v105h42v-105h204v-37h-204v-317h112l182 223h49l-186 -227q32 -8 55 -30.5t58 -78.5l102 -164h-47l-98 159q-20 33 -38 51t-40 25t-56 7h-93v-242h-42z" />
    <glyph glyph-name="uni04A0" unicode="&#x4a0;" horiz-adv-x="768" 
d="M238 0v667h-228v38h269v-327h152l230 327h50l-235 -332q50 -10 87.5 -43.5t66.5 -90.5l121 -239h-46l-104 210q-34 70 -77.5 99.5t-105.5 29.5h-139v-339h-41z" />
    <glyph glyph-name="uni04A1" unicode="&#x4a1;" horiz-adv-x="590" 
d="M169 0v464h-166v36h208v-223h112l182 223h49l-186 -227q32 -8 55 -30.5t58 -78.5l102 -164h-47l-98 159q-20 33 -38 51t-40 25t-56 7h-93v-242h-42z" />
    <glyph glyph-name="uni04A2" unicode="&#x4a2;" horiz-adv-x="796" 
d="M97 0v705h42v-328h481v328h42v-666h122v-189h-41v150h-123v338h-481v-338h-42z" />
    <glyph glyph-name="uni04A3" unicode="&#x4a3;" horiz-adv-x="582" 
d="M88 0v500h42v-222h320v222h42v-463h77v-167h-38v130h-81v241h-320v-241h-42z" />
    <glyph glyph-name="uni04A4" unicode="&#x4a4;" horiz-adv-x="953" 
d="M97 0v705h41v-328h483v328h318v-39h-277v-666h-41v339h-483v-339h-41z" />
    <glyph glyph-name="uni04A5" unicode="&#x4a5;" horiz-adv-x="741" 
d="M88 0v500h42v-222h313v222h286v-36h-244v-464h-42v241h-313v-241h-42z" />
    <glyph glyph-name="uni04A8" unicode="&#x4a8;" horiz-adv-x="805" 
d="M393 -8q-153 0 -239 94.5t-86 265.5q0 114 38 194.5t109 123.5t170 43q25 0 44 -2t31 -5l-10 -42q-19 2 -35.5 4t-29.5 2q-129 0 -200.5 -82.5t-71.5 -234.5t71.5 -236t202.5 -84q51 0 95 13q-65 43 -101 116.5t-36 169.5q0 107 50.5 168t136.5 61q87 0 136.5 -61
t49.5 -168q0 -93 -36.5 -167t-101.5 -118q45 -14 97 -14q39 0 70 8.5t59 23.5l12 -42q-50 -31 -142 -31q-79 0 -145 28q-63 -28 -138 -28zM388 333q0 -92 38 -161.5t106 -105.5q68 36 105.5 105.5t37.5 161.5q0 88 -38.5 136t-104.5 48q-67 0 -105.5 -48t-38.5 -136z" />
    <glyph glyph-name="uni04A9" unicode="&#x4a9;" horiz-adv-x="609" 
d="M301 -8q-114 0 -179 70.5t-65 191.5q0 78 27.5 135t78 88t119.5 31q36 0 66.5 -7t48.5 -18l-15 -36q-19 11 -47.5 17t-58.5 6q-82 0 -129 -58t-47 -158q0 -108 53 -166t143 -58q31 0 58 6q-41 30 -64.5 77t-23.5 107q0 74 37 118t98 44t97.5 -43.5t36.5 -118.5
q0 -60 -24 -107t-64 -76q27 -7 59 -7q29 0 53.5 7t46.5 20l15 -35q-51 -30 -114 -30q-58 0 -106 19q-46 -19 -100 -19zM308 221q0 -60 24.5 -102.5t68.5 -65.5q44 23 68 66.5t24 101.5t-25 90.5t-67 32.5q-43 0 -68 -32.5t-25 -90.5z" />
    <glyph glyph-name="uni04AA" unicode="&#x4aa;" horiz-adv-x="684" 
d="M366 -150v142q-144 7 -221 102.5t-77 258.5q0 112 37 192.5t107.5 124t172.5 43.5q77 0 135.5 -24.5t103.5 -71.5l-22 -35q-49 47 -99.5 68.5t-118.5 21.5q-133 0 -202 -83.5t-69 -235.5t69 -236t202 -84q68 0 118.5 21.5t99.5 68.5l22 -35q-41 -43 -94 -67.5t-120 -27.5
v-143h-44z" />
    <glyph glyph-name="uni04AB" unicode="&#x4ab;" horiz-adv-x="493" 
d="M261 -130v123q-95 8 -149.5 77t-54.5 184q0 122 62 188t165 66q47 0 90.5 -18.5t72.5 -51.5l-21 -32q-32 33 -69 48t-74 15q-86 0 -134.5 -55.5t-48.5 -160.5q0 -106 48.5 -164t134.5 -58q35 0 72.5 14.5t70.5 48.5l21 -32q-27 -31 -66.5 -48.5t-79.5 -20.5v-123h-40z
" />
    <glyph glyph-name="uni04AC" unicode="&#x4ac;" horiz-adv-x="590" 
d="M376 -150v150h-104v666h-262v39h566v-39h-262v-627h103v-189h-41z" />
    <glyph glyph-name="uni04AD" unicode="&#x4ad;" horiz-adv-x="432" 
d="M194 0v464h-191v36h424v-36h-191v-427h77v-167h-38v130h-81z" />
    <glyph glyph-name="uni04AE" unicode="&#x4ae;" horiz-adv-x="587" 
d="M1 0zM272 0v304l-271 401h49l245 -367l244 367h47l-272 -402v-303h-42z" />
    <glyph glyph-name="uni04AF" unicode="&#x4af;" horiz-adv-x="526" 
d="M243 -216v208l-216 508h48l188 -455l189 455h47l-214 -505v-211h-42z" />
    <glyph glyph-name="uni04B0" unicode="&#x4b0;" horiz-adv-x="587" 
d="M1 0zM1 0zM272 0v304l-271 401h49l245 -367l244 367h47l-272 -402v-303h-42zM108 307v36h372v-36h-372z" />
    <glyph glyph-name="uni04B1" unicode="&#x4b1;" horiz-adv-x="526" 
d="M243 -180v144h-122v36h119l-213 500h48l188 -455l189 455h47l-212 -500h120v-36h-122v-144h-42z" />
    <glyph glyph-name="uni04B2" unicode="&#x4b2;" horiz-adv-x="655" 
d="M24 0l270 362l-255 343h51l230 -310l226 310h51l-254 -343l240 -323h80v-189h-41v150h-61l-243 328l-243 -328h-51z" />
    <glyph glyph-name="uni04B3" unicode="&#x4b3;" horiz-adv-x="535" 
d="M33 0l206 258l-195 242h53l167 -212l167 212h52l-193 -242l175 -221h52v-167h-39v130h-37l-177 225l-179 -225h-52z" />
    <glyph glyph-name="uni04B4" unicode="&#x4b4;" horiz-adv-x="931" 
d="M867 -150v150h-627v666h-230v39h501v-39h-230v-627h482v666h42v-666h103v-189h-41z" />
    <glyph glyph-name="uni04B5" unicode="&#x4b5;" horiz-adv-x="676" 
d="M604 -130v130h-435v464h-166v36h385v-36h-178v-428h313v464h42v-464h77v-166h-38z" />
    <glyph glyph-name="uni04B6" unicode="&#x4b6;" horiz-adv-x="711" 
d="M535 0v318q-36 -21 -90 -31.5t-108 -10.5q-135 0 -205 71t-70 210v148h42v-142q0 -127 58.5 -186.5t175.5 -59.5q54 0 104 11t93 36v341h42v-666h103v-189h-41v150h-104z" />
    <glyph glyph-name="uni04B7" unicode="&#x4b7;" horiz-adv-x="546" 
d="M414 0v221q-62 -42 -148 -42q-103 0 -151 47t-48 144v130h42v-128q0 -81 38.5 -117.5t118.5 -36.5q45 0 79.5 10t68.5 34v238h42v-463h77v-167h-38v130h-81z" />
    <glyph glyph-name="uni04B8" unicode="&#x4b8;" horiz-adv-x="674" 
d="M536 0v318q-35 -19 -85 -30t-102 -12v-160h-39v161q-121 9 -184.5 76.5t-63.5 203.5v148h42v-142q0 -123 52.5 -180.5t153.5 -64.5v180h39v-181q50 1 98 12t89 35v341h41v-705h-41z" />
    <glyph glyph-name="uni04B9" unicode="&#x4b9;" horiz-adv-x="544" 
d="M414 0v220q-28 -18 -62 -28.5t-68 -12.5v-106h-36v106q-93 4 -137 51.5t-44 139.5v130h42v-129q0 -76 34.5 -113t104.5 -40v134h36v-134q36 2 67.5 12t62.5 31v239h42v-500h-42z" />
    <glyph glyph-name="uni04BA" unicode="&#x4ba;" horiz-adv-x="674" 
d="M97 0v705h42v-318q36 21 89.5 31.5t107.5 10.5q136 0 206 -70.5t70 -210.5v-148h-42v142q0 127 -59 187t-176 60q-53 0 -102.5 -10t-93.5 -36v-343h-42z" />
    <glyph glyph-name="uni04BB" unicode="&#x4bb;" horiz-adv-x="576" 
d="M91 0zM91 0v736h42v-327q25 49 71.5 74t105.5 25q91 0 134.5 -47t43.5 -141v-320h-42v316q0 80 -32 116.5t-104 36.5q-80 0 -128.5 -49t-48.5 -130v-290h-42z" />
    <glyph glyph-name="uni04BC" unicode="&#x4bc;" horiz-adv-x="876" 
d="M537 -8q-153 0 -237.5 89.5t-91.5 246.5h-17q-166 0 -166 155v59h41v-56q0 -62 30 -89.5t94 -27.5h18q5 161 84.5 252.5t220.5 91.5q107 0 171.5 -44t94 -124t29.5 -188v-28h-555q5 -142 77 -219t209 -77q54 0 89.5 9t66 29t65.5 52l21 -35q-33 -32 -67.5 -53.5t-77 -32
t-99.5 -10.5zM514 672q-123 0 -190 -79.5t-71 -224.5h511q-3 147 -59.5 225.5t-190.5 78.5z" />
    <glyph glyph-name="uni04BD" unicode="&#x4bd;" horiz-adv-x="640" 
d="M390 -8q-110 0 -176 68t-64 192h-8q-60 1 -90 32.5t-30 89.5v39h40v-40q0 -42 18 -62.5t62 -20.5h10q12 101 73.5 159.5t155.5 58.5q97 0 151 -61t54 -168v-27h-393q-1 -110 52 -165.5t145 -55.5q47 0 88 15t79 51l21 -33q-31 -34 -82 -53t-106 -19zM380 470
q-56 0 -95.5 -24t-61.5 -64.5t-28 -91.5h352q-3 84 -45.5 132t-121.5 48z" />
    <glyph glyph-name="uni04BE" unicode="&#x4be;" horiz-adv-x="876" 
d="M25 0zM537 -8q-153 0 -237.5 89.5t-91.5 246.5h-17q-166 0 -166 155v59h41v-56q0 -62 30 -89.5t94 -27.5h18q5 161 84.5 252.5t220.5 91.5q107 0 171.5 -44t94 -124t29.5 -188v-28h-555q5 -142 77 -219t209 -77q54 0 89.5 9t66 29t65.5 52l21 -35q-33 -32 -67.5 -53.5
t-77 -32t-99.5 -10.5zM514 672q-123 0 -190 -79.5t-71 -224.5h511q-3 147 -59.5 225.5t-190.5 78.5zM555 -190q-41 0 -67.5 25t-26.5 67q0 38 23.5 72.5t66.5 56.5l21 -31q-15 -6 -31.5 -19t-28.5 -32t-12 -43q0 -31 17.5 -45.5t42.5 -14.5q26 0 53 13l13 -32
q-24 -17 -71 -17z" />
    <glyph glyph-name="uni04BF" unicode="&#x4bf;" horiz-adv-x="640" 
d="M22 0zM390 -8q-110 0 -176 68t-64 192h-8q-60 1 -90 32.5t-30 89.5v39h40v-40q0 -42 18 -62.5t62 -20.5h10q12 101 73.5 159.5t155.5 58.5q97 0 151 -61t54 -168v-27h-393q-1 -110 52 -165.5t145 -55.5q47 0 88 15t79 51l21 -33q-31 -34 -82 -53t-106 -19zM380 470
q-56 0 -95.5 -24t-61.5 -64.5t-28 -91.5h352q-3 84 -45.5 132t-121.5 48zM433 -190q-41 0 -67.5 25t-26.5 67q0 38 23.5 72.5t66.5 56.5l21 -31q-15 -6 -31.5 -19t-28.5 -32t-12 -43q0 -31 17.5 -45.5t42.5 -14.5q26 0 53 13l13 -32q-24 -17 -71 -17z" />
    <glyph glyph-name="uni04C0" unicode="&#x4c0;" horiz-adv-x="236" 
d="M97 0zM97 0v705h42v-705h-42z" />
    <glyph glyph-name="uni04C1" unicode="&#x4c1;" horiz-adv-x="957" 
d="M17 0zM17 0l119 239q28 57 67 91t90 43l-235 332h49l230 -327h121v327h42v-327h120l231 327h49l-235 -332q50 -9 88 -43t66 -91l121 -239h-45l-105 210q-34 70 -77.5 99.5t-105.5 29.5h-107v-339h-42v339h-107q-64 0 -108 -30t-77 -99l-103 -210h-46zM479 760
q-56 0 -108 28t-78 96l33 14q21 -52 59 -77t93 -25q56 0 93.5 21.5t68.5 79.5l32 -13q-34 -73 -85 -98.5t-108 -25.5z" />
    <glyph glyph-name="uni04C2" unicode="&#x4c2;" horiz-adv-x="771" 
d="M7 0zM7 0l102 164q23 38 40.5 60t34.5 33t39 16l-188 227h50l183 -223h97v223h42v-223h96l183 223h50l-188 -227q32 -7 56 -30t59 -79l101 -164h-46l-98 159q-20 34 -38 51.5t-40 24.5t-56 7h-79v-242h-42v242h-80q-34 0 -56 -7t-39.5 -24.5t-38.5 -51.5l-97 -159h-47z
M385 547q-49 0 -96 27.5t-71 92.5l34 14q37 -98 133 -98q49 0 81 21t60 76l32 -13q-31 -70 -76 -95t-97 -25z" />
    <glyph glyph-name="uni04C3" unicode="&#x4c3;" horiz-adv-x="657" 
d="M401 -188q-27 0 -55 4t-45 11v42q39 -19 100 -19q152 0 152 191v51q0 131 -59.5 189t-186.5 58h-169v-339h-41v705h41v-327h151l231 327h49l-232 -328q258 -8 258 -279v-57q0 -112 -50 -170.5t-144 -58.5z" />
    <glyph glyph-name="uni04C4" unicode="&#x4c4;" horiz-adv-x="525" 
d="M294 -185l-9 37q60 12 91.5 36.5t43 63t11.5 92.5v34q0 86 -39.5 125t-119.5 39h-142v-242h-42v500h42v-223h112l182 223h49l-185 -223q87 -4 136 -51.5t49 -143.5v-35q0 -66 -16 -112.5t-55 -76t-108 -43.5z" />
    <glyph glyph-name="uni04C5" unicode="&#x4c5;" horiz-adv-x="766" 
d="M37 -13l-17 38q42 21 75.5 51t57.5 81t36.5 133t12.5 205v210h454v-666h102l-65 -189h-38l52 150h-93v666h-372v-181q0 -117 -13 -200.5t-39 -141t-64 -95t-89 -61.5z" />
    <glyph glyph-name="uni04C6" unicode="&#x4c6;" horiz-adv-x="589" 
d="M48 -9l-22 33q38 20 62.5 47t38.5 68.5t20 103.5t6 152v105h327v-463h78l-62 -167h-39l49 130h-68v464h-244v-70q0 -126 -13.5 -204.5t-45.5 -124t-87 -74.5z" />
    <glyph glyph-name="uni04C7" unicode="&#x4c7;" horiz-adv-x="759" 
d="M529 -186q-16 0 -33.5 2t-36.5 6v39q38 -9 64 -9q46 0 71.5 29t25.5 93v364h-481v-338h-42v705h42v-328h481v328h42v-731q0 -76 -33.5 -118t-99.5 -42z" />
    <glyph glyph-name="uni04C8" unicode="&#x4c8;" horiz-adv-x="580" 
d="M302 -193l-3 38l43 3q53 4 81 37t28 93v263h-321v-241h-42v500h42v-222h321v222h41v-521q0 -76 -38 -120t-108 -49z" />
    <glyph glyph-name="uni04C9" unicode="&#x4c9;" horiz-adv-x="772" 
d="M97 0v705h42v-328h481v328h42v-666h121l-65 -189h-38l52 150h-112v338h-481v-338h-42z" />
    <glyph glyph-name="uni04CA" unicode="&#x4ca;" horiz-adv-x="597" 
d="M88 0v500h42v-222h320v222h42v-463h78l-62 -167h-39l49 130h-68v241h-320v-241h-42z" />
    <glyph glyph-name="uni04CB" unicode="&#x4cb;" horiz-adv-x="674" 
d="M482 -150h-42v189h95v279q-36 -21 -90 -31.5t-108 -10.5q-135 0 -205 71t-70 210v148h42v-142q0 -127 58.5 -186.5t175.5 -59.5q54 0 104 11t93 36v341h42v-705h-95v-150z" />
    <glyph glyph-name="uni04CC" unicode="&#x4cc;" horiz-adv-x="559" 
d="M375 -130h-38v166h77v185q-62 -42 -148 -42q-103 0 -151 47t-48 144v130h42v-128q0 -81 38.5 -117.5t118.5 -36.5q45 0 79.5 10t68.5 34v238h42v-500h-81v-130z" />
    <glyph glyph-name="uni04CD" unicode="&#x4cd;" horiz-adv-x="861" 
d="M97 0v705h37l290 -656l291 656h36v-666h125l-65 -189h-38l52 150h-113v610l-270 -610h-35l-271 611v-611h-39z" />
    <glyph glyph-name="uni04CE" unicode="&#x4ce;" horiz-adv-x="671" 
d="M88 0v500h36l201 -368l202 368h35v-463h81l-62 -167h-39l49 130h-67v418l-186 -338h-26l-186 339v-419h-38z" />
    <glyph glyph-name="uni04CF" unicode="&#x4cf;" horiz-adv-x="224" 
d="M88 0zM226 -8q-66 0 -102 42.5t-36 118.5v583h44v-576q0 -127 98 -127q26 0 49 6l-3 -41q-28 -6 -50 -6z" />
    <glyph glyph-name="uni04D0" unicode="&#x4d0;" horiz-adv-x="721" 
d="M34 0zM34 0zM34 0l303 705h41l309 -705h-46l-85 195h-394l-83 -195h-45zM356 649l-176 -415h359l-181 415h-2zM357 760q-56 0 -108 28t-78 96l33 14q21 -52 59 -77t93 -25q56 0 93.5 21.5t68.5 79.5l32 -13q-34 -73 -85 -98.5t-108 -25.5z" />
    <glyph glyph-name="uni04D1" unicode="&#x4d1;" horiz-adv-x="575" 
d="M247 -7q-74 0 -123 42.5t-49 105.5q0 54 29.5 85.5t97 44.5t206.5 13v43q0 70 -28 105t-92 35q-91 0 -173 -55l-21 37q35 25 83 42t105 17q171 0 171 -183v-325h-45v91q-27 -52 -69.5 -75t-91.5 -23zM247 36q54 0 89.5 24.5t53.5 63t18 82.5v38q-86 0 -141.5 -4.5
t-86.5 -15.5t-43.5 -30.5t-12.5 -49.5q0 -36 17 -60t45 -36t61 -12zM274 547q-49 0 -96 27.5t-71 92.5l34 14q37 -98 133 -98q49 0 81 21t60 76l32 -13q-31 -70 -76 -95t-97 -25z" />
    <glyph glyph-name="uni04D2" unicode="&#x4d2;" horiz-adv-x="721" 
d="M34 0zM34 0zM34 0l303 705h41l309 -705h-46l-85 195h-394l-83 -195h-45zM356 649l-176 -415h359l-181 415h-2zM407 820v60h61v-60h-61zM246 820v60h61v-60h-61z" />
    <glyph glyph-name="uni04D3" unicode="&#x4d3;" horiz-adv-x="575" 
d="M247 -7q-74 0 -123 42.5t-49 105.5q0 54 29.5 85.5t97 44.5t206.5 13v43q0 70 -28 105t-92 35q-91 0 -173 -55l-21 37q35 25 83 42t105 17q171 0 171 -183v-325h-45v91q-27 -52 -69.5 -75t-91.5 -23zM247 36q54 0 89.5 24.5t53.5 63t18 82.5v38q-86 0 -141.5 -4.5
t-86.5 -15.5t-43.5 -30.5t-12.5 -49.5q0 -36 17 -60t45 -36t61 -12zM324 620v60h61v-60h-61zM163 620v60h61v-60h-61z" />
    <glyph glyph-name="uni04D4" unicode="&#x4d4;" horiz-adv-x="996" 
d="M14 0zM14 0l423 705h502v-39h-397l28 -289h348v-39h-345l29 -299h337v-39h-376l-19 195h-362l-118 -195h-50zM461 665l-256 -431h336l-41 431h-39z" />
    <glyph glyph-name="uni04D5" unicode="&#x4d5;" horiz-adv-x="896" 
d="M75 0zM250 -8q-50 0 -89.5 19.5t-62.5 53t-23 76.5q0 59 27 92t92 46.5t178 13.5h44v35q0 75 -31.5 108t-96.5 33q-48 0 -89 -13t-83 -43l-20 36q38 28 88 43.5t102 15.5q71 0 111 -28.5t54 -83.5q58 112 191 112q93 0 146.5 -61.5t53.5 -167.5v-24h-383
q1 -104 50.5 -164t139.5 -60q45 0 85.5 16t78.5 50l21 -33q-31 -34 -81.5 -53t-102.5 -19q-161 0 -213 136q-21 -64 -70 -100t-117 -36zM639 470q-77 0 -124.5 -45.5t-54.5 -131.5h343q-3 82 -45 129.5t-119 47.5zM253 30q48 0 84.5 22.5t57.5 63t21 93.5v47h-42
q-100 0 -155 -9.5t-76.5 -33.5t-21.5 -69q0 -51 35.5 -82.5t96.5 -31.5z" />
    <glyph glyph-name="uni04D6" unicode="&#x4d6;" horiz-adv-x="582" 
d="M97 0zM97 0zM97 0v705h428v-39h-386v-289h364v-39h-364v-299h386v-39h-428zM330 760q-56 0 -108 28t-78 96l33 14q21 -52 59 -77t93 -25q56 0 93.5 21.5t68.5 79.5l32 -13q-34 -73 -85 -98.5t-108 -25.5z" />
    <glyph glyph-name="uni04D7" unicode="&#x4d7;" horiz-adv-x="547" 
d="M57 0zM57 0zM297 -8q-110 0 -175 67.5t-65 188.5q0 80 29 138t81.5 90t120.5 32q97 0 151 -61t54 -168v-27h-393v-4q0 -106 52 -161.5t145 -55.5q47 0 88 15t79 51l21 -33q-31 -34 -82 -53t-106 -19zM287 470q-80 0 -128 -49.5t-57 -130.5h352q-3 84 -45.5 132t-121.5 48
zM288 547q-49 0 -96 27.5t-71 92.5l34 14q37 -98 133 -98q49 0 81 21t60 76l32 -13q-31 -70 -76 -95t-97 -25z" />
    <glyph glyph-name="uni04D8" unicode="&#x4d8;" horiz-adv-x="736" 
d="M68 0zM363 -8q-106 0 -171 44t-94.5 124t-29.5 188v28h555q-6 142 -76.5 219t-199.5 77q-51 0 -90 -9t-72.5 -29t-68.5 -52l-21 35q47 48 108 72t146 24q101 0 172 -43t109 -123.5t38 -192.5t-36 -193.5t-104 -125t-165 -43.5zM362 33q123 0 190 79.5t71 224.5h-511
q3 -147 59.5 -225.5t190.5 -78.5z" />
    <glyph glyph-name="uni04D9" unicode="&#x4d9;" horiz-adv-x="547" 
d="M54 0zM259 -8q-97 0 -151 61.5t-54 167.5v27h393v4q0 106 -52 161.5t-145 55.5q-46 0 -87.5 -15t-79.5 -51l-21 33q32 35 82.5 53.5t105.5 18.5q110 0 175 -67t65 -189q0 -79 -29 -137.5t-81 -90.5t-121 -32zM260 30q80 0 128 49.5t57 130.5h-352q3 -84 45.5 -132
t121.5 -48z" />
    <glyph glyph-name="uni04DA" unicode="&#x4da;" horiz-adv-x="736" 
d="M68 0zM68 0zM363 -8q-106 0 -171 44t-94.5 124t-29.5 188v28h555q-6 142 -76.5 219t-199.5 77q-51 0 -90 -9t-72.5 -29t-68.5 -52l-21 35q47 48 108 72t146 24q101 0 172 -43t109 -123.5t38 -192.5t-36 -193.5t-104 -125t-165 -43.5zM362 33q123 0 190 79.5t71 224.5
h-511q3 -147 59.5 -225.5t190.5 -78.5zM418 820v60h61v-60h-61zM257 820v60h61v-60h-61z" />
    <glyph glyph-name="uni04DB" unicode="&#x4db;" horiz-adv-x="547" 
d="M54 0zM54 0zM259 -8q-97 0 -151 61.5t-54 167.5v27h393v4q0 106 -52 161.5t-145 55.5q-46 0 -87.5 -15t-79.5 -51l-21 33q32 35 82.5 53.5t105.5 18.5q110 0 175 -67t65 -189q0 -79 -29 -137.5t-81 -90.5t-121 -32zM260 30q80 0 128 49.5t57 130.5h-352q3 -84 45.5 -132
t121.5 -48zM313 620v60h61v-60h-61zM152 620v60h61v-60h-61z" />
    <glyph glyph-name="uni04DC" unicode="&#x4dc;" horiz-adv-x="957" 
d="M17 0zM17 0l119 239q28 57 67 91t90 43l-235 332h49l230 -327h121v327h42v-327h120l231 327h49l-235 -332q50 -9 88 -43t66 -91l121 -239h-45l-105 210q-34 70 -77.5 99.5t-105.5 29.5h-107v-339h-42v339h-107q-64 0 -108 -30t-77 -99l-103 -210h-46zM529 820v60h61v-60
h-61zM368 820v60h61v-60h-61z" />
    <glyph glyph-name="uni04DD" unicode="&#x4dd;" horiz-adv-x="771" 
d="M7 0zM7 0l102 164q23 38 40.5 60t34.5 33t39 16l-188 227h50l183 -223h97v223h42v-223h96l183 223h50l-188 -227q32 -7 56 -30t59 -79l101 -164h-46l-98 159q-20 34 -38 51.5t-40 24.5t-56 7h-79v-242h-42v242h-80q-34 0 -56 -7t-39.5 -24.5t-38.5 -51.5l-97 -159h-47z
M435 620v60h61v-60h-61zM274 620v60h61v-60h-61z" />
    <glyph glyph-name="uni04DE" unicode="&#x4de;" horiz-adv-x="662" 
d="M48 0zM327 -8q-92 0 -164.5 26t-114.5 70l21 36q53 -47 114 -69t145 -22q113 0 166 39.5t53 115.5q0 77 -48 113t-144 36h-179v39h166q92 0 140.5 38t48.5 108q0 71 -51.5 110.5t-151.5 39.5q-70 0 -130 -21t-111 -67l-22 36q47 46 117 69.5t145 23.5q122 0 185 -51
t63 -140q0 -59 -32.5 -101t-89.5 -61q64 -14 101 -58t37 -111q0 -94 -65 -146.5t-199 -52.5zM379 820v60h61v-60h-61zM218 820v60h61v-60h-61z" />
    <glyph glyph-name="uni04DF" unicode="&#x4df;" horiz-adv-x="489" 
d="M36 0zM237 -8q-62 0 -115.5 18.5t-85.5 51.5l22 35q71 -67 179 -67q83 0 119.5 27.5t36.5 77.5q0 49 -33 74.5t-95 25.5h-107v38h99q55 0 87.5 26t32.5 72t-34 72.5t-100 26.5q-51 0 -94.5 -14.5t-83.5 -46.5l-21 33q41 35 90.5 50.5t107.5 15.5q88 0 133 -36t45 -102
q0 -40 -23 -70.5t-62 -43.5q45 -10 73 -42t28 -78q0 -65 -49 -104.5t-150 -39.5zM293 620v60h61v-60h-61zM132 620v60h61v-60h-61z" />
    <glyph glyph-name="uni04E0" unicode="&#x4e0;" horiz-adv-x="662" 
d="M327 -8q-92 0 -165 26t-114 70l24 36q53 -46 115 -68.5t141 -22.5q113 0 166 39.5t53 115.5q0 77 -50 113t-159 36h-99v36l264 293h-440v39h500v-31l-268 -298h50q115 0 180.5 -44.5t65.5 -140.5q0 -94 -66.5 -146.5t-197.5 -52.5z" />
    <glyph glyph-name="uni04E1" unicode="&#x4e1;" horiz-adv-x="489" 
d="M229 -188q-64 0 -118 17t-88 47l20 34q38 -31 83 -45.5t103 -14.5q91 0 136.5 44.5t45.5 127.5q0 74 -45 114t-125 40h-111v23l234 262h-326v39h385v-29l-229 -257h43q104 0 160.5 -50t56.5 -142q0 -99 -59 -154.5t-166 -55.5z" />
    <glyph glyph-name="uni04E2" unicode="&#x4e2;" horiz-adv-x="739" 
d="M97 0zM97 0v705h39v-635l470 635h36v-705h-39v638l-472 -638h-34zM217 822v38h310v-38h-310z" />
    <glyph glyph-name="uni04E3" unicode="&#x4e3;" horiz-adv-x="578" 
d="M88 0zM88 0v500h39v-437l325 437h38v-500h-39v436l-325 -436h-38zM149 633v38h280v-38h-280z" />
    <glyph glyph-name="uni04E4" unicode="&#x4e4;" horiz-adv-x="739" 
d="M97 0zM97 0v705h39v-635l470 635h36v-705h-39v638l-472 -638h-34zM422 820v60h61v-60h-61zM261 820v60h61v-60h-61z" />
    <glyph glyph-name="uni04E5" unicode="&#x4e5;" horiz-adv-x="578" 
d="M88 0zM88 0v500h39v-437l325 437h38v-500h-39v436l-325 -436h-38zM339 620v60h61v-60h-61zM178 620v60h61v-60h-61z" />
    <glyph glyph-name="uni04E6" unicode="&#x4e6;" horiz-adv-x="759" 
d="M68 0zM68 0zM379 -8q-98 0 -167.5 44t-106.5 125t-37 192q0 112 36.5 192.5t106 124t168.5 43.5q96 0 166 -43.5t108 -124t38 -191.5q0 -112 -38.5 -193t-108.5 -125t-165 -44zM379 33q125 0 196 84t71 236t-70.5 235.5t-196.5 83.5q-130 0 -198 -83.5t-68 -235.5
q0 -151 68 -235.5t198 -84.5zM438 820v60h61v-60h-61zM277 820v60h61v-60h-61z" />
    <glyph glyph-name="uni04E7" unicode="&#x4e7;" horiz-adv-x="559" 
d="M57 0zM57 0zM279 -8q-102 0 -162 69t-60 189t60 189t162 69t162.5 -69t60.5 -189t-60.5 -189t-162.5 -69zM279 31q82 0 131 56.5t49 162.5t-49 162.5t-131 56.5t-130.5 -56.5t-48.5 -162.5t48.5 -162.5t130.5 -56.5zM330 620v60h61v-60h-61zM169 620v60h61v-60h-61z" />
    <glyph glyph-name="uni04E8" unicode="&#x4e8;" horiz-adv-x="759" 
d="M379 -8q-98 0 -167.5 44t-106.5 125t-37 192q0 112 36.5 192.5t106 124t168.5 43.5q96 0 166 -43.5t108 -124t38 -191.5q0 -112 -38.5 -193t-108.5 -125t-165 -44zM379 672q-124 0 -192 -77.5t-74 -217.5h533q-6 141 -76 218t-191 77zM379 33q122 0 192.5 80t74.5 226
h-533q3 -145 71 -225.5t195 -80.5z" />
    <glyph glyph-name="uni04E9" unicode="&#x4e9;" horiz-adv-x="559" 
d="M279 -8q-102 0 -162 69t-60 189t60 189t162 69t162.5 -69t60.5 -189t-60.5 -189t-162.5 -69zM279 469q-79 0 -126.5 -52t-52.5 -149h359q-5 97 -53.5 149t-126.5 52zM279 31q78 0 126.5 52t53.5 149h-359q5 -97 52.5 -149t126.5 -52z" />
    <glyph glyph-name="uni04EA" unicode="&#x4ea;" horiz-adv-x="759" 
d="M68 0zM379 -8q-98 0 -167.5 44t-106.5 125t-37 192q0 112 36.5 192.5t106 124t168.5 43.5q96 0 166 -43.5t108 -124t38 -191.5q0 -112 -38.5 -193t-108.5 -125t-165 -44zM379 672q-124 0 -192 -77.5t-74 -217.5h533q-6 141 -76 218t-191 77zM379 33q122 0 192.5 80
t74.5 226h-533q3 -145 71 -225.5t195 -80.5zM430 820v60h61v-60h-61zM269 820v60h61v-60h-61z" />
    <glyph glyph-name="uni04EB" unicode="&#x4eb;" horiz-adv-x="559" 
d="M57 0zM279 -8q-102 0 -162 69t-60 189t60 189t162 69t162.5 -69t60.5 -189t-60.5 -189t-162.5 -69zM279 469q-79 0 -126.5 -52t-52.5 -149h359q-5 97 -53.5 149t-126.5 52zM279 31q78 0 126.5 52t53.5 149h-359q5 -97 52.5 -149t126.5 -52zM330 620v60h61v-60h-61z
M169 620v60h61v-60h-61z" />
    <glyph glyph-name="uni04EC" unicode="&#x4ec;" horiz-adv-x="684" 
d="M60 0zM299 -8q-76 0 -135 24.5t-104 71.5l22 35q49 -47 99 -68.5t119 -21.5q131 0 199 80.5t72 224.5h-398v40h398q-6 138 -73.5 216t-197.5 78q-69 0 -119 -21.5t-99 -68.5l-22 35q45 47 104 71.5t135 24.5q102 0 173 -43.5t107.5 -124t36.5 -192.5t-36.5 -193
t-107.5 -124.5t-173 -43.5zM360 820v60h61v-60h-61zM199 820v60h61v-60h-61z" />
    <glyph glyph-name="uni04ED" unicode="&#x4ed;" horiz-adv-x="503" 
d="M46 0zM219 -8q-51 0 -99.5 19t-73.5 51l21 33q30 -33 70 -48.5t83 -15.5q84 0 131.5 53.5t51.5 151.5h-270v39h270q-5 84 -49 139t-134 55q-40 0 -81.5 -15t-71.5 -49l-21 34q29 32 77 50.5t97 18.5q105 0 165.5 -67t60.5 -189t-61.5 -191t-165.5 -69zM281 620v60h61v-60
h-61zM120 620v60h61v-60h-61z" />
    <glyph glyph-name="uni04EE" unicode="&#x4ee;" horiz-adv-x="648" 
d="M10 0zM220 0l113 210l-323 495h48l297 -456l243 456h45l-377 -705h-46zM170 822v38h310v-38h-310z" />
    <glyph glyph-name="uni04EF" unicode="&#x4ef;" horiz-adv-x="526" 
d="M27 0zM27 0zM63 -227l-10 39q47 11 77.5 27.5t51.5 42.5t38 65l21 48l-214 505h48l189 -456l187 456h48l-233 -554q-24 -57 -53 -91.5t-66 -53t-84 -28.5zM122 633v38h280v-38h-280z" />
    <glyph glyph-name="uni04F0" unicode="&#x4f0;" horiz-adv-x="648" 
d="M10 0zM220 0l113 210l-323 495h48l297 -456l243 456h45l-377 -705h-46zM375 820v60h61v-60h-61zM214 820v60h61v-60h-61z" />
    <glyph glyph-name="uni04F1" unicode="&#x4f1;" horiz-adv-x="526" 
d="M27 0zM27 0zM63 -227l-10 39q47 11 77.5 27.5t51.5 42.5t38 65l21 48l-214 505h48l189 -456l187 456h48l-233 -554q-24 -57 -53 -91.5t-66 -53t-84 -28.5zM312 620v60h61v-60h-61zM151 620v60h61v-60h-61z" />
    <glyph glyph-name="uni04F2" unicode="&#x4f2;" horiz-adv-x="648" 
d="M10 0zM220 0l113 210l-323 495h48l297 -456l243 456h45l-377 -705h-46zM257 765l86 170h52l-111 -170h-27zM366 765l85 170h52l-110 -170h-27z" />
    <glyph glyph-name="uni04F3" unicode="&#x4f3;" horiz-adv-x="526" 
d="M27 0zM27 0zM63 -227l-10 39q47 11 77.5 27.5t51.5 42.5t38 65l21 48l-214 505h48l189 -456l187 456h48l-233 -554q-24 -57 -53 -91.5t-66 -53t-84 -28.5zM303 549l58 200h48l-79 -200h-27zM194 549l58 200h48l-79 -200h-27z" />
    <glyph glyph-name="uni04F4" unicode="&#x4f4;" horiz-adv-x="674" 
d="M62 0zM535 0v318q-36 -21 -90 -31.5t-108 -10.5q-135 0 -205 71t-70 210v148h42v-142q0 -127 58.5 -186.5t175.5 -59.5q54 0 104 11t93 36v341h42v-705h-42zM364 820v60h61v-60h-61zM203 820v60h61v-60h-61z" />
    <glyph glyph-name="uni04F5" unicode="&#x4f5;" horiz-adv-x="544" 
d="M67 0zM414 0v221q-62 -42 -148 -42q-103 0 -151 47t-48 144v130h42v-128q0 -81 38.5 -117.5t118.5 -36.5q45 0 79.5 10t68.5 34v238h42v-500h-42zM312 620v60h61v-60h-61zM151 620v60h61v-60h-61z" />
    <glyph glyph-name="uni04F6" unicode="&#x4f6;" horiz-adv-x="541" 
d="M97 0v705h431v-39h-389v-627h105v-189h-41v150h-106z" />
    <glyph glyph-name="uni04F7" unicode="&#x4f7;" horiz-adv-x="427" 
d="M88 0v500h325v-36h-283v-427h77v-167h-38v130h-81z" />
    <glyph glyph-name="uni04F8" unicode="&#x4f8;" horiz-adv-x="833" 
d="M97 0zM97 0v705h42v-326h208q113 0 173.5 -46.5t60.5 -141.5t-60.5 -143t-173.5 -48h-250zM694 0v705h42v-705h-42zM139 39h207q190 0 190 151q0 150 -190 150h-207v-301zM467 820v60h61v-60h-61zM306 820v60h61v-60h-61z" />
    <glyph glyph-name="uni04F9" unicode="&#x4f9;" horiz-adv-x="704" 
d="M88 0zM88 0v500h42v-191h168q94 0 141.5 -40t47.5 -114t-47.5 -114.5t-141.5 -40.5h-210zM575 0v500h41v-500h-41zM130 36h170q70 0 106.5 29t36.5 90t-36.5 89.5t-106.5 28.5h-170v-237zM403 620v60h61v-60h-61zM242 620v60h61v-60h-61z" />
    <glyph glyph-name="uni04FA" unicode="&#x4fa;" horiz-adv-x="574" 
d="M96 -180l-4 37l36 3q62 5 85 38.5t23 101.5h-106v338h-103v38h103v329h431v-39h-389v-290h196v-38h-196v-299h103v-39q0 -87 -35.5 -130t-109.5 -48z" />
    <glyph glyph-name="uni04FB" unicode="&#x4fb;" horiz-adv-x="445" 
d="M73 -180l-2 37l34 4q47 5 67.5 38t20.5 101h-84v234h-104v36h104v230h324v-36h-282v-194h155v-36h-155v-198h80v-36q0 -87 -33 -129.5t-91 -47.5z" />
    <glyph glyph-name="uni04FC" unicode="&#x4fc;" horiz-adv-x="636" 
d="M412 -183l-8 36q71 8 103.5 36t32.5 84q0 29 -20 69t-56 89l-146 197l-243 -328h-51l270 362l-255 343h51l230 -310l226 310h51l-254 -343l164 -221q38 -50 56.5 -90.5t18.5 -76.5q0 -138 -170 -157z" />
    <glyph glyph-name="uni04FD" unicode="&#x4fd;" horiz-adv-x="528" 
d="M337 -183l-10 35q59 8 89 30.5t30 65.5q0 31 -19 62.5t-65 89.5l-98 125l-180 -225h-51l206 258l-195 242h53l167 -212l167 212h52l-193 -243l105 -132q33 -40 53 -69.5t29 -54.5t9 -53q0 -58 -40 -91t-109 -40z" />
    <glyph glyph-name="uni04FE" unicode="&#x4fe;" horiz-adv-x="636" 
d="M24 0zM24 0zM24 0l270 362l-255 343h51l230 -310l226 310h51l-254 -343l269 -362h-51l-243 328l-243 -328h-51zM133 345v36h372v-36h-372z" />
    <glyph glyph-name="uni04FF" unicode="&#x4ff;" horiz-adv-x="528" 
d="M33 0zM33 0zM33 0l206 258l-195 242h53l167 -212l167 212h52l-193 -242l205 -258h-54l-177 225l-179 -225h-52zM78 237v36h372v-36h-372z" />
    <glyph glyph-name="uni0510" unicode="&#x510;" horiz-adv-x="663" 
d="M335 -8q-133 0 -198.5 52.5t-65.5 146.5q0 67 37 111t101 58q-56 19 -88.5 61t-32.5 101q0 89 64.5 140t185.5 51q76 0 144 -23.5t115 -69.5l-22 -36q-50 46 -110 67t-131 21q-99 0 -150.5 -39.5t-51.5 -110.5q0 -70 48.5 -108t140.5 -38h165v-39h-179q-96 0 -144 -36
t-48 -113q0 -76 53.5 -115.5t165.5 -39.5q84 0 145.5 22t113.5 69l22 -36q-42 -44 -115 -70t-165 -26z" />
    <glyph glyph-name="uni0511" unicode="&#x511;" horiz-adv-x="489" 
d="M252 -8q-100 0 -149.5 39.5t-49.5 104.5q0 46 28.5 78t73.5 42q-39 13 -62 43t-23 71q0 66 50.5 102t133.5 36q53 0 102 -15.5t90 -50.5l-22 -33q-40 32 -82 46.5t-88 14.5q-65 0 -103 -27t-38 -74q0 -46 32 -71t87 -25h99v-38h-107q-61 0 -94 -25t-33 -74t36.5 -77
t118.5 -28q55 0 99.5 15.5t80.5 49.5l21 -34q-31 -33 -84.5 -51.5t-116.5 -18.5z" />
    <glyph glyph-name="uni0512" unicode="&#x512;" horiz-adv-x="753" 
d="M523 -186q-16 0 -33.5 2t-36.5 6v39q38 -9 64 -9q46 0 71.5 28.5t25.5 92.5v693h-372v-181q0 -117 -13 -200.5t-39 -141t-64 -95t-89 -61.5l-17 38q42 21 75.5 51t57.5 81t36.5 133t12.5 205v210h454v-731q0 -76 -33.5 -118t-99.5 -42z" />
    <glyph glyph-name="uni0513" unicode="&#x513;" horiz-adv-x="568" 
d="M290 -193l-3 38l43 3q108 8 108 130v486h-244v-70q0 -126 -13.5 -204.5t-45.5 -124t-87 -74.5l-22 33q38 20 62.5 47t38.5 68.5t20 103.5t6 152v105h327v-521q0 -76 -38 -120t-108 -49z" />
    <glyph glyph-name="uni051A" unicode="&#x51a;" horiz-adv-x="759" 
d="M68 0zM379 -8q-98 0 -167.5 44t-106.5 125t-37 192q0 112 36.5 192.5t106 124t168.5 43.5q96 0 166 -43.5t108 -124t38 -191.5q0 -142 -61 -234t-168 -118q27 -49 64.5 -89t74.5 -71l-30 -33q-39 29 -82.5 80t-73.5 105q-18 -2 -36 -2zM379 33q125 0 196 84t71 236
t-70.5 235.5t-196.5 83.5q-130 0 -198 -83.5t-68 -235.5q0 -151 68 -235.5t198 -84.5z" />
    <glyph glyph-name="uni051B" unicode="&#x51b;" horiz-adv-x="589" 
d="M57 0zM456 -216v315q-23 -51 -69.5 -79t-107.5 -28q-102 0 -162 68.5t-60 189.5t60.5 189.5t161.5 68.5q62 0 109 -29t69 -81l8 102h41q-3 -28 -5.5 -55t-2.5 -53v-608h-42zM279 31q82 0 130 56.5t48 162.5t-48 162.5t-130 56.5t-130.5 -56.5t-48.5 -162.5t48.5 -162.5
t130.5 -56.5z" />
    <glyph glyph-name="uni051C" unicode="&#x51c;" horiz-adv-x="1104" 
d="M42 0zM285 0l-243 705h45l220 -643l228 643h39l220 -647l225 647h43l-246 -705h-44l-217 643l-228 -643h-42z" />
    <glyph glyph-name="uni051D" unicode="&#x51d;" horiz-adv-x="863" 
d="M45 0zM221 0l-176 500h47l154 -448l160 448h53l157 -447l156 447h46l-177 -500h-50l-158 449l-161 -449h-51z" />
    <glyph glyph-name="uni0524" unicode="&#x524;" horiz-adv-x="796" 
d="M97 0v705h565v-666h104v-189h-41v150h-105v666h-482v-666h-41z" />
    <glyph glyph-name="uni0525" unicode="&#x525;" horiz-adv-x="579" 
d="M88 0v500h401v-463h77v-167h-38v130h-81v464h-317v-464h-42z" />
    <glyph glyph-name="uni0526" unicode="&#x526;" horiz-adv-x="711" 
d="M97 0v705h42v-318q36 21 89.5 31.5t107.5 10.5q136 0 206 -70.5t70 -210.5v-109h103v-189h-41v150h-104v142q0 127 -59 187t-176 60q-53 0 -102.5 -10t-93.5 -36v-343h-42z" />
    <glyph glyph-name="uni0527" unicode="&#x527;" horiz-adv-x="577" 
d="M91 0v736h42v-327q25 49 71.5 74t105.5 25q91 0 134.5 -47t43.5 -141v-283h77v-167h-38v130h-81v316q0 80 -32 116.5t-104 36.5q-80 0 -128.5 -49t-48.5 -130v-290h-42z" />
    <glyph glyph-name="uni0528" unicode="&#x528;" horiz-adv-x="759" 
d="M7 -186q-16 0 -33.5 2t-36.5 6v39q38 -9 64 -9q46 0 72 29t26 93v731h41v-328h481v328h41v-705h-41v339h-481v-365q0 -76 -33.5 -118t-99.5 -42z" />
    <glyph glyph-name="uni0529" unicode="&#x529;" horiz-adv-x="580" 
d="M-60 -193l-3 38l43 3q108 8 108 130v522h42v-222h321v222h41v-500h-41v241h-321v-262q0 -76 -38 -120t-108 -49z" />
    <glyph glyph-name="uni052E" unicode="&#x52e;" horiz-adv-x="790" 
d="M37 -13l-17 38q42 21 75.5 51t57.5 81t36.5 133t12.5 205v210h454v-666h103v-189h-41v150h-104v666h-372v-181q0 -117 -13 -200.5t-39 -141t-64 -95t-89 -61.5z" />
    <glyph glyph-name="uni052F" unicode="&#x52f;" horiz-adv-x="570" 
d="M48 -9l-22 33q38 20 62.5 47t38.5 68.5t20 103.5t6 152v105h327v-463h77v-167h-38v130h-81v464h-244v-70q0 -126 -13.5 -204.5t-45.5 -124t-87 -74.5z" />
    <glyph glyph-name="uni1E08" unicode="&#x1e08;" horiz-adv-x="684" 
d="M68 0zM385 -8q-102 0 -172.5 43.5t-107.5 124.5t-37 193t37 192.5t107.5 124t172.5 43.5q77 0 135.5 -24.5t103.5 -71.5l-22 -35q-49 47 -99.5 68.5t-118.5 21.5q-133 0 -202 -83.5t-69 -235.5t69 -236t202 -84q68 0 118.5 21.5t99.5 68.5l22 -35q-45 -47 -104 -71.5
t-135 -24.5zM389 -190q-49 0 -78 18l9 34q19 -9 34 -12.5t39 -3.5q27 0 44.5 11t17.5 32q0 32 -39 32q-11 0 -22.5 -2t-28.5 -8l-15 13l15 96h38l-12 -69q15 3 26 3q32 0 55 -17t23 -48q0 -35 -29.5 -57t-76.5 -22zM367 765l118 170h56l-136 -170h-38z" />
    <glyph glyph-name="uni1E09" unicode="&#x1e09;" horiz-adv-x="487" 
d="M54 0zM281 -8q-105 0 -166 70.5t-61 191.5q0 122 62 188t165 66q47 0 90.5 -18.5t72.5 -51.5l-21 -32q-32 33 -69 48t-74 15q-86 0 -134.5 -55.5t-48.5 -160.5q0 -106 48.5 -164t134.5 -58q35 0 72.5 14.5t70.5 48.5l21 -32q-30 -34 -74.5 -52t-88.5 -18zM286 -190
q-49 0 -78 18l9 34q19 -9 34 -12.5t39 -3.5q27 0 44.5 11t17.5 32q0 32 -39 32q-11 0 -22.5 -2t-28.5 -8l-15 13l15 96h38l-12 -69q15 3 26 3q32 0 55 -17t23 -48q0 -35 -29.5 -57t-76.5 -22zM263 549l104 200h54l-122 -200h-36z" />
    <glyph glyph-name="uni1E0C" unicode="&#x1e0c;" horiz-adv-x="733" 
d="M97 0zM97 0v705h214q171 0 262.5 -89.5t91.5 -262.5t-91.5 -263t-262.5 -90h-214zM139 39h168q313 0 313 314q0 313 -313 313h-168v-627zM340 -172v63h64v-63h-64z" />
    <glyph glyph-name="uni1E0D" unicode="&#x1e0d;" horiz-adv-x="583" 
d="M54 0zM274 -8q-101 0 -160.5 68.5t-59.5 189.5t59.5 189.5t160.5 68.5q62 0 109 -28.5t70 -79.5v336h42v-736h-42v100q-23 -51 -70 -79.5t-109 -28.5zM275 31q81 0 130 56.5t49 162.5t-49 162.5t-130 56.5q-82 0 -130 -56.5t-48 -162.5t48 -162.5t130 -56.5zM262 -172v63
h64v-63h-64z" />
    <glyph glyph-name="uni1E0E" unicode="&#x1e0e;" horiz-adv-x="733" 
d="M97 0zM97 0v705h214q171 0 262.5 -89.5t91.5 -262.5t-91.5 -263t-262.5 -90h-214zM139 39h168q313 0 313 314q0 313 -313 313h-168v-627zM232 -148v38h280v-38h-280z" />
    <glyph glyph-name="uni1E0F" unicode="&#x1e0f;" horiz-adv-x="583" 
d="M54 0zM274 -8q-101 0 -160.5 68.5t-59.5 189.5t59.5 189.5t160.5 68.5q62 0 109 -28.5t70 -79.5v336h42v-736h-42v100q-23 -51 -70 -79.5t-109 -28.5zM275 31q81 0 130 56.5t49 162.5t-49 162.5t-130 56.5q-82 0 -130 -56.5t-48 -162.5t48 -162.5t130 -56.5zM154 -148v38
h280v-38h-280z" />
    <glyph glyph-name="uni1E14" unicode="&#x1e14;" horiz-adv-x="582" 
d="M97 0zM97 0v705h428v-39h-386v-289h364v-39h-364v-299h386v-39h-428zM305 871l-116 150h54l98 -150h-36zM183 796v38h280v-38h-280z" />
    <glyph glyph-name="uni1E15" unicode="&#x1e15;" horiz-adv-x="541" 
d="M54 0zM294 -8q-110 0 -175 67.5t-65 188.5q0 80 29 138t81.5 90t120.5 32q97 0 151 -61t54 -168v-27h-393v-4q0 -106 52 -161.5t145 -55.5q47 0 88 15t79 51l21 -33q-31 -34 -82 -53t-106 -19zM284 470q-80 0 -128 -49.5t-57 -130.5h352q-3 84 -45.5 132t-121.5 48z
M267 650l-116 150h54l98 -150h-36zM145 575v38h280v-38h-280z" />
    <glyph glyph-name="uni1E16" unicode="&#x1e16;" horiz-adv-x="582" 
d="M97 0zM97 0v705h428v-39h-386v-289h364v-39h-364v-299h386v-39h-428zM305 871l98 150h54l-116 -150h-36zM183 796v38h280v-38h-280z" />
    <glyph glyph-name="uni1E17" unicode="&#x1e17;" horiz-adv-x="541" 
d="M54 0zM294 -8q-110 0 -175 67.5t-65 188.5q0 80 29 138t81.5 90t120.5 32q97 0 151 -61t54 -168v-27h-393v-4q0 -106 52 -161.5t145 -55.5q47 0 88 15t79 51l21 -33q-31 -34 -82 -53t-106 -19zM284 470q-80 0 -128 -49.5t-57 -130.5h352q-3 84 -45.5 132t-121.5 48z
M267 650l98 150h54l-116 -150h-36zM145 575v38h280v-38h-280z" />
    <glyph glyph-name="uni1E1C" unicode="&#x1e1c;" horiz-adv-x="582" 
d="M97 0zM97 0v705h428v-39h-386v-289h364v-39h-364v-299h386v-39h-428zM328 -190q-49 0 -78 18l9 34q19 -9 34 -12.5t39 -3.5q27 0 44.5 11t17.5 32q0 32 -39 32q-11 0 -22.5 -2t-28.5 -8l-15 13l15 96h38l-12 -69q15 3 26 3q32 0 55 -17t23 -48q0 -35 -29.5 -57t-76.5 -22
zM323 760q-64 0 -107 44.5t-50 122.5l33 4q5 -64 38 -99.5t86 -35.5t86.5 35.5t37.5 99.5l33 -4q-7 -78 -50 -122.5t-107 -44.5z" />
    <glyph glyph-name="uni1E1D" unicode="&#x1e1d;" horiz-adv-x="541" 
d="M54 0zM294 -8q-110 0 -175 67.5t-65 188.5q0 80 29 138t81.5 90t120.5 32q97 0 151 -61t54 -168v-27h-393v-4q0 -106 52 -161.5t145 -55.5q47 0 88 15t79 51l21 -33q-31 -34 -82 -53t-106 -19zM284 470q-80 0 -128 -49.5t-57 -130.5h352q-3 84 -45.5 132t-121.5 48z
M290 -190q-49 0 -78 18l9 34q19 -9 34 -12.5t39 -3.5q27 0 44.5 11t17.5 32q0 32 -39 32q-11 0 -22.5 -2t-28.5 -8l-15 13l15 96h38l-12 -69q15 3 26 3q32 0 55 -17t23 -48q0 -35 -29.5 -57t-76.5 -22zM285 547q-62 0 -100.5 49.5t-43.5 137.5l33 4q4 -74 33 -114.5
t78 -40.5q50 0 78.5 40.5t32.5 114.5l33 -4q-5 -88 -43.5 -137.5t-100.5 -49.5z" />
    <glyph glyph-name="uni1E20" unicode="&#x1e20;" horiz-adv-x="723" 
d="M68 0zM406 -8q-169 0 -253.5 94.5t-84.5 266.5q0 112 38.5 192.5t111 124t174.5 43.5q77 0 132.5 -24.5t101.5 -71.5l-22 -35q-33 32 -64.5 51.5t-66.5 29t-82 9.5q-133 0 -205.5 -84t-72.5 -236q0 -155 71.5 -237t221.5 -82q53 0 99.5 9t88.5 27v249h-194v39h234v-316
q-38 -21 -101.5 -35t-126.5 -14zM236 822v38h310v-38h-310z" />
    <glyph glyph-name="uni1E21" unicode="&#x1e21;" horiz-adv-x="587" 
d="M54 0zM298 -223q-61 0 -114.5 17.5t-96.5 52.5l20 34q49 -36 91.5 -50.5t100.5 -14.5q78 0 118.5 42.5t40.5 121.5v138q-22 -51 -69.5 -79t-109.5 -28q-69 0 -119.5 30.5t-78 86.5t-27.5 132q0 114 61 181t164 67q63 0 110.5 -29t69.5 -82l8 103h41q-3 -28 -5.5 -55
t-2.5 -53v-405q0 -210 -202 -210zM278 50q83 0 131.5 55.5t48.5 154.5t-48.5 154t-131.5 55t-132 -55t-49 -154t49 -154.5t132 -55.5zM156 633v38h280v-38h-280z" />
    <glyph glyph-name="uni1E24" unicode="&#x1e24;" horiz-adv-x="759" 
d="M97 0zM97 0v705h42v-328h481v328h42v-705h-42v338h-481v-338h-42zM348 -172v63h64v-63h-64z" />
    <glyph glyph-name="uni1E25" unicode="&#x1e25;" horiz-adv-x="570" 
d="M88 0zM88 0v736h42v-327q25 49 71.5 74t105.5 25q91 0 134.5 -47t43.5 -141v-320h-42v316q0 80 -32 116.5t-104 36.5q-80 0 -128.5 -49t-48.5 -130v-290h-42zM254 -172v63h64v-63h-64z" />
    <glyph glyph-name="uni1E2A" unicode="&#x1e2a;" horiz-adv-x="759" 
d="M97 0zM97 0v705h42v-328h481v328h42v-705h-42v338h-481v-338h-42zM380 -215q-62 0 -100.5 39t-43.5 108l33 4q4 -55 33 -85t78 -30q50 0 78.5 30t32.5 85l33 -4q-5 -69 -43.5 -108t-100.5 -39z" />
    <glyph glyph-name="uni1E2B" unicode="&#x1e2b;" horiz-adv-x="570" 
d="M88 0zM88 0v736h42v-327q25 49 71.5 74t105.5 25q91 0 134.5 -47t43.5 -141v-320h-42v316q0 80 -32 116.5t-104 36.5q-80 0 -128.5 -49t-48.5 -130v-290h-42zM286 -215q-62 0 -100.5 39t-43.5 108l33 4q4 -55 33 -85t78 -30q50 0 78.5 30t32.5 85l33 -4
q-5 -69 -43.5 -108t-100.5 -39z" />
    <glyph glyph-name="uni1E2E" unicode="&#x1e2e;" horiz-adv-x="236" 
d="M7 0zM97 0v705h42v-705h-42zM100 871l98 150h54l-116 -150h-36zM7 771v60h61v-60h-61zM168 771v60h61v-60h-61z" />
    <glyph glyph-name="uni1E2F" unicode="&#x1e2f;" horiz-adv-x="218" 
d="M0 0zM88 0v500h42v-500h-42zM91 650l98 150h54l-116 -150h-36zM-2 550v60h61v-60h-61zM159 550v60h61v-60h-61z" />
    <glyph glyph-name="uni1E36" unicode="&#x1e36;" horiz-adv-x="532" 
d="M97 0zM97 0v705h42v-666h378v-39h-420zM271 -172v63h64v-63h-64z" />
    <glyph glyph-name="uni1E37" unicode="&#x1e37;" horiz-adv-x="283" 
d="M85 0zM223 -8q-66 0 -102 42.5t-36 118.5v583h44v-576q0 -127 98 -127q26 0 49 6l-3 -41q-28 -6 -50 -6zM149 -172v63h64v-63h-64z" />
    <glyph glyph-name="uni1E3A" unicode="&#x1e3a;" horiz-adv-x="532" 
d="M97 0zM97 0v705h42v-666h378v-39h-420zM163 -148v38h280v-38h-280z" />
    <glyph glyph-name="uni1E3B" unicode="&#x1e3b;" horiz-adv-x="283" 
d="M41 0zM223 -8q-66 0 -102 42.5t-36 118.5v583h44v-576q0 -127 98 -127q26 0 49 6l-3 -41q-28 -6 -50 -6zM41 -148v38h280v-38h-280z" />
    <glyph glyph-name="uni1E42" unicode="&#x1e42;" horiz-adv-x="848" 
d="M97 0zM97 0v705h37l290 -656l291 656h36v-705h-39v610l-270 -610h-35l-271 611v-611h-39zM392 -172v63h64v-63h-64z" />
    <glyph glyph-name="uni1E43" unicode="&#x1e43;" horiz-adv-x="860" 
d="M80 0zM88 0v392q0 26 -2.5 53t-5.5 55h41l7 -93q22 49 63 75t97 26q122 0 152 -105q21 48 66 76.5t105 28.5q80 0 122 -46t42 -144v-318h-42v314q0 81 -29 118t-94 37q-73 0 -115.5 -49t-42.5 -132v-288h-42v314q0 81 -29 118t-94 37q-73 0 -115 -49t-42 -132v-288h-42z
M398 -172v63h64v-63h-64z" />
    <glyph glyph-name="uni1E44" unicode="&#x1e44;" horiz-adv-x="739" 
d="M97 0zM97 0v705h36l470 -635v635h39v-705h-35l-471 636v-636h-39zM339 818v63h62v-63h-62z" />
    <glyph glyph-name="uni1E45" unicode="&#x1e45;" horiz-adv-x="570" 
d="M80 0zM88 0v392q0 26 -2.5 53t-5.5 55h41l7 -95q25 51 71 77t106 26q89 0 134.5 -46t45.5 -144v-318h-42v314q0 81 -33 118t-104 37q-81 0 -128.5 -49t-47.5 -132v-288h-42zM252 619v63h64v-63h-64z" />
    <glyph glyph-name="uni1E46" unicode="&#x1e46;" horiz-adv-x="739" 
d="M97 0zM97 0v705h36l470 -635v635h39v-705h-35l-471 636v-636h-39zM338 -172v63h64v-63h-64z" />
    <glyph glyph-name="uni1E47" unicode="&#x1e47;" horiz-adv-x="570" 
d="M80 0zM88 0v392q0 26 -2.5 53t-5.5 55h41l7 -95q25 51 71 77t106 26q89 0 134.5 -46t45.5 -144v-318h-42v314q0 81 -33 118t-104 37q-81 0 -128.5 -49t-47.5 -132v-288h-42zM252 -172v63h64v-63h-64z" />
    <glyph glyph-name="uni1E48" unicode="&#x1e48;" horiz-adv-x="739" 
d="M97 0zM97 0v705h36l470 -635v635h39v-705h-35l-471 636v-636h-39zM230 -148v38h280v-38h-280z" />
    <glyph glyph-name="uni1E49" unicode="&#x1e49;" horiz-adv-x="570" 
d="M80 0zM88 0v392q0 26 -2.5 53t-5.5 55h41l7 -95q25 51 71 77t106 26q89 0 134.5 -46t45.5 -144v-318h-42v314q0 81 -33 118t-104 37q-81 0 -128.5 -49t-47.5 -132v-288h-42zM144 -148v38h280v-38h-280z" />
    <glyph glyph-name="uni1E4C" unicode="&#x1e4c;" horiz-adv-x="759" 
d="M68 0zM379 -8q-98 0 -167.5 44t-106.5 125t-37 192q0 112 36.5 192.5t106 124t168.5 43.5q96 0 166 -43.5t108 -124t38 -191.5q0 -112 -38.5 -193t-108.5 -125t-165 -44zM379 33q125 0 196 84t71 236t-70.5 235.5t-196.5 83.5q-130 0 -198 -83.5t-68 -235.5
q0 -151 68 -235.5t198 -84.5zM361 871l98 150h54l-116 -150h-36zM443 768q-18 0 -34.5 8t-39.5 26q-20 17 -31.5 21.5t-21.5 4.5q-22 0 -33.5 -14.5t-16.5 -47.5l-33 2q5 48 27 72t56 24q17 0 32 -7t37 -24t34 -23t23 -6q23 0 34 14.5t16 47.5l33 -2q-4 -48 -26 -72t-56 -24
z" />
    <glyph glyph-name="uni1E4D" unicode="&#x1e4d;" horiz-adv-x="553" 
d="M54 0zM276 -8q-102 0 -162 69t-60 189t60 189t162 69t162.5 -69t60.5 -189t-60.5 -189t-162.5 -69zM276 31q82 0 131 56.5t49 162.5t-49 162.5t-131 56.5t-130.5 -56.5t-48.5 -162.5t48.5 -162.5t130.5 -56.5zM259 650l98 150h54l-116 -150h-36zM164 545l-33 2
q5 48 27 72t56 24q17 0 33.5 -7.5t38.5 -25.5q19 -15 30.5 -21t23.5 -6q23 0 34 14.5t16 47.5l33 -2q-4 -48 -26 -72t-56 -24q-18 0 -34.5 8t-38.5 25q-34 27 -54 27q-22 0 -33.5 -14.5t-16.5 -47.5z" />
    <glyph glyph-name="uni1E4E" unicode="&#x1e4e;" horiz-adv-x="759" 
d="M68 0zM379 -8q-98 0 -167.5 44t-106.5 125t-37 192q0 112 36.5 192.5t106 124t168.5 43.5q96 0 166 -43.5t108 -124t38 -191.5q0 -112 -38.5 -193t-108.5 -125t-165 -44zM379 33q125 0 196 84t71 236t-70.5 235.5t-196.5 83.5q-130 0 -198 -83.5t-68 -235.5
q0 -151 68 -235.5t198 -84.5zM268 910v60h61v-60h-61zM429 910v60h61v-60h-61zM443 768q-18 0 -34.5 8t-39.5 26q-20 17 -31.5 21.5t-21.5 4.5q-22 0 -33.5 -14.5t-16.5 -47.5l-33 2q5 48 27 72t56 24q17 0 32 -7t37 -24t34 -23t23 -6q23 0 34 14.5t16 47.5l33 -2
q-4 -48 -26 -72t-56 -24z" />
    <glyph glyph-name="uni1E4F" unicode="&#x1e4f;" horiz-adv-x="553" 
d="M54 0zM276 -8q-102 0 -162 69t-60 189t60 189t162 69t162.5 -69t60.5 -189t-60.5 -189t-162.5 -69zM276 31q82 0 131 56.5t49 162.5t-49 162.5t-131 56.5t-130.5 -56.5t-48.5 -162.5t48.5 -162.5t130.5 -56.5zM166 689v60h61v-60h-61zM327 689v60h61v-60h-61zM164 545
l-33 2q5 48 27 72t56 24q17 0 33.5 -7.5t38.5 -25.5q19 -15 30.5 -21t23.5 -6q23 0 34 14.5t16 47.5l33 -2q-4 -48 -26 -72t-56 -24q-18 0 -34.5 8t-38.5 25q-34 27 -54 27q-22 0 -33.5 -14.5t-16.5 -47.5z" />
    <glyph glyph-name="uni1E50" unicode="&#x1e50;" horiz-adv-x="759" 
d="M68 0zM379 -8q-98 0 -167.5 44t-106.5 125t-37 192q0 112 36.5 192.5t106 124t168.5 43.5q96 0 166 -43.5t108 -124t38 -191.5q0 -112 -38.5 -193t-108.5 -125t-165 -44zM379 33q125 0 196 84t71 236t-70.5 235.5t-196.5 83.5q-130 0 -198 -83.5t-68 -235.5
q0 -151 68 -235.5t198 -84.5zM361 871l-116 150h54l98 -150h-36zM239 796v38h280v-38h-280z" />
    <glyph glyph-name="uni1E51" unicode="&#x1e51;" horiz-adv-x="553" 
d="M54 0zM276 -8q-102 0 -162 69t-60 189t60 189t162 69t162.5 -69t60.5 -189t-60.5 -189t-162.5 -69zM276 31q82 0 131 56.5t49 162.5t-49 162.5t-131 56.5t-130.5 -56.5t-48.5 -162.5t48.5 -162.5t130.5 -56.5zM259 650l-116 150h54l98 -150h-36zM137 575v38h280v-38h-280
z" />
    <glyph glyph-name="uni1E52" unicode="&#x1e52;" horiz-adv-x="759" 
d="M68 0zM379 -8q-98 0 -167.5 44t-106.5 125t-37 192q0 112 36.5 192.5t106 124t168.5 43.5q96 0 166 -43.5t108 -124t38 -191.5q0 -112 -38.5 -193t-108.5 -125t-165 -44zM379 33q125 0 196 84t71 236t-70.5 235.5t-196.5 83.5q-130 0 -198 -83.5t-68 -235.5
q0 -151 68 -235.5t198 -84.5zM361 871l98 150h54l-116 -150h-36zM239 796v38h280v-38h-280z" />
    <glyph glyph-name="uni1E53" unicode="&#x1e53;" horiz-adv-x="553" 
d="M54 0zM276 -8q-102 0 -162 69t-60 189t60 189t162 69t162.5 -69t60.5 -189t-60.5 -189t-162.5 -69zM276 31q82 0 131 56.5t49 162.5t-49 162.5t-131 56.5t-130.5 -56.5t-48.5 -162.5t48.5 -162.5t130.5 -56.5zM259 650l98 150h54l-116 -150h-36zM137 575v38h280v-38h-280
z" />
    <glyph glyph-name="uni1E5A" unicode="&#x1e5a;" horiz-adv-x="684" 
d="M97 0zM97 0v705h270q107 0 166 -50t59 -141q0 -74 -41.5 -120t-107.5 -59q30 -6 54 -25t39 -58l97 -252h-47l-88 236q-20 55 -58.5 70.5t-99.5 15.5h-201v-322h-42zM139 361h224q90 0 137 39.5t47 113.5t-47 113t-137 39h-224v-305zM306 -172v63h64v-63h-64z" />
    <glyph glyph-name="uni1E5B" unicode="&#x1e5b;" horiz-adv-x="336" 
d="M75 0zM86 0v386q0 59 -6 114h41l5 -87q21 48 66.5 71.5t91.5 23.5q12 0 23.5 -1t21.5 -4l-2 -39q-10 3 -21.5 4t-24.5 1q-46 0 -80.5 -23.5t-53.5 -58t-19 -67.5v-320h-42zM75 -172v63h64v-63h-64z" />
    <glyph glyph-name="uni1E5E" unicode="&#x1e5e;" horiz-adv-x="684" 
d="M97 0zM97 0v705h270q107 0 166 -50t59 -141q0 -74 -41.5 -120t-107.5 -59q30 -6 54 -25t39 -58l97 -252h-47l-88 236q-20 55 -58.5 70.5t-99.5 15.5h-201v-322h-42zM139 361h224q90 0 137 39.5t47 113.5t-47 113t-137 39h-224v-305zM198 -148v38h280v-38h-280z" />
    <glyph glyph-name="uni1E5F" unicode="&#x1e5f;" horiz-adv-x="336" 
d="M0 0zM86 0v386q0 59 -6 114h41l5 -87q21 48 66.5 71.5t91.5 23.5q12 0 23.5 -1t21.5 -4l-2 -39q-10 3 -21.5 4t-24.5 1q-46 0 -80.5 -23.5t-53.5 -58t-19 -67.5v-320h-42zM-33 -148v38h280v-38h-280z" />
    <glyph glyph-name="uni1E60" unicode="&#x1e60;" horiz-adv-x="604" 
d="M52 0zM313 -8q-85 0 -148 22.5t-113 65.5l21 36q37 -29 71 -47.5t74.5 -27t93.5 -8.5q98 0 148.5 39.5t50.5 105.5q0 56 -35.5 86t-121.5 47l-99 20q-97 20 -144 63t-47 119q0 60 31 105t86 70t128 25q151 0 240 -92l-20 -36q-49 47 -101 67t-119 20q-92 0 -146.5 -43
t-54.5 -116q0 -59 35 -91.5t113 -48.5l100 -20q104 -21 151.5 -60.5t47.5 -113.5q0 -83 -64.5 -135t-177.5 -52zM282 818v63h62v-63h-62z" />
    <glyph glyph-name="uni1E61" unicode="&#x1e61;" horiz-adv-x="492" 
d="M58 0zM244 -8q-56 0 -105.5 17.5t-80.5 48.5l21 33q36 -31 78 -45.5t89 -14.5q68 0 104 26t36 71q0 35 -23 56.5t-76 32.5l-87 19q-64 15 -95 48t-31 82q0 62 48 102t131 40q53 0 97.5 -18t71.5 -50l-22 -33q-60 62 -147 62q-65 0 -99.5 -28t-34.5 -74q0 -35 21.5 -57
t68.5 -33l87 -20q68 -16 101 -46.5t33 -80.5q0 -63 -51 -100.5t-135 -37.5zM220 619v63h64v-63h-64z" />
    <glyph glyph-name="uni1E62" unicode="&#x1e62;" horiz-adv-x="604" 
d="M52 0zM313 -8q-85 0 -148 22.5t-113 65.5l21 36q37 -29 71 -47.5t74.5 -27t93.5 -8.5q98 0 148.5 39.5t50.5 105.5q0 56 -35.5 86t-121.5 47l-99 20q-97 20 -144 63t-47 119q0 60 31 105t86 70t128 25q151 0 240 -92l-20 -36q-49 47 -101 67t-119 20q-92 0 -146.5 -43
t-54.5 -116q0 -59 35 -91.5t113 -48.5l100 -20q104 -21 151.5 -60.5t47.5 -113.5q0 -83 -64.5 -135t-177.5 -52zM287 -172v63h64v-63h-64z" />
    </font>
</defs>
</svg>
